<?xml version="1.0" standalone="no"?>
<!DOCTYPE svg PUBLIC "-//W3C//DTD SVG 1.1//EN" "http://www.w3.org/Graphics/SVG/1.1/DTD/svg11.dtd" >
<svg xmlns="http://www.w3.org/2000/svg" xmlns:xlink="http://www.w3.org/1999/xlink" version="1.1">
<metadata>
Created by FontForge 20161013 at Fri May  5 14:18:53 2017
 By ,,,
Copyright 2014 Pria Ravichandran (pria.ravichandran@gmail.com)
</metadata>
<defs>
<font id="Palanquin-Regular" horiz-adv-x="320" >
  <font-face 
    font-family="Palanquin"
    font-weight="400"
    font-stretch="normal"
    units-per-em="1000"
    panose-1="2 11 0 4 2 2 3 2 2 4"
    ascent="770"
    descent="-230"
    x-height="485"
    cap-height="680"
    bbox="-503 -432 2291 1320"
    underline-thickness="50"
    underline-position="-200"
    unicode-range="U+000D-FB02"
  />
<missing-glyph horiz-adv-x="658" 
d="M563 696v-696h-469v696h469zM174 632v-569h309l-1 569h-308z" />
    <glyph glyph-name=".notdef" horiz-adv-x="658" 
d="M563 696v-696h-469v696h469zM174 632v-569h309l-1 569h-308z" />
    <glyph glyph-name=".null" horiz-adv-x="0" 
 />
    <glyph glyph-name=".null" horiz-adv-x="0" 
 />
    <glyph glyph-name="nonmarkingreturn" horiz-adv-x="333" 
 />
    <glyph glyph-name="CR" unicode="&#xd;" horiz-adv-x="0" 
 />
    <glyph glyph-name="space" unicode=" " horiz-adv-x="236" 
 />
    <glyph glyph-name="exclam" unicode="!" horiz-adv-x="229" 
d="M159 702l-16 -506l-57 27l-17 479h90zM114 107q23 0 38.5 -15.5t15.5 -37.5q0 -23 -15.5 -38.5t-38.5 -15.5q-22 0 -38.5 15.5t-16.5 38.5q0 22 16.5 37.5t38.5 15.5z" />
    <glyph glyph-name="quotedbl" unicode="&#x22;" horiz-adv-x="291" 
d="M230 712q22 0 38 -17.5t16 -46.5q0 -47 -29.5 -94.5t-71.5 -69.5l-21 37q25 18 40.5 36.5t19.5 46.5q-19 1 -32.5 17t-13.5 36q0 22 15.5 38.5t38.5 16.5zM74 712q22 0 38 -17.5t16 -46.5q0 -47 -29.5 -94.5t-72.5 -69.5l-20 37q24 18 39.5 36.5t19.5 46.5
q-19 1 -32.5 17t-13.5 36q0 22 16 38.5t39 16.5z" />
    <glyph glyph-name="numbersign" unicode="#" horiz-adv-x="501" 
d="M442 506l-30 -126h60l8 -61h-83l-30 -127h105l8 -61h-127l-32 -134l-64 5l30 129h-133l-31 -134l-65 5l30 129h-58l-9 61h82l29 127h-102l-9 61h127l29 126h66l-30 -126h133l29 126h67zM199 319l-30 -127h132l30 127h-132z" />
    <glyph glyph-name="dollar" unicode="$" horiz-adv-x="538" 
d="M351 802v-118q26 -5 48.5 -13.5t41.5 -16.5q-6 -16 -13 -31t-14 -31q-27 13 -60.5 24.5t-84.5 11.5q-65 0 -103.5 -27t-38.5 -75q0 -111 180.5 -161t180.5 -199q0 -57 -36 -101.5t-101 -64.5v-115q-15 1 -29 2.5t-29 2.5v100q-10 -1 -21.5 -2t-23.5 -1h-19v-102h-57v111
q-36 7 -67.5 17t-43.5 20q4 15 9 30.5t10 31.5q27 -13 72.5 -27t94.5 -14q79 0 121 30.5t42 79.5q0 107 -180 156.5t-180 203.5q0 53 32.5 95t89.5 61v122l57 -4v-106q10 1 20 2.5t18 1.5q7 0 13.5 -0.5t12.5 -1.5v108h58z" />
    <glyph glyph-name="percent" unicode="%" horiz-adv-x="860" 
d="M620 706l-306 -710l-76 4l305 710zM31 532q0 78 46.5 124t111.5 46q69 0 114 -44.5t45 -125.5q0 -78 -46.5 -123.5t-111.5 -45.5q-69 0 -114 44t-45 125zM105 532q0 -56 25.5 -82t59.5 -26q30 0 57 25t27 83q0 57 -25.5 82.5t-59.5 25.5q-30 0 -57 -25t-27 -83zM512 169
q0 78 46.5 123.5t112.5 45.5q68 0 112.5 -44.5t44.5 -124.5q0 -78 -46 -123.5t-111 -45.5q-69 0 -114 44t-45 125zM587 169q0 -57 25 -82.5t59 -25.5q30 0 56.5 25.5t26.5 82.5q0 56 -25 82t-58 26q-31 0 -57.5 -25t-26.5 -83z" />
    <glyph glyph-name="ampersand" unicode="&#x26;" horiz-adv-x="682" 
d="M138 212q0 -81 54.5 -118.5t121.5 -37.5q51 0 91 17t68 48l-206 187q-14 14 -30.5 28.5t-26.5 24.5q-34 -22 -52.5 -61t-19.5 -88zM455 593q-27 13 -54.5 24.5t-77.5 11.5q-51 0 -81 -33.5t-30 -73.5q0 -48 26 -81t75 -79l198 -185q18 36 28.5 79.5t13.5 94.5l64 -26
q-3 -57 -15 -107.5t-34 -91.5l82 -75l-41 -55l-82 74q-35 -39 -88 -61t-125 -22q-107 1 -182 57t-75 166q1 65 31 119t77 85q-15 21 -22.5 46t-7.5 56q0 72 49 126t139 54q50 0 88.5 -13t71.5 -29z" />
    <glyph glyph-name="quotesingle" unicode="'" horiz-adv-x="135" 
d="M74 712q22 0 38 -17.5t16 -46.5q0 -47 -29.5 -94.5t-72.5 -69.5l-20 37q24 18 39.5 36.5t19.5 46.5q-19 1 -32.5 17t-13.5 36q0 22 16 38.5t39 16.5z" />
    <glyph glyph-name="parenleft" unicode="(" horiz-adv-x="251" 
d="M170 -38q-61 80 -91 177t-30 181t29.5 179.5t91.5 177.5l65 -23q-44 -50 -76 -155.5t-32 -177.5q0 -74 32 -181t75 -155z" />
    <glyph glyph-name="parenright" unicode=")" horiz-adv-x="251" 
d="M80 677q60 -80 90.5 -176.5t30.5 -180.5t-30 -180t-91 -178l-64 23q43 49 75 155.5t32 178.5q0 74 -32 180t-75 154z" />
    <glyph glyph-name="asterisk" unicode="*" horiz-adv-x="342" 
d="M203 661l117 25l17 -52l-117 -23l81 -117l-45 -35l-84 113l-84 -113l-47 35l82 117q-6 1 -58 11.5t-59 11.5l16 52l117 -25q0 6 0.5 55t0.5 56h62z" />
    <glyph glyph-name="plus" unicode="+" horiz-adv-x="514" 
d="M495 242h-200v-238l-74 4v234h-193l-8 62h201v230l74 -3v-227h190z" />
    <glyph glyph-name="comma" unicode="," horiz-adv-x="152" 
d="M82 107q23 0 39 -17t16 -45q0 -49 -29.5 -96t-72.5 -69l-21 38q25 17 41 36t19 47q-18 1 -32 17t-14 36q0 21 16 37t38 16z" />
    <glyph glyph-name="hyphen" unicode="-" horiz-adv-x="292" 
d="M276 242h-251l-9 63h251z" />
    <glyph glyph-name="period" unicode="." horiz-adv-x="137" 
d="M69 107q22 0 37.5 -15.5t15.5 -37.5q0 -23 -15.5 -38.5t-37.5 -15.5q-23 0 -39 15.5t-16 38.5q0 22 16 37.5t39 15.5z" />
    <glyph glyph-name="slash" unicode="/" horiz-adv-x="394" 
d="M388 706l-306 -710l-76 4l305 710z" />
    <glyph glyph-name="zero" unicode="0" horiz-adv-x="608" 
d="M59 287q0 136 68 214t177 78t176 -75.5t67 -215.5q0 -136 -69 -218.5t-174 -82.5q-107 0 -176 80t-69 220zM138 290q0 -111 47 -173t119 -62q69 0 117 62t48 168q0 110 -46.5 168.5t-118.5 58.5q-71 0 -118.5 -58.5t-47.5 -163.5z" />
    <glyph glyph-name="one" unicode="1" horiz-adv-x="396" 
d="M343 0h-271l-9 60h107v411q-17 -12 -34.5 -23.5t-34.5 -22.5q-10 13 -19 27t-18 27l133 87h53v-506h85q2 -16 4.5 -30.5t3.5 -29.5z" />
    <glyph glyph-name="two" unicode="2" horiz-adv-x="494" 
d="M227 579q109 0 152.5 -56t43.5 -115q0 -57 -37 -105.5t-109 -111.5l-147 -129h303l10 -62h-412v59l203 184q63 57 87 91.5t24 73.5q0 46 -30 76t-90 30q-47 0 -89.5 -24t-43.5 -25l-35 57q8 5 54.5 31t115.5 26z" />
    <glyph glyph-name="three" unicode="3" horiz-adv-x="517" 
d="M240 579q101 0 151.5 -50t50.5 -115q0 -52 -31.5 -91.5t-74.5 -53.5q49 -12 83.5 -55t34.5 -104q0 -78 -62 -132t-167 -54q-55 0 -107.5 17.5t-89.5 37.5l42 54q36 -22 71 -33.5t87 -11.5q56 0 101.5 31.5t45.5 88.5q0 60 -43.5 95t-141.5 35h-24l-12 59h42
q78 0 122.5 31.5t44.5 84.5q0 40 -34 70.5t-92 30.5q-52 0 -92 -16.5t-65 -32.5l-39 52q42 27 90.5 44.5t108.5 17.5z" />
    <glyph glyph-name="four" unicode="4" horiz-adv-x="556" 
d="M516 70h-95v-139h-80v139h-299l-11 65l335 436h55v-436h104zM116 135h225v298z" />
    <glyph glyph-name="five" unicode="5" horiz-adv-x="538" 
d="M85 224l16 342h341l-10 -65h-259l-9 -196q24 15 51 23.5t53 8.5q111 0 161 -60.5t51 -142.5q0 -87 -61 -148.5t-174 -61.5q-55 0 -107 17.5t-89 36.5l41 56q37 -21 72 -33t87 -12q68 0 110 39t42 106q0 66 -36 102t-93 36q-39 0 -68.5 -17t-42.5 -31h-76z" />
    <glyph glyph-name="six" unicode="6" horiz-adv-x="545" 
d="M497 193q0 -80 -56 -143t-146 -63q-104 0 -170 70t-66 204q0 110 81 228.5t210 144.5l33 -49q-89 -21 -153 -93.5t-83 -159.5q27 24 65.5 42t80.5 18q94 0 149 -60.5t55 -138.5zM422 188q0 55 -35 99t-95 44q-54 0 -94.5 -27.5t-59.5 -61.5q3 -85 41 -137t113 -52
q59 0 94.5 41.5t35.5 93.5z" />
    <glyph glyph-name="seven" unicode="7" horiz-adv-x="488" 
d="M58 -45l305 546h-304l-10 65h385l26 -35l-327 -600z" />
    <glyph glyph-name="eight" unicode="8" horiz-adv-x="556" 
d="M503 173q0 -75 -58 -130.5t-167 -55.5q-110 0 -168 55t-58 131q0 53 39 103t92 63q-44 18 -74 54t-30 85q0 65 51.5 115t147.5 50t147 -50t51 -115q0 -49 -31.5 -85t-71.5 -54q50 -13 90 -59.5t40 -106.5zM156 476q-1 -40 31 -70.5t91 -39.5q58 9 90 40t32 70
q0 41 -31 72t-94 31q-59 0 -89 -31.5t-30 -71.5zM129 171q0 -54 43.5 -87t105.5 -33q60 0 104 33t44 87q0 51 -37.5 89.5t-110.5 48.5q-75 -10 -112 -48.5t-37 -89.5z" />
    <glyph glyph-name="nine" unicode="9" horiz-adv-x="545" 
d="M47 372q0 80 56.5 143.5t146.5 63.5q104 0 169 -70t65 -205q0 -110 -80.5 -228t-208.5 -145l-35 51q90 19 153.5 92t82.5 159q-27 -23 -65.5 -41t-78.5 -18q-95 0 -150 60t-55 138zM123 378q0 -55 34.5 -99t94.5 -44q54 0 94.5 27t59.5 61q-4 85 -41 137.5t-112 52.5
q-60 0 -95 -41.5t-35 -93.5z" />
    <glyph glyph-name="colon" unicode=":" horiz-adv-x="137" 
d="M68 457q23 0 38.5 -16.5t15.5 -38.5t-15.5 -38t-38.5 -16q-22 0 -38 16t-16 38t16 38.5t38 16.5zM68 135q23 0 38.5 -15.5t15.5 -38.5t-15.5 -38.5t-38.5 -15.5q-22 0 -38 15.5t-16 38.5t16 38.5t38 15.5z" />
    <glyph glyph-name="semicolon" unicode=";" horiz-adv-x="154" 
d="M84 457q22 0 38 -16.5t16 -38.5t-16 -38t-38 -16q-23 0 -39 16t-16 38t16 38.5t39 16.5zM82 135q23 0 39 -17.5t16 -46.5q0 -47 -29.5 -94.5t-72.5 -69.5l-21 38q25 17 41 36t19 47q-18 1 -32 16.5t-14 36.5q0 22 16 38t38 16z" />
    <glyph glyph-name="less" unicode="&#x3c;" horiz-adv-x="321" 
d="M267 19l-256 201v50l256 200l23 -60l-204 -165l204 -165z" />
    <glyph glyph-name="equal" unicode="=" horiz-adv-x="484" 
d="M463 319h-433l-9 61h434zM463 131h-433l-9 61h434z" />
    <glyph glyph-name="greater" unicode="&#x3e;" horiz-adv-x="321" 
d="M310 219l-256 -200l-23 60l204 166q-51 40 -102 82t-102 83l23 60l256 -200v-51z" />
    <glyph glyph-name="question" unicode="?" horiz-adv-x="400" 
d="M194 702q99 0 145 -47t46 -121q0 -56 -48.5 -112.5t-128.5 -93.5l-10 -179l-58 23l-8 196q76 25 125.5 68t49.5 97q0 53 -29.5 77t-85.5 24q-49 0 -88 -16t-80 -46l-11 70q41 26 82 43t99 17zM167 107q22 0 38 -15.5t16 -37.5q0 -23 -16 -38.5t-38 -15.5
q-23 0 -38.5 15.5t-15.5 38.5q0 22 15.5 37.5t38.5 15.5z" />
    <glyph glyph-name="at" unicode="@" horiz-adv-x="801" 
d="M537 415l25 -30q-18 -151 -21 -179t-3 -29q0 -31 16.5 -42t32.5 -11q41 0 68.5 46.5t27.5 127.5q0 103 -66.5 169.5t-177.5 66.5q-123 0 -217.5 -86t-94.5 -232q0 -119 75.5 -187t182.5 -68q40 0 85 8.5t79 26.5l20 -59q-45 -23 -95.5 -32t-99.5 -9q-123 0 -222.5 87.5
t-99.5 232.5q0 154 104 267t285 113q136 0 223 -83t87 -209q0 -120 -47 -180.5t-124 -60.5q-24 0 -45 8.5t-36 24.5q-18 -12 -43 -22t-51 -10q-84 0 -125 42t-41 108q0 92 69 146.5t156 54.5h73zM404 124q23 0 41.5 9t28.5 24q-1 4 -1.5 10t-0.5 11q0 42 8 86.5t15 94.5h-42
q-56 -2 -98 -41t-42 -104q0 -32 20.5 -61t70.5 -29z" />
    <glyph glyph-name="A" unicode="A" horiz-adv-x="601" 
d="M295 575l-119 -318h242zM334 680l261 -668l-79 -12l-75 193h-287l-71 -193h-77l251 680h77z" />
    <glyph glyph-name="B" unicode="B" horiz-adv-x="616" 
d="M279 680q105 0 172 -39t67 -141q0 -48 -23 -82t-61 -54q58 -20 94.5 -62t36.5 -111q0 -104 -73 -147.5t-179 -43.5h-213v680h179zM275 613h-97v-229h93q72 1 119 25t47 89q0 71 -44 93t-118 22zM322 320h-144v-254h134q72 0 122 26.5t50 96.5q0 69 -44 100t-118 31z" />
    <glyph glyph-name="C" unicode="C" horiz-adv-x="598" 
d="M514 597q-34 13 -64 21t-81 8q-100 -1 -158.5 -81t-58.5 -208q0 -116 49.5 -199.5t158.5 -83.5q51 0 86.5 9t63.5 22l30 -60q-31 -16 -82.5 -27.5t-93.5 -11.5q-157 0 -226 104.5t-69 245.5q0 151 76.5 254.5t223.5 103.5q31 0 84.5 -9t85.5 -30z" />
    <glyph glyph-name="D" unicode="D" horiz-adv-x="695" 
d="M99 0v680h229q157 0 227 -98t70 -238q0 -146 -77.5 -245t-226.5 -99h-222zM331 612h-153v-546h144q101 0 163 73t62 204q0 117 -53 193t-163 76z" />
    <glyph glyph-name="E" unicode="E" horiz-adv-x="538" 
d="M99 0v680h372l4 -30t5 -30h-302v-243h196l4 -30t5 -30h-205v-255h322l9 -62h-410z" />
    <glyph glyph-name="F" unicode="F" horiz-adv-x="486" 
d="M373 313h-195v-313h-78v680h358l10 -59h-290v-249h185z" />
    <glyph glyph-name="G" unicode="G" horiz-adv-x="657" 
d="M362 349h219v-300q0 -4 -0.5 -8t-0.5 -8l1 -1q-31 -19 -87 -32.5t-104 -13.5q-156 0 -238.5 100.5t-82.5 249.5q0 160 90.5 259t239.5 99q31 0 85 -9.5t86 -29.5l-25 -58q-34 13 -63.5 21t-80.5 8q-103 0 -176 -75t-73 -214q0 -131 63.5 -207t173.5 -76q35 0 64 6.5
t52 13.5v216h-150q1 15 3 30t4 29z" />
    <glyph glyph-name="H" unicode="H" horiz-adv-x="677" 
d="M498 0v311h-320v-311h-79v680l79 5v-311h320v306h79v-680h-79z" />
    <glyph glyph-name="I" unicode="I" horiz-adv-x="278" 
d="M99 0v680h79v-680h-79z" />
    <glyph glyph-name="J" unicode="J" horiz-adv-x="282" 
d="M103 146v534h79v-552q0 -63 -27.5 -94.5t-104.5 -55.5q-7 14 -15 28t-16 27q51 19 67.5 38t16.5 75z" />
    <glyph glyph-name="K" unicode="K" horiz-adv-x="611" 
d="M507 0l-258 331l-74 -85v-246h-79v680h79v-330q73 86 147 172.5t146 172.5q13 -12 27 -23.5t27 -23.5q-55 -65 -111 -129.5t-112 -128.5l304 -390h-96z" />
    <glyph glyph-name="L" unicode="L" horiz-adv-x="516" 
d="M498 0h-398v680h78v-617h311z" />
    <glyph glyph-name="M" unicode="M" horiz-adv-x="777" 
d="M380 224l-202 290v-514h-78v680h46l245 -347l236 347h50v-680h-80v512l-190 -283z" />
    <glyph glyph-name="N" unicode="N" horiz-adv-x="713" 
d="M99 0v680h63l331 -460l41 -67v527h80v-680h-63l-347 489l-26 44v-533h-79z" />
    <glyph glyph-name="O" unicode="O" horiz-adv-x="737" 
d="M69 337q0 151 77 253.5t225 105.5q157 0 227.5 -105.5t70.5 -245.5q0 -146 -77.5 -251.5t-225.5 -107.5q-157 0 -227 105.5t-70 245.5zM152 338q0 -118 51 -201t161 -83q101 0 160.5 79.5t59.5 210.5q0 118 -51 200t-161 82q-100 0 -160 -80.5t-60 -207.5z" />
    <glyph glyph-name="P" unicode="P" horiz-adv-x="584" 
d="M100 0v680h185q107 0 179 -47.5t72 -160.5q-1 -112 -78 -163.5t-184 -51.5h-96v-257h-78zM285 613h-107v-289h100q74 0 124.5 33.5t51.5 111.5q0 82 -45.5 113t-123.5 31z" />
    <glyph glyph-name="Q" unicode="Q" horiz-adv-x="737" 
d="M606 -20l-67 63q-34 -27 -78 -41.5t-95 -15.5q-157 0 -227 105.5t-70 245.5q0 151 77 253.5t225 105.5q157 0 227.5 -105.5t70.5 -245.5q0 -75 -21.5 -142.5t-62.5 -116.5l68 -65zM152 338q0 -118 51 -201t161 -83q35 0 65 10.5t55 29.5l-98 92l55 42l88 -87
q26 37 40.5 89t14.5 114q0 118 -51 200t-161 82q-100 0 -160 -80.5t-60 -207.5z" />
    <glyph glyph-name="R" unicode="R" horiz-adv-x="631" 
d="M285 613h-107v-269h100q72 0 124 29t52 106q0 80 -47 107t-122 27zM502 0l-157 283q-17 -2 -34.5 -3t-36.5 -1h-96v-279h-78v680h185q107 0 179 -45.5t72 -152.5q-1 -69 -34.5 -112.5t-86.5 -65.5l174 -304h-87z" />
    <glyph glyph-name="S" unicode="S" horiz-adv-x="538" 
d="M80 95q27 -13 72.5 -27t94.5 -14q79 0 121 30.5t42 79.5q0 108 -180 157t-180 203q0 72 58 122t159 50q51 0 96.5 -13t77.5 -29q-6 -16 -13 -31t-14 -31q-26 13 -59 24t-83 11q-63 0 -104 -26t-41 -75q0 -111 180.5 -161t180.5 -199q0 -78 -62.5 -128.5t-177.5 -50.5
q-43 0 -105.5 15t-81.5 31q4 15 9 30.5t10 31.5z" />
    <glyph glyph-name="T" unicode="T" horiz-adv-x="531" 
d="M521 617h-219v-617h-80v617h-213v63h503z" />
    <glyph glyph-name="U" unicode="U" horiz-adv-x="692" 
d="M169 250q0 -87 47.5 -141.5t128.5 -54.5q84 0 130 55t46 141v430h80v-439q0 -110 -68.5 -181t-187.5 -71q-118 0 -186.5 71t-68.5 181v439h79v-430z" />
    <glyph glyph-name="V" unicode="V" horiz-adv-x="601" 
d="M266 0l-260 667l77 13l221 -577l214 577h77l-252 -680h-77z" />
    <glyph glyph-name="W" unicode="W" horiz-adv-x="970" 
d="M670 0l-187 556l-176 -556h-79l-222 667l77 13l184 -570l181 570h75l187 -570l178 570h77l-217 -680h-78z" />
    <glyph glyph-name="X" unicode="X" horiz-adv-x="641" 
d="M17 2l253 342l-238 323l80 13l213 -290l215 290h85l-259 -347l245 -333h-86l-213 287q-12 -17 -109 -149t-109 -148z" />
    <glyph glyph-name="Y" unicode="Y" horiz-adv-x="561" 
d="M238 0l1 273l-233 394l82 13l190 -329l194 329h84l-237 -403l-1 -277h-80z" />
    <glyph glyph-name="Z" unicode="Z" horiz-adv-x="569" 
d="M530 0h-499l-9 62q107 139 214.5 278t214.5 277h-390q-2 16 -5.5 31.5t-5.5 31.5h481l8 -63q-107 -138 -215 -277t-215 -278h413z" />
    <glyph glyph-name="bracketleft" unicode="[" horiz-adv-x="271" 
d="M80 696h185l-11 -60h-99v-665h99l11 -59h-185v784z" />
    <glyph glyph-name="backslash" unicode="\" horiz-adv-x="394" 
d="M311 -4l-305 710l76 4l306 -710z" />
    <glyph glyph-name="bracketright" unicode="]" horiz-adv-x="271" 
d="M190 -88h-184q2 15 4.5 29.5t5.5 29.5h99v665h-99q-3 15 -5.5 30t-4.5 30h184v-784z" />
    <glyph glyph-name="asciicircum" unicode="^" horiz-adv-x="431" 
d="M93 143h-79l169 247h64l169 -247h-78l-122 179z" />
    <glyph glyph-name="underscore" unicode="_" horiz-adv-x="412" 
d="M396 0h-371l-9 63h371z" />
    <glyph glyph-name="grave" unicode="`" horiz-adv-x="178" 
d="M16 745h87l60 -156h-60z" />
    <glyph glyph-name="a" unicode="a" horiz-adv-x="504" 
d="M124 138q0 -31 21.5 -59t69.5 -28q42 0 77 21t60 50v111h-128q-49 0 -74.5 -28.5t-25.5 -66.5zM82 455q28 19 79 31t81 12q84 0 136.5 -45.5t52.5 -118.5v-334h-48l-21 49q-25 -23 -65 -42t-80 -19q-84 0 -125 42.5t-41 107.5q0 72 48.5 109.5t126.5 37.5h125
q0 60 -19 102t-87 42q-49 0 -81 -11t-59 -23q-5 15 -11 30z" />
    <glyph glyph-name="b" unicode="b" horiz-adv-x="552" 
d="M80 0v695l79 11v-256q29 22 64 35.5t67 13.5q107 0 159 -73t52 -183q0 -111 -52.5 -183t-158.5 -72q-36 0 -74 14.5t-70 39.5q-4 -10 -9 -21t-10 -21h-47zM159 105q28 -25 59.5 -38t59.5 -13q78 0 111 55t33 133q0 81 -32 135.5t-112 54.5q-28 0 -59.5 -13.5t-59.5 -38.5
v-275z" />
    <glyph glyph-name="c" unicode="c" horiz-adv-x="469" 
d="M275 431q-74 0 -109 -53.5t-36 -132.5q0 -82 33 -136.5t108 -54.5q49 0 74 10t53 24l24 -58q-31 -20 -75 -31.5t-75 -11.5q-110 0 -166.5 72t-56.5 185q1 111 59.5 182.5t168.5 71.5q29 0 73.5 -11.5t75.5 -32.5l-24 -57q-28 13 -53.5 23.5t-73.5 10.5z" />
    <glyph glyph-name="d" unicode="d" horiz-adv-x="554" 
d="M274 432q-79 0 -111.5 -55.5t-32.5 -133.5q0 -81 32 -134.5t112 -53.5q28 0 60 13.5t60 38.5v272q-28 25 -60 39t-60 14zM474 705v-705h-47l-21 44q-31 -25 -70.5 -41t-75.5 -16q-106 0 -158.5 72.5t-52.5 182.5q0 112 53.5 184.5t159.5 72.5q31 0 67 -13.5t65 -35.5v246
z" />
    <glyph glyph-name="e" unicode="e" horiz-adv-x="528" 
d="M483 230h-352q3 -77 41 -127.5t120 -50.5q49 0 79.5 10.5t58.5 23.5l25 -58q-31 -21 -81 -30.5t-80 -9.5q-121 0 -183 71.5t-62 184.5q1 110 59.5 182t166.5 72q113 0 160.5 -79.5t47.5 -188.5zM405 284q-8 65 -39 106t-94 41t-97.5 -41t-41.5 -106h272z" />
    <glyph glyph-name="f" unicode="f" horiz-adv-x="309" 
d="M91 552q0 69 36 109.5t99 40.5q21 0 42 -6t32 -12l-18 -63q-8 4 -21 7t-23 3q-37 0 -52.5 -23t-15.5 -60v-73h89l26 -61h-115v-414h-79v414h-73l-1 61h74v77z" />
    <glyph glyph-name="g" unicode="g" horiz-adv-x="554" 
d="M394 379q-28 25 -60.5 39t-60.5 14q-78 0 -110.5 -55.5t-32.5 -133.5q0 -81 31.5 -135t111.5 -54q28 0 60.5 14t60.5 39v272zM474 -39q0 -76 -52.5 -127t-156.5 -51q-30 0 -81 11.5t-82 33.5l24 57q30 -13 59.5 -25t77.5 -12q60 0 95.5 28.5t35.5 85.5v74
q-29 -22 -65.5 -35t-68.5 -13q-106 0 -158.5 71.5t-52.5 182.5t53.5 184t159.5 73q35 0 74 -16.5t70 -41.5q5 10 10 21.5t10 22.5h48v-524z" />
    <glyph glyph-name="h" unicode="h" horiz-adv-x="560" 
d="M159 421q31 33 77 55.5t88 22.5q84 0 123.5 -48.5t39.5 -121.5v-328h-79v317q0 49 -23.5 81t-74.5 33q-31 0 -75 -21t-76 -58v-353h-79v696l79 10v-285z" />
    <glyph glyph-name="i" unicode="i" horiz-adv-x="238" 
d="M119 581q-23 0 -38 15.5t-15 38.5q-1 22 14.5 37.5t38.5 15.5q22 0 38.5 -15.5t16.5 -37.5q0 -23 -16.5 -38.5t-38.5 -15.5zM80 0v485h80v-485h-80z" />
    <glyph glyph-name="j" unicode="j" horiz-adv-x="243" 
d="M123 581q-23 0 -38.5 15.5t-15.5 38.5q0 22 15.5 37.5t38.5 15.5q22 0 38 -15.5t16 -37.5q0 -23 -16 -38.5t-38 -15.5zM83 -30v515h80v-476q0 -96 -24 -143.5t-120 -77.5l-30 57q50 19 72 44.5t22 80.5z" />
    <glyph glyph-name="k" unicode="k" horiz-adv-x="493" 
d="M159 182v-182h-79v695l79 11v-430l220 222l48 -51l-148 -147q49 -75 100 -150t100 -150h-93q-40 62 -80 124.5t-80 124.5z" />
    <glyph glyph-name="l" unicode="l" horiz-adv-x="239" 
d="M80 0v695l79 11v-706h-79z" />
    <glyph glyph-name="m" unicode="m" horiz-adv-x="855" 
d="M451 420q31 33 78 56t90 23q84 0 124 -48.5t40 -121.5v-328h-80v317q0 49 -24 81t-74 33q-32 0 -68.5 -18t-68.5 -51q1 -9 1.5 -17.5t0.5 -16.5v-328h-80v317q0 49 -23.5 81t-72.5 33q-33 0 -69 -17.5t-68 -51.5v-363h-79v485h48l23 -55q32 30 75 49.5t83 19.5
q54 0 90.5 -21.5t53.5 -57.5z" />
    <glyph glyph-name="n" unicode="n" horiz-adv-x="559" 
d="M151 415q31 35 80 59.5t92 24.5q83 0 123 -48.5t40 -121.5v-328h-79v317q0 49 -24 81t-74 33q-31 0 -75.5 -21t-76.5 -58v-353h-79v485h48z" />
    <glyph glyph-name="o" unicode="o" horiz-adv-x="543" 
d="M264 -13q-107 1 -161 73t-54 185q1 110 59 181t166 72q110 0 164.5 -73t54.5 -186q-1 -111 -61 -181.5t-168 -70.5zM414 239q0 83 -31.5 137t-106.5 54q-74 0 -109.5 -51.5t-36.5 -132.5q0 -85 30 -138t105 -53t111.5 50t37.5 134z" />
    <glyph glyph-name="p" unicode="p" horiz-adv-x="552" 
d="M159 105q28 -25 59.5 -38t59.5 -13q78 0 111 55t33 133q0 81 -32 135.5t-112 54.5q-28 0 -59.5 -13.5t-59.5 -38.5v-275zM80 -219v704h47l18 -43q31 24 70.5 40.5t74.5 16.5q107 0 159 -73t52 -183q0 -111 -52.5 -183t-158.5 -72q-32 0 -67 12.5t-64 34.5v-243z" />
    <glyph glyph-name="q" unicode="q" horiz-adv-x="554" 
d="M474 485v-693l-80 -11v256q-29 -22 -65.5 -36t-68.5 -14q-106 0 -158.5 72.5t-52.5 182.5q0 112 53.5 184.5t159.5 72.5q35 0 74.5 -16.5t70.5 -41.5l20 44h47zM274 432q-79 0 -111.5 -55.5t-32.5 -133.5q0 -81 32 -134.5t112 -53.5q28 0 60 13.5t60 38.5v272
q-28 25 -60 39t-60 14z" />
    <glyph glyph-name="r" unicode="r" horiz-adv-x="330" 
d="M78 0v485h48l24 -68q27 23 69.5 45.5t81.5 22.5q4 -16 9 -31.5t10 -31.5q-43 0 -87 -23.5t-76 -55.5v-343h-79z" />
    <glyph glyph-name="s" unicode="s" horiz-adv-x="446" 
d="M354 397q-24 12 -55 23t-74 11q-44 0 -70.5 -18t-26.5 -49q0 -28 30.5 -47.5t78.5 -35.5q59 -21 110.5 -57t51.5 -96q0 -66 -49.5 -103.5t-144.5 -37.5q-31 0 -78 10.5t-77 30.5l24 60q28 -14 62.5 -24t69.5 -10q54 0 84 17t30 52q0 31 -33 54.5t-82 39.5
q-57 19 -107.5 52.5t-50.5 90.5q0 65 48.5 101.5t131.5 36.5q31 0 77 -11.5t74 -31.5z" />
    <glyph glyph-name="t" unicode="t" horiz-adv-x="325" 
d="M298 2q-11 -5 -31.5 -11t-42.5 -6q-62 0 -99.5 36t-37.5 105v291h-69l-1 60h70v123l80 23v-146h88l26 -60h-114v-280q0 -37 16 -60.5t53 -23.5q11 0 24 3.5t20 6.5z" />
    <glyph glyph-name="u" unicode="u" horiz-adv-x="542" 
d="M392 53q-32 -29 -74 -48t-81 -19q-85 0 -124.5 48.5t-39.5 122.5v328h79v-319q0 -49 24 -81t73 -32q28 0 66 16t70 45v371h79v-485h-49z" />
    <glyph glyph-name="v" unicode="v" horiz-adv-x="477" 
d="M202 0l-185 473l80 12l145 -378l139 378h79l-180 -485h-78z" />
    <glyph glyph-name="w" unicode="w" horiz-adv-x="753" 
d="M501 0l-126 369l-117 -369h-78l-163 473l80 12l123 -372l117 372h80l123 -372l117 372h80l-158 -485h-78z" />
    <glyph glyph-name="x" unicode="x" horiz-adv-x="497" 
d="M14 0l183 245l-168 228l82 12l141 -194l145 194h86l-186 -254l172 -231h-87l-140 185l-139 -185h-89z" />
    <glyph glyph-name="y" unicode="y" horiz-adv-x="477" 
d="M175 -79l29 82l-187 470l78 12l147 -375l139 375h79l-148 -397l-66 -188q-16 -46 -57.5 -77.5t-92.5 -42.5l-24 57q36 16 63 33t40 51z" />
    <glyph glyph-name="z" unicode="z" horiz-adv-x="466" 
d="M427 442l-288 -380h276l10 -62h-379l-11 40l284 381h-241l-18 64h363z" />
    <glyph glyph-name="braceleft" unicode="{" horiz-adv-x="276" 
d="M168 555q0 -25 18.5 -68t18.5 -71q0 -42 -13.5 -67.5t-43.5 -38.5q28 -14 42.5 -42t14.5 -67q0 -28 -18.5 -71.5t-18.5 -67.5q0 -17 16 -31.5t47 -14.5h25q1 -13 3 -28l4 -30h-27q-70 0 -103 29t-33 82q0 30 18 71.5t18 69.5q0 32 -22 52t-47 20h-36v51h36q25 0 45 22.5
t20 56.5q0 33 -15 73t-15 71q0 49 34.5 76t99.5 27h27l-4 -30t-3 -29h-25q-34 0 -48.5 -15.5t-14.5 -29.5z" />
    <glyph glyph-name="bar" unicode="|" horiz-adv-x="270" 
d="M175 705v-711l-79 6v711z" />
    <glyph glyph-name="braceright" unicode="}" horiz-adv-x="276" 
d="M107 64q0 27 -18.5 67.5t-18.5 69.5q0 41 13.5 66.5t44.5 38.5q-28 15 -43 43t-15 67q0 25 18.5 67t18.5 70q0 16 -15.5 31.5t-47.5 15.5h-24q-2 14 -3.5 29t-3.5 30h26q69 0 103 -29t34 -82q0 -30 -18.5 -70.5t-18.5 -71.5q0 -30 21.5 -51t47.5 -21h36v-50h-36
q-26 0 -46 -20.5t-20 -55.5q0 -31 15.5 -70.5t15.5 -72.5q0 -51 -34 -79t-100 -28h-26q2 15 3.5 30t3.5 28h24q31 0 47 15.5t16 32.5z" />
    <glyph glyph-name="asciitilde" unicode="~" horiz-adv-x="383" 
d="M364 304q0 -62 -30 -86.5t-72 -24.5q-40 0 -77.5 21.5t-62.5 21.5q-16 0 -27.5 -8.5t-13.5 -31.5h-63v7q0 57 31 80t71 23q45 0 77.5 -22t59.5 -22q15 0 28.5 8.5t14.5 33.5h64z" />
    <glyph glyph-name="dv_CandrabinduInverted" horiz-adv-x="0" 
d="M439 865l-59 -38q-29 57 -68 82.5t-84 25.5q-46 0 -86 -26.5t-67 -81.5q-15 9 -29.5 19t-28.5 19q35 70 89.5 102t121.5 32q66 0 120 -32t91 -102zM229 765q-25 0 -42 17t-17 42t17 42t42 17q24 0 41.5 -17t17.5 -42t-17.5 -42t-41.5 -17z" />
    <glyph glyph-name="uni00A0" unicode="&#xa0;" horiz-adv-x="236" 
 />
    <glyph glyph-name="exclamdown" unicode="&#xa1;" horiz-adv-x="229" 
d="M114 592q-22 0 -38.5 16.5t-16.5 38.5t16.5 38.5t38.5 16.5t38 -16.5t16 -38.5t-16 -38.5t-38 -16.5zM69 0l16 505q15 -7 29.5 -13.5t28.5 -13.5l16 -478h-90z" />
    <glyph glyph-name="cent" unicode="&#xa2;" horiz-adv-x="469" 
d="M312 606v-112q28 -4 60 -14.5t54 -25.5l-24 -57q-28 13 -53.5 23.5t-73.5 10.5q-74 0 -109 -53.5t-36 -132.5q0 -82 33 -136.5t108 -54.5q49 0 74 10t53 24l24 -58q-21 -15 -51 -25t-59 -14v-103l-67 5v96q-96 8 -146 79t-50 176q1 103 51.5 172t144.5 79v111h67z" />
    <glyph glyph-name="sterling" unicode="&#xa3;" horiz-adv-x="456" 
d="M205 530v-151h132q6 -14 13 -29.5t14 -29.5h-159v-102q0 -51 -5 -90.5t-26 -65.5h255q3 -16 5.5 -31t4.5 -31h-377q-1 16 -2 31t-2 31h4q34 1 48.5 24.5t14.5 59.5v174h-72q-1 14 -1 29.5v29.5h73v130q0 79 32 127t104 48q21 0 42 -6t32 -12l-18 -63q-7 4 -20.5 7.5
t-23.5 3.5q-37 0 -52.5 -23.5t-15.5 -60.5z" />
    <glyph glyph-name="currency" unicode="&#xa4;" horiz-adv-x="671" 
d="M489 42q-31 -26 -72 -40.5t-87 -14.5q-45 1 -83 15t-68 39l-105 -107l-46 55l102 104q-19 31 -30 69.5t-11 81.5q0 41 11.5 78t31.5 66l-104 106l46 55l107 -107q32 25 72 40t86 16q45 0 83.5 -15t69.5 -40l104 106l46 -55l-102 -104q21 -30 32 -68.5t11 -81.5
q-1 -42 -12.5 -78.5t-30.5 -67.5l102 -105l-46 -55zM503 240q-1 79 -45 133t-119 54q-72 -1 -120.5 -52.5t-49.5 -129.5q1 -80 45 -133.5t117 -53.5q72 0 121.5 51.5t50.5 130.5z" />
    <glyph glyph-name="yen" unicode="&#xa5;" horiz-adv-x="561" 
d="M238 0v75h-172l-8 60h181v113h-173l-8 62h160q-52 89 -106 178.5t-106 178.5q20 4 40.5 6.5t41.5 6.5l190 -329l194 329h84l-218 -370h153l9 -62h-181v-113h172l9 -60h-182v-75h-80z" />
    <glyph glyph-name="brokenbar" unicode="&#xa6;" horiz-adv-x="270" 
d="M175 705v-299l-79 6v299zM175 288v-294l-79 6v293z" />
    <glyph glyph-name="section" unicode="&#xa7;" horiz-adv-x="598" 
d="M424 184q22 14 33.5 34.5t11.5 44.5q0 80 -112 118t-187 101q-21 -13 -32 -33t-11 -45q0 -81 110 -119.5t187 -100.5zM80 -10q27 -13 72.5 -27.5t94.5 -14.5q79 0 121 31t42 80q0 107 -180 148t-180 194q0 43 20.5 78t55.5 58q-8 16 -12.5 34t-4.5 39q0 72 59 121t160 49
q49 0 94.5 -12.5t76.5 -28.5l-26 -62q-28 13 -61 24.5t-84 11.5q-65 0 -103.5 -27t-38.5 -75q0 -112 180 -154t180 -190q0 -44 -20 -79.5t-57 -59.5q9 -16 14 -33t5 -38q0 -75 -63.5 -125.5t-176.5 -50.5q-43 0 -105.5 15.5t-81.5 32.5q4 15 9 30.5t10 30.5z" />
    <glyph glyph-name="dieresis" unicode="&#xa8;" horiz-adv-x="295" 
d="M65 711q20 0 34 -14.5t14 -33.5q0 -21 -14 -35t-34 -14t-34.5 14t-14.5 35q0 19 14.5 33.5t34.5 14.5zM230 711q21 0 34.5 -14.5t13.5 -33.5q0 -21 -13.5 -35t-34.5 -14q-20 0 -34.5 14t-14.5 35q0 19 14.5 33.5t34.5 14.5z" />
    <glyph glyph-name="copyright" unicode="&#xa9;" horiz-adv-x="849" 
d="M791 336q0 -151 -99 -257t-268 -106t-268 106t-99 257q0 152 99 258t268 106t268 -106t99 -258zM122 337q0 -131 81 -219.5t221 -88.5t221.5 88.5t81.5 219.5t-81.5 219.5t-221.5 88.5t-221 -88.5t-81 -219.5zM441 506q-71 0 -105.5 -47t-34.5 -117q0 -81 32 -126
t105 -45q47 0 71.5 10t52.5 23l23 -56q-29 -22 -72.5 -32.5t-74.5 -10.5q-107 0 -162 66t-55 170q0 101 58.5 166.5t162.5 65.5q30 0 74 -10.5t73 -31.5l-24 -58q-27 13 -51.5 23t-72.5 10z" />
    <glyph glyph-name="ordfeminine" unicode="&#xaa;" horiz-adv-x="343" 
d="M102 466q0 -18 13 -32t38 -14t46.5 14t36.5 33v46h-68q-28 0 -47 -12.5t-19 -34.5zM57 673q19 13 52.5 21t53.5 8q63 0 101 -36.5t38 -85.5v-209h-44l-14 34q-15 -15 -39.5 -28.5t-52.5 -13.5q-52 0 -84 28.5t-32 72.5q0 46 35 72.5t86 26.5h78q0 27 -14.5 53t-56.5 26
q-31 0 -52.5 -7t-39.5 -14z" />
    <glyph glyph-name="guillemotleft" unicode="&#xab;" horiz-adv-x="363" 
d="M184 267l146 139l21 -52l-106 -109q26 -28 52.5 -55t53.5 -54l-21 -53l-146 139v45zM28 222v45q37 34 73 69.5t72 69.5q5 -13 10.5 -26t11.5 -26q-26 -28 -53 -55t-53 -54q26 -28 53 -55t53 -54l-22 -53q-36 34 -72 69.5t-73 69.5z" />
    <glyph glyph-name="logicalnot" unicode="&#xac;" horiz-adv-x="511" 
d="M490 356v-244l-71 5v226h-395l-8 63h466z" />
    <glyph glyph-name="softhyphen" unicode="&#xad;" horiz-adv-x="131" 
 />
    <glyph glyph-name="registered" unicode="&#xae;" horiz-adv-x="740" 
d="M693 487q0 -134 -87 -226.5t-236 -92.5t-236.5 92.5t-87.5 226.5t87.5 227.5t236.5 93.5t236 -93.5t87 -227.5zM106 488q0 -114 70 -190t194 -77q122 1 192.5 77t70.5 190q0 116 -70.5 191.5t-192.5 75.5q-124 0 -194 -75.5t-70 -191.5zM346 631h-33v-125h30q39 0 68 11
t29 51q0 44 -26.5 53.5t-67.5 9.5zM532 304h-69q-21 38 -42 77t-41 78q-7 0 -14.5 -0.5t-14.5 -0.5h-38v-154h-61v376h111q59 0 98.5 -25.5t39.5 -84.5q0 -38 -18.5 -62t-45.5 -36q23 -42 47.5 -84t47.5 -84z" />
    <glyph glyph-name="macron" unicode="&#xaf;" horiz-adv-x="277" 
d="M16 696h246v-63h-246v63z" />
    <glyph glyph-name="degree" unicode="&#xb0;" horiz-adv-x="246" 
d="M123 707q45 0 77.5 -30.5t32.5 -74.5q0 -46 -32.5 -75t-77.5 -29t-77.5 29t-32.5 75q0 44 32.5 74.5t77.5 30.5zM179 601q0 23 -16.5 39t-39.5 16q-24 0 -39.5 -16t-15.5 -38q0 -23 15.5 -40t39.5 -17q23 0 39.5 16.5t16.5 39.5z" />
    <glyph glyph-name="plusminus" unicode="&#xb1;" horiz-adv-x="469" 
d="M447 301h-178v-185l-70 5v180h-170l-8 58h178v175l70 -3v-172h170zM447 1h-418l-7 57h418z" />
    <glyph glyph-name="twosuperior" unicode="&#xb2;" horiz-adv-x="393" 
d="M179 771q82 0 116 -42t34 -85t-26.5 -81t-81.5 -85l-103 -87h217l8 -55h-312v53l151 130q44 40 60 69.5t16 55.5q0 25 -19.5 47t-63.5 22q-35 0 -65.5 -18.5t-31.5 -19.5l-27 54q6 4 41 23t87 19z" />
    <glyph glyph-name="threesuperior" unicode="&#xb3;" horiz-adv-x="412" 
d="M188 771q77 0 114.5 -37t37.5 -86q0 -40 -24 -69.5t-55 -40.5q37 -8 62.5 -40.5t25.5 -78.5q0 -60 -46.5 -100.5t-125.5 -40.5q-42 0 -81.5 13t-67.5 29l31 49q27 -16 52.5 -24.5t64.5 -8.5q42 0 72 21t30 61q0 44 -29 68t-98 24h-19l-8 56h32q57 0 85 22t28 59
q0 28 -21.5 47.5t-64.5 19.5q-40 0 -68.5 -12.5t-47.5 -25.5l-28 48q31 20 67 33.5t82 13.5z" />
    <glyph glyph-name="acute" unicode="&#xb4;" horiz-adv-x="178" 
d="M76 745h87l-88 -156h-59z" />
    <glyph glyph-name="mu" unicode="&#xb5;" horiz-adv-x="548" 
d="M399 53q-31 -29 -74.5 -48t-81.5 -19q-25 0 -46.5 5t-37.5 15v-214l-79 -11v704h79v-319q0 -49 24 -81t73 -32q28 0 65.5 16t68.5 45v371h80v-485h-48z" />
    <glyph glyph-name="paragraph" unicode="&#xb6;" horiz-adv-x="854" 
d="M345 0v257h-34q-107 0 -184 51.5t-78 162.5q0 113 72 161t179 48h521v-63h-97v-617h-80v617h-220v-617h-79z" />
    <glyph glyph-name="periodcentered" unicode="&#xb7;" horiz-adv-x="137" 
d="M69 315q22 0 37.5 -15t15.5 -38q0 -22 -15.5 -38t-37.5 -16q-23 0 -39 16t-16 38q0 23 16 38t39 15z" />
    <glyph glyph-name="cedilla" unicode="&#xb8;" horiz-adv-x="227" 
d="M94 13h63l-24 -61q33 -6 55.5 -30.5t22.5 -50.5q0 -47 -35 -69.5t-81 -22.5q-18 0 -41.5 6t-37.5 15l19 51q10 -5 27.5 -10.5t32.5 -5.5q19 0 35.5 8.5t16.5 25.5q0 19 -26 33t-63 18z" />
    <glyph glyph-name="onesuperior" unicode="&#xb9;" horiz-adv-x="338" 
d="M286 336h-216l-8 54h80v293q-12 -8 -24.5 -17t-25.5 -16l-29 48l104 66h46v-374h65q1 -13 3.5 -27t4.5 -27z" />
    <glyph glyph-name="ordmasculine" unicode="&#xba;" horiz-adv-x="391" 
d="M193 363q-71 0 -113.5 44.5t-42.5 124.5q0 78 44.5 124t113.5 46q72 0 115.5 -45.5t43.5 -124.5q0 -78 -46 -123.5t-115 -45.5zM280 531q0 57 -24.5 84t-60.5 27q-31 0 -58.5 -25.5t-27.5 -84.5q0 -56 25.5 -83t59.5 -27q32 0 59 25.5t27 83.5z" />
    <glyph glyph-name="guillemotright" unicode="&#xbb;" horiz-adv-x="363" 
d="M33 406l145 -139v-45l-145 -138l-23 52l106 109l-106 109zM189 406l145 -139v-45l-145 -138l-23 52l107 109l-107 109z" />
    <glyph glyph-name="onequarter" unicode="&#xbc;" horiz-adv-x="784" 
d="M286 336h-216l-8 54h80v293q-12 -8 -24.5 -17t-25.5 -16l-29 48l104 66h46v-374h65q1 -13 3.5 -27t4.5 -27zM255 -4l-77 4q72 125 144.5 250.5t144.5 250.5l77 -3q-72 -125 -144.5 -251t-144.5 -251zM746 -76h-75v-87h-68v87h-225l-4 39q-1 4 -1.5 9t-0.5 9l7 8
q60 82 122.5 165.5t122.5 166.5h47v-340h81zM445 -19h158v214z" />
    <glyph glyph-name="onehalf" unicode="&#xbd;" horiz-adv-x="822" 
d="M286 336h-216l-8 54h80v293q-12 -8 -24.5 -17t-25.5 -16l-29 48l104 66h46v-374h65q1 -13 3.5 -27t4.5 -27zM536 498l-290 -502l-75 4q72 125 144.5 250.5t144.5 250.5zM608 325q81 0 115.5 -42t34.5 -85q0 -60 -56 -116t-154 -137h216l8 -55h-311v53l150 131
q43 38 59.5 68t16.5 56q0 22 -18 46t-64 24q-35 0 -65.5 -18.5t-31.5 -19.5l-27 54q6 4 41 22.5t86 18.5z" />
    <glyph glyph-name="threequarters" unicode="&#xbe;" horiz-adv-x="834" 
d="M304 -4l-76 4q72 125 144.5 250.5t144.5 250.5l77 -3zM188 771q76 0 114 -37t38 -86q0 -40 -24 -70t-55 -40q37 -8 62.5 -40.5t25.5 -79.5q0 -59 -46.5 -99.5t-126.5 -40.5q-42 0 -81 13t-67 29l31 49q27 -16 52.5 -25t64.5 -9q42 0 72 21t30 61q0 45 -29.5 69t-98.5 24
h-18q-1 14 -4 28t-4 27h31q60 0 87 24.5t27 57.5q0 25 -21 45.5t-65 20.5q-40 0 -68.5 -12.5t-47.5 -25.5q-7 13 -14 25l-14 24q31 20 67 33.5t82 13.5zM797 -76h-75v-87h-69v87h-224q-3 13 -5.5 28t-2.5 29q2 2 4 4.5t4 3.5q61 82 123 165.5t122 166.5h48v-340h81zM496 -19
h157v214z" />
    <glyph glyph-name="questiondown" unicode="&#xbf;" horiz-adv-x="423" 
d="M252 523q-22 0 -38 16.5t-16 38.5t16 38t38 16q23 0 38.5 -16t15.5 -38t-15.5 -38.5t-38.5 -16.5zM224 -69q-99 0 -144.5 46.5t-45.5 119.5q0 57 48.5 114t128.5 94l10 178l57 -23l8 -196q-76 -25 -124.5 -68.5t-48.5 -96.5t29 -77t85 -24q49 0 87.5 16t80.5 46l10 -71
q-40 -26 -81.5 -42t-99.5 -16z" />
    <glyph glyph-name="Agrave" unicode="&#xc0;" horiz-adv-x="601" 
d="M204 895h87l61 -156h-60zM295 575l-119 -318h242zM334 680l261 -668l-79 -12l-75 193h-287l-71 -193h-77l251 680h77z" />
    <glyph glyph-name="Aacute" unicode="&#xc1;" horiz-adv-x="601" 
d="M298 895h87l-88 -156h-59zM295 575l-119 -318h242zM334 680l261 -668l-79 -12l-75 193h-287l-71 -193h-77l251 680h77z" />
    <glyph glyph-name="Acircumflex" unicode="&#xc2;" horiz-adv-x="601" 
d="M222 739h-76l117 156h63l117 -156h-76l-72 98zM295 575l-119 -318h242zM334 680l261 -668l-79 -12l-75 193h-287l-71 -193h-77l251 680h77z" />
    <glyph glyph-name="Atilde" unicode="&#xc3;" horiz-adv-x="601" 
d="M384 853h55q0 -56 -26.5 -77.5t-63.5 -21.5q-35 0 -60 22.5t-51 22.5q-13 0 -23.5 -10.5t-12.5 -29.5h-55q0 56 26 77t63 21q40 0 63 -22t50 -22q13 0 23 10t12 30zM295 575l-119 -319h241q-30 79 -61 159.5t-61 159.5zM257 680h76q66 -166 131 -334t130 -334
q-19 -3 -39 -6.5t-39 -5.5l-75 193h-287l-72 -193h-76q62 169 125.5 340t125.5 340z" />
    <glyph glyph-name="Adieresis" unicode="&#xc4;" horiz-adv-x="601" 
d="M213 861q20 0 34 -14.5t14 -33.5q0 -21 -14 -35t-34 -14t-34.5 14t-14.5 35q0 19 14.5 33.5t34.5 14.5zM378 861q21 0 34.5 -14.5t13.5 -33.5q0 -21 -13.5 -35t-34.5 -14q-20 0 -34.5 14t-14.5 35q0 19 14.5 33.5t34.5 14.5zM295 575l-119 -318h242zM334 680l261 -668
l-79 -12l-75 193h-287l-71 -193h-77l251 680h77z" />
    <glyph glyph-name="Aring" unicode="&#xc5;" horiz-adv-x="601" 
d="M295 917q37 0 65 -25.5t28 -62.5t-28 -61t-65 -24q-38 0 -66 24t-28 61t28 62.5t66 25.5zM295 788q17 0 30 12t13 29q0 18 -13 30.5t-30 12.5q-18 0 -30.5 -12.5t-12.5 -30.5q0 -17 12.5 -29t30.5 -12zM295 575l-119 -318h242zM334 680l261 -668l-79 -12l-75 193h-287
l-71 -193h-77l251 680h77z" />
    <glyph glyph-name="AE" unicode="&#xc6;" horiz-adv-x="878" 
d="M439 0v193h-239l-122 -193q-19 2 -37 5.5t-37 6.5q106 166 212.5 334t212.5 334h383l9 -60h-302v-243h195q2 -15 4.5 -30t5.5 -30h-205v-255h322q1 -16 3.5 -31t4.5 -31h-410zM241 256h198v315q-49 -78 -99 -157t-99 -158z" />
    <glyph glyph-name="Ccedilla" unicode="&#xc7;" horiz-adv-x="598" 
d="M514 597q-34 13 -64 21t-81 8q-100 -1 -158.5 -81t-58.5 -208q0 -116 49.5 -199.5t158.5 -83.5q51 0 86.5 9t63.5 22l30 -60q-26 -14 -67.5 -24t-80.5 -14l-14 -35q33 -6 55 -30.5t22 -50.5q0 -47 -35 -69.5t-80 -22.5q-19 0 -42 6t-37 15l18 51q10 -5 28 -10.5t33 -5.5
q19 0 35.5 8.5t16.5 25.5q0 19 -26 33t-64 18l26 68q-137 12 -198 113.5t-61 234.5q0 151 76.5 254.5t223.5 103.5q31 0 84.5 -9t85.5 -30z" />
    <glyph glyph-name="Egrave" unicode="&#xc8;" horiz-adv-x="538" 
d="M194 894h87l60 -155h-60zM99 0v680h372l4 -30t5 -30h-302v-243h196l4 -30t5 -30h-205v-255h322l9 -62h-410z" />
    <glyph glyph-name="Eacute" unicode="&#xc9;" horiz-adv-x="538" 
d="M287 894h88l-88 -155h-60zM99 0v680h372l4 -30t5 -30h-302v-243h196l4 -30t5 -30h-205v-255h322l9 -62h-410z" />
    <glyph glyph-name="Ecircumflex" unicode="&#xca;" horiz-adv-x="538" 
d="M211 739h-75l116 155h63l118 -155h-77q-18 24 -35.5 48.5t-36.5 49.5q-18 -25 -36 -49.5t-37 -48.5zM99 0v680h372l4 -30t5 -30h-302v-243h196l4 -30t5 -30h-205v-255h322l9 -62h-410z" />
    <glyph glyph-name="Edieresis" unicode="&#xcb;" horiz-adv-x="538" 
d="M367 861q21 0 35 -14.5t14 -33.5q0 -21 -14 -35t-35 -14q-19 0 -33.5 14t-14.5 35q0 19 14.5 33.5t33.5 14.5zM202 861q21 0 35 -14.5t14 -33.5q0 -21 -14 -35t-35 -14q-19 0 -34 14t-15 35q0 19 15 33.5t34 14.5zM99 0v680h372l4 -30t5 -30h-302v-243h196l4 -30t5 -30
h-205v-255h322l9 -62h-410z" />
    <glyph glyph-name="Igrave" unicode="&#xcc;" horiz-adv-x="278" 
d="M48 894h87l61 -155h-60zM99 0v680h79v-680h-79z" />
    <glyph glyph-name="Iacute" unicode="&#xcd;" horiz-adv-x="278" 
d="M142 894h87l-88 -155h-59zM99 0v680h79v-680h-79z" />
    <glyph glyph-name="Icircumflex" unicode="&#xce;" horiz-adv-x="278" 
d="M66 739h-75q28 39 57.5 77.5t58.5 77.5h62l118 -155h-76q-19 24 -36.5 48.5t-35.5 49.5zM99 0v680h79v-680h-79z" />
    <glyph glyph-name="Idieresis" unicode="&#xcf;" horiz-adv-x="278" 
d="M222 861q21 0 34.5 -14.5t13.5 -33.5q0 -21 -13.5 -35t-34.5 -14q-20 0 -34.5 14t-14.5 35q0 19 14.5 33.5t34.5 14.5zM56 861q21 0 35 -14.5t14 -33.5q0 -21 -14 -35t-35 -14q-19 0 -33.5 14t-14.5 35q0 19 14.5 33.5t33.5 14.5zM99 0v680h79v-680h-79z" />
    <glyph glyph-name="Eth" unicode="&#xd0;" horiz-adv-x="702" 
d="M105 0v304h-76q-3 16 -5 31.5t-4 31.5h85v313h230q157 0 227 -98t70 -238q0 -146 -78 -245t-227 -99h-222zM281 304h-96v-238h143q101 0 163 73t62 204q0 117 -52.5 193t-162.5 76h-153v-245h88z" />
    <glyph glyph-name="Ntilde" unicode="&#xd1;" horiz-adv-x="713" 
d="M457 853h55q0 -56 -26 -77.5t-64 -21.5q-34 0 -59.5 22.5t-50.5 22.5q-13 0 -24 -10.5t-12 -29.5h-56q0 56 26 77t63 21q41 0 64 -22t49 -22q13 0 23.5 10t11.5 30zM99 0v680h63l331 -460l41 -67v527h80v-680h-63l-347 489l-26 44v-533h-79z" />
    <glyph glyph-name="Ograve" unicode="&#xd2;" horiz-adv-x="737" 
d="M280 895h87l61 -156h-60zM69 337q0 151 77 253.5t225 105.5q157 0 227.5 -105.5t70.5 -245.5q0 -146 -77.5 -251.5t-225.5 -107.5q-157 0 -227 105.5t-70 245.5zM152 338q0 -118 51 -201t161 -83q101 0 160.5 79.5t59.5 210.5q0 118 -51 200t-161 82q-100 0 -160 -80.5
t-60 -207.5z" />
    <glyph glyph-name="Oacute" unicode="&#xd3;" horiz-adv-x="737" 
d="M374 895h87l-88 -156h-59zM69 337q0 151 77 253.5t225 105.5q157 0 227.5 -105.5t70.5 -245.5q0 -146 -77.5 -251.5t-225.5 -107.5q-157 0 -227 105.5t-70 245.5zM152 338q0 -118 51 -201t161 -83q101 0 160.5 79.5t59.5 210.5q0 118 -51 200t-161 82q-100 0 -160 -80.5
t-60 -207.5z" />
    <glyph glyph-name="Ocircumflex" unicode="&#xd4;" horiz-adv-x="737" 
d="M298 739h-76l117 156h62l118 -156h-76l-72 98zM69 337q0 151 77 253.5t225 105.5q157 0 227.5 -105.5t70.5 -245.5q0 -146 -77.5 -251.5t-225.5 -107.5q-157 0 -227 105.5t-70 245.5zM152 338q0 -118 51 -201t161 -83q101 0 160.5 79.5t59.5 210.5q0 118 -51 200t-161 82
q-100 0 -160 -80.5t-60 -207.5z" />
    <glyph glyph-name="Otilde" unicode="&#xd5;" horiz-adv-x="737" 
d="M460 853h54q0 -56 -26 -77.5t-63 -21.5q-35 0 -60 22.5t-51 22.5q-13 0 -24 -10.5t-12 -29.5h-55v7q0 51 27 71t62 20q40 0 63 -22t49 -22q13 0 23.5 10t12.5 30zM370 696q157 0 228 -105.5t71 -246.5q0 -145 -77.5 -250t-225.5 -108q-157 0 -227 105.5t-70 245.5
q0 151 77 253.5t224 105.5zM152 338q0 -118 51 -201t161 -83q101 0 160.5 79.5t59.5 210.5q0 117 -51 199.5t-161 82.5q-100 0 -160 -80.5t-60 -207.5z" />
    <glyph glyph-name="Odieresis" unicode="&#xd6;" horiz-adv-x="737" 
d="M288 861q21 0 35 -14.5t14 -33.5q0 -21 -14 -35t-35 -14q-19 0 -33.5 14t-14.5 35q0 19 14.5 33.5t33.5 14.5zM454 861q21 0 34.5 -14.5t13.5 -33.5q0 -21 -13.5 -35t-34.5 -14q-20 0 -34.5 14t-14.5 35q0 19 14.5 33.5t34.5 14.5zM69 337q0 151 77 253.5t225 105.5
q157 0 227.5 -105.5t70.5 -245.5q0 -146 -77.5 -251.5t-225.5 -107.5q-157 0 -227 105.5t-70 245.5zM152 338q0 -118 51 -201t161 -83q101 0 160.5 79.5t59.5 210.5q0 118 -51 200t-161 82q-100 0 -160 -80.5t-60 -207.5z" />
    <glyph glyph-name="multiply" unicode="&#xd7;" horiz-adv-x="489" 
d="M21 42l172 210l-165 205l74 12l140 -174q36 43 73 86.5t73 87.5h81q-46 -56 -93 -113t-93 -113l170 -213h-81l-138 170q-19 -22 -36.5 -43.5t-34.5 -42.5l-70 -85z" />
    <glyph glyph-name="Oslash" unicode="&#xd8;" horiz-adv-x="737" 
d="M69 337q0 151 77 253.5t225 105.5q157 0 227.5 -105.5t70.5 -245.5q0 -146 -77.5 -251.5t-225.5 -107.5q-157 0 -227 105.5t-70 245.5zM372 626q-100 0 -160 -80.5t-60 -207.5q0 -70 18.5 -130t55.5 -98l218 504q-16 6 -34.5 9t-37.5 3zM288 70q16 -7 35 -11.5t41 -4.5
q101 0 160.5 79.5t59.5 210.5q0 72 -19 132.5t-59 97.5z" />
    <glyph glyph-name="Ugrave" unicode="&#xd9;" horiz-adv-x="692" 
d="M257 894h87l61 -155h-60zM169 250q0 -87 47.5 -141.5t128.5 -54.5q84 0 130 55t46 141v430h80v-439q0 -110 -68.5 -181t-187.5 -71q-118 0 -186.5 71t-68.5 181v439h79v-430z" />
    <glyph glyph-name="Uacute" unicode="&#xda;" horiz-adv-x="692" 
d="M343 894h88l-88 -155h-60zM169 250q0 -87 47.5 -141.5t128.5 -54.5q84 0 130 55t46 141v430h80v-439q0 -110 -68.5 -181t-187.5 -71q-118 0 -186.5 71t-68.5 181v439h79v-430z" />
    <glyph glyph-name="Ucircumflex" unicode="&#xdb;" horiz-adv-x="692" 
d="M273 739h-76l117 155h63l117 -155h-76l-72 98zM169 250q0 -87 47.5 -141.5t128.5 -54.5q84 0 130 55t46 141v430h80v-439q0 -110 -68.5 -181t-187.5 -71q-118 0 -186.5 71t-68.5 181v439h79v-430z" />
    <glyph glyph-name="Udieresis" unicode="&#xdc;" horiz-adv-x="692" 
d="M428 861q21 0 35 -14.5t14 -33.5q0 -21 -14 -35t-35 -14q-19 0 -33.5 14t-14.5 35q0 19 14.5 33.5t33.5 14.5zM263 861q21 0 35 -14.5t14 -33.5q0 -21 -14 -35t-35 -14q-19 0 -34 14t-15 35q0 19 15 33.5t34 14.5zM169 250q0 -87 47.5 -141.5t128.5 -54.5q84 0 130 55
t46 141v430h80v-439q0 -110 -68.5 -181t-187.5 -71q-118 0 -186.5 71t-68.5 181v439h79v-430z" />
    <glyph glyph-name="Yacute" unicode="&#xdd;" horiz-adv-x="561" 
d="M278 895h87l-88 -156h-59zM238 0l1 273l-233 394l82 13l190 -329l194 329h84l-237 -403l-1 -277h-80z" />
    <glyph glyph-name="Thorn" unicode="&#xde;" horiz-adv-x="593" 
d="M99 0v680h79v-114h107q107 0 179 -47.5t72 -160.5q0 -112 -78.5 -163.5t-183.5 -51.5h-96v-143h-79zM285 500h-107v-291h99q75 0 125.5 34t51.5 112q0 82 -45.5 113.5t-123.5 31.5z" />
    <glyph glyph-name="germandbls" unicode="&#xdf;" horiz-adv-x="593" 
d="M80 473q0 101 60 156.5t159 55.5q84 0 145.5 -44.5t61.5 -136.5q0 -50 -22 -87.5t-62 -56.5q52 -19 87 -62t35 -108q0 -103 -72.5 -146.5t-179.5 -43.5h-62v66h61q72 0 122 27t50 96q0 68 -45 99.5t-117 31.5h-57v64h29q81 0 116.5 30t35.5 87q0 60 -37.5 88.5
t-88.5 28.5q-68 0 -104 -40.5t-36 -105.5v-472h-79v473z" />
    <glyph glyph-name="agrave" unicode="&#xe0;" horiz-adv-x="504" 
d="M152 744h88l60 -155h-60zM124 138q0 -31 21.5 -59t69.5 -28q42 0 77 21t60 50v111h-128q-49 0 -74.5 -28.5t-25.5 -66.5zM82 455q28 19 79 31t81 12q84 0 136.5 -45.5t52.5 -118.5v-334h-48l-21 49q-25 -23 -65 -42t-80 -19q-84 0 -125 42.5t-41 107.5q0 72 48.5 109.5
t126.5 37.5h125q0 60 -19 102t-87 42q-49 0 -81 -11t-59 -23q-5 15 -11 30z" />
    <glyph glyph-name="aacute" unicode="&#xe1;" horiz-adv-x="504" 
d="M247 744h86l-87 -155h-60zM124 138q0 -31 21.5 -59t69.5 -28q42 0 77 21t60 50v111h-128q-49 0 -74.5 -28.5t-25.5 -66.5zM82 455q28 19 79 31t81 12q84 0 136.5 -45.5t52.5 -118.5v-334h-48l-21 49q-25 -23 -65 -42t-80 -19q-84 0 -125 42.5t-41 107.5q0 72 48.5 109.5
t126.5 37.5h125q0 60 -19 102t-87 42q-49 0 -81 -11t-59 -23q-5 15 -11 30z" />
    <glyph glyph-name="acircumflex" unicode="&#xe2;" horiz-adv-x="504" 
d="M175 589h-76l118 155h61l118 -155h-75l-73 98zM124 138q0 -31 21.5 -59t69.5 -28q42 0 77 21t60 50v111h-128q-49 0 -74.5 -28.5t-25.5 -66.5zM82 455q28 19 79 31t81 12q84 0 136.5 -45.5t52.5 -118.5v-334h-48l-21 49q-25 -23 -65 -42t-80 -19q-84 0 -125 42.5
t-41 107.5q0 72 48.5 109.5t126.5 37.5h125q0 60 -19 102t-87 42q-49 0 -81 -11t-59 -23q-5 15 -11 30z" />
    <glyph glyph-name="atilde" unicode="&#xe3;" horiz-adv-x="504" 
d="M335 703h55q0 -56 -27 -77.5t-64 -21.5q-34 0 -59 22.5t-51 22.5q-13 0 -23.5 -10.5t-11.5 -29.5h-57q0 56 26.5 77t63.5 21q41 0 63.5 -22t48.5 -22q13 0 23.5 10t12.5 30zM124 138q0 -31 21.5 -59t69.5 -28q42 0 77 21t60 50v111h-128q-49 0 -74.5 -28.5t-25.5 -66.5z
M82 455q28 19 79 31t81 12q84 0 136.5 -45.5t52.5 -118.5v-334h-48l-21 49q-25 -23 -65 -42t-80 -19q-84 0 -125 42.5t-41 107.5q0 72 48.5 109.5t126.5 37.5h125q0 60 -19 102t-87 42q-49 0 -81 -11t-59 -23q-5 15 -11 30z" />
    <glyph glyph-name="adieresis" unicode="&#xe4;" horiz-adv-x="504" 
d="M330 711q20 0 34 -14.5t14 -33.5q0 -21 -14 -35t-34 -14t-34.5 14t-14.5 35q0 19 14.5 33.5t34.5 14.5zM165 711q20 0 34.5 -14.5t14.5 -33.5q0 -21 -14.5 -35t-34.5 -14q-21 0 -35.5 14t-14.5 35q0 19 14.5 33.5t35.5 14.5zM124 138q0 -31 21.5 -59t69.5 -28q42 0 77 21
t60 50v111h-128q-49 0 -74.5 -28.5t-25.5 -66.5zM82 455q28 19 79 31t81 12q84 0 136.5 -45.5t52.5 -118.5v-334h-48l-21 49q-25 -23 -65 -42t-80 -19q-84 0 -125 42.5t-41 107.5q0 72 48.5 109.5t126.5 37.5h125q0 60 -19 102t-87 42q-49 0 -81 -11t-59 -23q-5 15 -11 30z
" />
    <glyph glyph-name="aring" unicode="&#xe5;" horiz-adv-x="504" 
d="M247 767q37 0 65 -25.5t28 -62.5t-28 -61t-65 -24q-38 0 -66 24t-28 61t28 62.5t66 25.5zM247 637q17 0 30 12.5t13 29.5q0 18 -13 30.5t-30 12.5q-18 0 -30.5 -12.5t-12.5 -30.5q0 -17 12.5 -29.5t30.5 -12.5zM124 138q0 -31 21.5 -59t69.5 -28q42 0 77 21t60 50v111
h-128q-49 0 -74.5 -28.5t-25.5 -66.5zM82 455q28 19 79 31t81 12q84 0 136.5 -45.5t52.5 -118.5v-334h-48l-21 49q-25 -23 -65 -42t-80 -19q-84 0 -125 42.5t-41 107.5q0 72 48.5 109.5t126.5 37.5h125q0 60 -19 102t-87 42q-49 0 -81 -11t-59 -23q-5 15 -11 30z" />
    <glyph glyph-name="ae" unicode="&#xe6;" horiz-adv-x="829" 
d="M784 230h-352q3 -77 41.5 -127.5t120.5 -50.5q49 0 79.5 10.5t58.5 23.5q5 -14 11.5 -29t12.5 -29q-30 -21 -80.5 -30.5t-81.5 -9.5q-68 0 -118 24.5t-79 67.5q-24 -36 -72.5 -64t-104.5 -28q-87 0 -128 42t-41 107q0 72 48.5 109t126.5 37h126v37q0 48 -26.5 78.5
t-80.5 30.5q-49 0 -81 -11t-59 -23q-5 15 -11 30l-12 30q28 19 79 31t81 12q56 0 98 -22.5t64 -59.5q28 38 71.5 60t100.5 22q113 0 160.5 -78t47.5 -190zM705 284q-7 65 -37.5 106t-93.5 41t-97.5 -41t-43.5 -106h272zM124 137q0 -31 21.5 -58.5t69.5 -27.5q47 0 87 24.5
t65 62.5q-7 21 -11 44t-5 48h-127q-49 0 -74.5 -27.5t-25.5 -65.5z" />
    <glyph glyph-name="ccedilla" unicode="&#xe7;" horiz-adv-x="469" 
d="M275 431q-74 0 -109 -53.5t-36 -132.5q0 -82 33 -136.5t108 -54.5q49 0 74 10t53 24l24 -58q-24 -16 -57 -26t-63 -14l-14 -38q33 -6 55.5 -30.5t22.5 -50.5q0 -47 -35 -69.5t-80 -22.5q-19 0 -43 6t-38 15l20 51q10 -5 28 -10.5t33 -5.5q17 0 33.5 8.5t16.5 25.5
q0 19 -25.5 33t-62.5 18l26 70q-94 10 -142 79.5t-48 174.5q1 111 59.5 182.5t168.5 71.5q29 0 73.5 -11.5t75.5 -32.5l-24 -57q-28 13 -53.5 23.5t-73.5 10.5z" />
    <glyph glyph-name="egrave" unicode="&#xe8;" horiz-adv-x="528" 
d="M183 744h87l61 -155h-60zM483 230h-352q3 -77 41 -127.5t120 -50.5q49 0 79.5 10.5t58.5 23.5l25 -58q-31 -21 -81 -30.5t-80 -9.5q-121 0 -183 71.5t-62 184.5q1 110 59.5 182t166.5 72q113 0 160.5 -79.5t47.5 -188.5zM405 284q-8 65 -39 106t-94 41t-97.5 -41
t-41.5 -106h272z" />
    <glyph glyph-name="eacute" unicode="&#xe9;" horiz-adv-x="528" 
d="M277 744h87l-88 -155h-60zM483 230h-352q3 -77 41 -127.5t120 -50.5q49 0 79.5 10.5t58.5 23.5l25 -58q-31 -21 -81 -30.5t-80 -9.5q-121 0 -183 71.5t-62 184.5q1 110 59.5 182t166.5 72q113 0 160.5 -79.5t47.5 -188.5zM405 284q-8 65 -39 106t-94 41t-97.5 -41
t-41.5 -106h272z" />
    <glyph glyph-name="ecircumflex" unicode="&#xea;" horiz-adv-x="528" 
d="M203 589h-77l118 155h62l117 -155h-76q-17 24 -35.5 48.5t-35.5 49.5zM483 230h-352q3 -77 41 -127.5t120 -50.5q49 0 79.5 10.5t58.5 23.5l25 -58q-31 -21 -81 -30.5t-80 -9.5q-121 0 -183 71.5t-62 184.5q1 110 59.5 182t166.5 72q113 0 160.5 -79.5t47.5 -188.5z
M405 284q-8 65 -39 106t-94 41t-97.5 -41t-41.5 -106h272z" />
    <glyph glyph-name="edieresis" unicode="&#xeb;" horiz-adv-x="528" 
d="M357 711q20 0 34 -14.5t14 -33.5q0 -21 -14 -35t-34 -14q-21 0 -35.5 14t-14.5 35q0 19 14.5 33.5t35.5 14.5zM191 711q21 0 35.5 -14.5t14.5 -33.5q0 -21 -14.5 -35t-35.5 -14q-20 0 -34 14t-14 35q0 19 14 33.5t34 14.5zM483 230h-352q3 -77 41 -127.5t120 -50.5
q49 0 79.5 10.5t58.5 23.5l25 -58q-31 -21 -81 -30.5t-80 -9.5q-121 0 -183 71.5t-62 184.5q1 110 59.5 182t166.5 72q113 0 160.5 -79.5t47.5 -188.5zM405 284q-8 65 -39 106t-94 41t-97.5 -41t-41.5 -106h272z" />
    <glyph glyph-name="igrave" unicode="&#xec;" horiz-adv-x="238" 
d="M11 744h87l60 -155h-60zM79 0v485h80v-485h-80z" />
    <glyph glyph-name="iacute" unicode="&#xed;" horiz-adv-x="238" 
d="M140 744h87l-88 -155h-60zM79 0v485h80v-485h-80z" />
    <glyph glyph-name="icircumflex" unicode="&#xee;" horiz-adv-x="238" 
d="M46 589h-75q29 39 58 77.5t59 77.5h62l118 -155h-77l-71 98q-18 -25 -36.5 -49.5t-37.5 -48.5zM79 0v485h80v-485h-80z" />
    <glyph glyph-name="idieresis" unicode="&#xef;" horiz-adv-x="238" 
d="M202 711q20 0 34.5 -14.5t14.5 -33.5q0 -21 -14.5 -35t-34.5 -14t-35 14t-15 35q0 19 15 33.5t35 14.5zM36 711q20 0 35 -14.5t15 -33.5q0 -21 -15 -35t-35 -14t-34 14t-14 35q0 19 14 33.5t34 14.5zM79 0v485h80v-485h-80z" />
    <glyph glyph-name="eth" unicode="&#xf0;" horiz-adv-x="545" 
d="M397 651l-65 -56q65 -61 108.5 -147.5t43.5 -185.5q0 -134 -65 -204.5t-169 -70.5q-90 0 -146.5 63t-56.5 143q0 78 55 138.5t150 60.5q42 0 81 -18.5t66 -42.5q-12 64 -44.5 120t-76.5 98l-100 -85l-35 52l86 73q-30 22 -61.5 37t-62.5 21l34 51q37 -7 73.5 -23.5
t70.5 -41.5l79 69zM123 188q0 -52 35 -93.5t95 -41.5q75 0 112 52t41 137q-19 34 -59.5 61.5t-94.5 27.5q-60 0 -94.5 -43.5t-34.5 -99.5z" />
    <glyph glyph-name="ntilde" unicode="&#xf1;" horiz-adv-x="559" 
d="M402 703h55q0 -56 -26 -77.5t-64 -21.5q-35 0 -60 22.5t-51 22.5q-13 0 -23.5 -10.5t-11.5 -29.5h-57q0 56 26.5 77t63.5 21q41 0 64 -22t48 -22q12 0 23.5 9.5t12.5 30.5zM78 0v485h48q6 -17 12 -35t13 -35q31 35 79.5 59.5t91.5 24.5q84 0 124 -48.5t40 -122.5v-328
h-79v318q0 49 -24 81.5t-74 32.5q-31 0 -75.5 -21t-76.5 -58v-353h-79z" />
    <glyph glyph-name="ograve" unicode="&#xf2;" horiz-adv-x="543" 
d="M183 745h87l60 -156h-60zM264 -13q-107 1 -161 73t-54 185q1 110 59 181t166 72q110 0 164.5 -73t54.5 -186q-1 -111 -61 -181.5t-168 -70.5zM414 239q0 83 -31.5 137t-106.5 54q-74 0 -109.5 -51.5t-36.5 -132.5q0 -85 30 -138t105 -53t111.5 50t37.5 134z" />
    <glyph glyph-name="oacute" unicode="&#xf3;" horiz-adv-x="543" 
d="M276 745h87l-88 -156h-59zM264 -13q-107 1 -161 73t-54 185q1 110 59 181t166 72q110 0 164.5 -73t54.5 -186q-1 -111 -61 -181.5t-168 -70.5zM414 239q0 83 -31.5 137t-106.5 54q-74 0 -109.5 -51.5t-36.5 -132.5q0 -85 30 -138t105 -53t111.5 50t37.5 134z" />
    <glyph glyph-name="ocircumflex" unicode="&#xf4;" horiz-adv-x="543" 
d="M200 589h-76l118 156h61l118 -156h-76l-72 98zM264 -13q-107 1 -161 73t-54 185q1 110 59 181t166 72q110 0 164.5 -73t54.5 -186q-1 -111 -61 -181.5t-168 -70.5zM414 239q0 83 -31.5 137t-106.5 54q-74 0 -109.5 -51.5t-36.5 -132.5q0 -85 30 -138t105 -53t111.5 50
t37.5 134z" />
    <glyph glyph-name="otilde" unicode="&#xf5;" horiz-adv-x="543" 
d="M361 703h56q0 -56 -26.5 -77.5t-63.5 -21.5q-34 0 -59 22.5t-52 22.5q-13 0 -23.5 -10.5t-11.5 -29.5h-58q0 56 26.5 77t63.5 21q41 0 64 -22t49 -22q12 0 23 10t12 30zM264 -12q-107 0 -161 72.5t-54 183.5q1 110 59 181.5t165 72.5q110 0 165 -73t55 -186
q0 -111 -61 -181t-168 -70zM414 239q0 82 -31.5 136.5t-106.5 54.5q-74 0 -110 -51.5t-36 -133.5q0 -84 30 -137.5t105 -53.5q73 0 111 50.5t38 134.5z" />
    <glyph glyph-name="odieresis" unicode="&#xf6;" horiz-adv-x="543" 
d="M191 711q20 0 34 -14.5t14 -33.5q0 -21 -14 -35t-34 -14q-21 0 -35 14t-14 35q0 19 14 33.5t35 14.5zM356 711q21 0 35 -14.5t14 -33.5q0 -21 -14 -35t-35 -14q-20 0 -34.5 14t-14.5 35q0 19 14.5 33.5t34.5 14.5zM264 -13q-107 1 -161 73t-54 185q1 110 59 181t166 72
q110 0 164.5 -73t54.5 -186q-1 -111 -61 -181.5t-168 -70.5zM414 239q0 83 -31.5 137t-106.5 54q-74 0 -109.5 -51.5t-36.5 -132.5q0 -85 30 -138t105 -53t111.5 50t37.5 134z" />
    <glyph glyph-name="divide" unicode="&#xf7;" horiz-adv-x="480" 
d="M239 360q-27 0 -44.5 18t-17.5 43q0 26 17.5 43.5t44.5 17.5q25 0 43 -17.5t18 -43.5q0 -25 -18 -43t-43 -18zM460 242h-432l-8 63h432zM240 49q-25 0 -43 18.5t-18 43.5t18 43t43 18t43.5 -18t18.5 -43t-18.5 -43.5t-43.5 -18.5z" />
    <glyph glyph-name="oslash" unicode="&#xf8;" horiz-adv-x="543" 
d="M264 -13q-107 1 -161 73t-54 185q1 110 59 181t166 72q110 0 164.5 -73t54.5 -186q-1 -111 -61 -181.5t-168 -70.5zM330 418q-10 6 -24 9t-30 3q-74 0 -109.5 -51.5t-36.5 -132.5q0 -45 8 -81.5t27 -61.5zM265 55q75 0 111.5 50t37.5 134q0 39 -7.5 73t-21.5 58
l-162 -309q8 -4 19.5 -5t22.5 -1z" />
    <glyph glyph-name="ugrave" unicode="&#xf9;" horiz-adv-x="542" 
d="M174 745h86l61 -156h-60zM392 53q-32 -29 -74 -48t-81 -19q-85 0 -124.5 48.5t-39.5 122.5v328h79v-319q0 -49 24 -81t73 -32q28 0 66 16t70 45v371h79v-485h-49z" />
    <glyph glyph-name="uacute" unicode="&#xfa;" horiz-adv-x="542" 
d="M272 745h88l-89 -156h-58zM392 53q-32 -29 -74 -48t-81 -19q-85 0 -124.5 48.5t-39.5 122.5v328h79v-319q0 -49 24 -81t73 -32q28 0 66 16t70 45v371h79v-485h-49z" />
    <glyph glyph-name="ucircumflex" unicode="&#xfb;" horiz-adv-x="542" 
d="M197 589h-77l118 156h61l118 -156h-75l-73 98zM392 53q-32 -29 -74 -48t-81 -19q-85 0 -124.5 48.5t-39.5 122.5v328h79v-319q0 -49 24 -81t73 -32q28 0 66 16t70 45v371h79v-485h-49z" />
    <glyph glyph-name="udieresis" unicode="&#xfc;" horiz-adv-x="542" 
d="M188 711q20 0 34 -14.5t14 -33.5q0 -21 -14 -35t-34 -14q-21 0 -36 14t-15 35q0 19 15 33.5t36 14.5zM352 711q21 0 35 -14.5t14 -33.5q0 -21 -14 -35t-35 -14q-19 0 -34 14t-15 35q0 19 15 33.5t34 14.5zM392 53q-32 -29 -74 -48t-81 -19q-85 0 -124.5 48.5t-39.5 122.5
v328h79v-319q0 -49 24 -81t73 -32q28 0 66 16t70 45v371h79v-485h-49z" />
    <glyph glyph-name="yacute" unicode="&#xfd;" horiz-adv-x="477" 
d="M247 745h87l-88 -156h-60zM175 -79l29 82l-187 470l78 12l147 -375l139 375h79l-148 -397l-66 -188q-16 -46 -57.5 -77.5t-92.5 -42.5l-24 57q36 16 63 33t40 51z" />
    <glyph glyph-name="thorn" unicode="&#xfe;" horiz-adv-x="552" 
d="M159 105q28 -25 59.5 -38t59.5 -13q78 0 111 55t33 133q0 81 -32 135.5t-112 54.5q-28 0 -59.5 -13.5t-59.5 -38.5v-275zM80 -219v914l79 11v-256q29 22 64 35.5t67 13.5q107 0 159 -73t52 -183q0 -111 -52.5 -183t-158.5 -72q-32 0 -67 12.5t-64 34.5v-243z" />
    <glyph glyph-name="ydieresis" unicode="&#xff;" horiz-adv-x="477" 
d="M328 711q19 0 33 -14.5t14 -33.5q0 -21 -14 -35t-33 -14q-22 0 -36 14t-14 35q0 19 14 33.5t36 14.5zM161 711q21 0 35 -14.5t14 -33.5q0 -21 -14 -35t-35 -14q-20 0 -34 14t-14 35q0 19 14 33.5t34 14.5zM175 -79l29 82l-187 470l78 12l147 -375l139 375h79l-148 -397
l-66 -188q-16 -46 -57.5 -77.5t-92.5 -42.5l-24 57q36 16 63 33t40 51z" />
    <glyph glyph-name="Amacron" unicode="&#x100;" horiz-adv-x="601" 
d="M171 846h247v-63h-247v63zM295 575l-119 -318h242zM334 680l261 -668l-79 -12l-75 193h-287l-71 -193h-77l251 680h77z" />
    <glyph glyph-name="amacron" unicode="&#x101;" horiz-adv-x="504" 
d="M124 695h246v-62h-246v62zM124 138q0 -31 21.5 -59t69.5 -28q42 0 77 21t60 50v111h-128q-49 0 -74.5 -28.5t-25.5 -66.5zM82 455q28 19 79 31t81 12q84 0 136.5 -45.5t52.5 -118.5v-334h-48l-21 49q-25 -23 -65 -42t-80 -19q-84 0 -125 42.5t-41 107.5q0 72 48.5 109.5
t126.5 37.5h125q0 60 -19 102t-87 42q-49 0 -81 -11t-59 -23q-5 15 -11 30z" />
    <glyph glyph-name="Abreve" unicode="&#x102;" horiz-adv-x="601" 
d="M429 886q0 -53 -31.5 -95t-102.5 -43q-71 1 -102.5 43t-31.5 95h57q0 -27 18.5 -53t58.5 -26q38 0 57.5 26t19.5 53h57zM295 575l-119 -318h242zM334 680l261 -668l-79 -12l-75 193h-287l-71 -193h-77l251 680h77z" />
    <glyph glyph-name="abreve" unicode="&#x103;" horiz-adv-x="504" 
d="M380 736q0 -53 -32 -95t-102 -43q-71 1 -102.5 43t-31.5 95h57q0 -27 19 -53t58 -26q38 0 57 26t19 53h58zM124 138q0 -31 21.5 -59t69.5 -28q42 0 77 21t60 50v111h-128q-49 0 -74.5 -28.5t-25.5 -66.5zM82 455q28 19 79 31t81 12q84 0 136.5 -45.5t52.5 -118.5v-334
h-48l-21 49q-25 -23 -65 -42t-80 -19q-84 0 -125 42.5t-41 107.5q0 72 48.5 109.5t126.5 37.5h125q0 60 -19 102t-87 42q-49 0 -81 -11t-59 -23q-5 15 -11 30z" />
    <glyph glyph-name="Aogonek" unicode="&#x104;" horiz-adv-x="601" 
d="M257 680h76q66 -166 131 -334t130 -334q-20 -16 -41.5 -52.5t-21.5 -60.5q0 -25 14 -35.5t33 -10.5q13 0 26.5 5t24.5 15q7 -13 13.5 -24.5t12.5 -24.5q-16 -14 -37.5 -22.5t-47.5 -8.5q-47 0 -77 28.5t-30 72.5q0 28 14.5 59.5t36.5 49.5q-18 47 -36.5 94.5t-36.5 95.5
h-287l-72 -193h-76q62 169 125.5 340t125.5 340zM295 575l-119 -319h241q-30 79 -61 159.5t-61 159.5z" />
    <glyph glyph-name="aogonek" unicode="&#x105;" horiz-adv-x="504" 
d="M82 455q28 19 79 31t81 12q84 0 136.5 -45.5t52.5 -118.5v-334q-19 -16 -39.5 -45t-20.5 -56q0 -25 14 -35.5t33 -10.5q13 0 26.5 5t24.5 15l26 -49q-15 -14 -38 -22.5t-49 -8.5q-46 0 -76 28.5t-30 72.5q0 37 21.5 71.5t47.5 54.5l-9 29q-25 -23 -65 -42t-80 -19
q-84 0 -125 42.5t-41 107.5q0 72 48.5 109.5t126.5 37.5h125q0 60 -19 102t-87 42q-49 0 -81 -11t-59 -23q-5 15 -11 30zM124 138q0 -31 21.5 -59t69.5 -28q42 0 77 21t60 50v111h-128q-49 0 -74.5 -28.5t-25.5 -66.5z" />
    <glyph glyph-name="Cacute" unicode="&#x106;" horiz-adv-x="598" 
d="M372 895h88l-89 -156h-59zM514 597q-34 13 -64 21t-81 8q-100 -1 -158.5 -81t-58.5 -208q0 -116 49.5 -199.5t158.5 -83.5q51 0 86.5 9t63.5 22l30 -60q-31 -16 -82.5 -27.5t-93.5 -11.5q-157 0 -226 104.5t-69 245.5q0 151 76.5 254.5t223.5 103.5q31 0 84.5 -9
t85.5 -30z" />
    <glyph glyph-name="cacute" unicode="&#x107;" horiz-adv-x="469" 
d="M279 745h87l-88 -156h-60zM275 431q-74 0 -109 -53.5t-36 -132.5q0 -82 33 -136.5t108 -54.5q49 0 74 10t53 24l24 -58q-31 -20 -75 -31.5t-75 -11.5q-110 0 -166.5 72t-56.5 185q1 111 59.5 182.5t168.5 71.5q29 0 73.5 -11.5t75.5 -32.5l-24 -57q-28 13 -53.5 23.5
t-73.5 10.5z" />
    <glyph glyph-name="Ccaron" unicode="&#x10c;" horiz-adv-x="598" 
d="M219 895h76l73 -98l72 98h76l-118 -156h-62zM514 597q-34 13 -64 21t-81 8q-100 -1 -158.5 -81t-58.5 -208q0 -116 49.5 -199.5t158.5 -83.5q51 0 86.5 9t63.5 22l30 -60q-31 -16 -82.5 -27.5t-93.5 -11.5q-157 0 -226 104.5t-69 245.5q0 151 76.5 254.5t223.5 103.5
q31 0 84.5 -9t85.5 -30z" />
    <glyph glyph-name="ccaron" unicode="&#x10d;" horiz-adv-x="469" 
d="M126 745h75l73 -98l73 98h74l-117 -156h-61zM275 431q-74 0 -109 -53.5t-36 -132.5q0 -82 33 -136.5t108 -54.5q49 0 74 10t53 24l24 -58q-31 -20 -75 -31.5t-75 -11.5q-110 0 -166.5 72t-56.5 185q1 111 59.5 182.5t168.5 71.5q29 0 73.5 -11.5t75.5 -32.5l-24 -57
q-28 13 -53.5 23.5t-73.5 10.5z" />
    <glyph glyph-name="Dcaron" unicode="&#x10e;" horiz-adv-x="695" 
d="M158 894h76l73 -98l72 98h76l-117 -156h-63zM99 0v680h229q157 0 227 -98t70 -238q0 -146 -77.5 -245t-226.5 -99h-222zM331 612h-153v-546h144q101 0 163 73t62 204q0 117 -53 193t-163 76z" />
    <glyph glyph-name="dcaron" unicode="&#x10f;" horiz-adv-x="689" 
d="M628 712q22 0 38 -17.5t16 -46.5q0 -47 -29.5 -94.5t-72.5 -69.5l-21 37q25 18 41 36.5t20 46.5q-20 1 -33.5 17t-13.5 36q0 22 16 38.5t39 16.5zM274 432q-79 0 -111.5 -55.5t-32.5 -133.5q0 -81 32 -134.5t112 -53.5q28 0 60 13.5t60 38.5v272q-28 25 -60 39t-60 14z
M474 705v-705h-47l-21 44q-31 -25 -70.5 -41t-75.5 -16q-106 0 -158.5 72.5t-52.5 182.5q0 112 53.5 184.5t159.5 72.5q31 0 67 -13.5t65 -35.5v246z" />
    <glyph glyph-name="Dcroat" unicode="&#x110;" horiz-adv-x="702" 
d="M105 0v304h-76q-3 16 -5 31.5t-4 31.5h85v313h230q157 0 227 -98t70 -238q0 -146 -78 -245t-227 -99h-222zM281 304h-96v-238h143q101 0 163 73t62 204q0 117 -52.5 193t-162.5 76h-153v-245h88z" />
    <glyph glyph-name="dcroat" unicode="&#x111;" horiz-adv-x="554" 
d="M274 432q-79 0 -111.5 -55.5t-32.5 -133.5q0 -81 32 -134.5t112 -53.5q28 0 60 13.5t60 38.5v272q-28 25 -60 39t-60 14zM536 561h-62v-561h-47l-21 44q-31 -25 -70.5 -41t-75.5 -16q-106 0 -158.5 72.5t-52.5 182.5q0 112 53.5 184.5t159.5 72.5q31 0 67 -13.5t65 -35.5
v111h-110l-8 57h118v78l80 9v-87h54z" />
    <glyph glyph-name="Emacron" unicode="&#x112;" horiz-adv-x="538" 
d="M161 845h246v-62h-246v62zM99 0v680h372l4 -30t5 -30h-302v-243h196l4 -30t5 -30h-205v-255h322l9 -62h-410z" />
    <glyph glyph-name="emacron" unicode="&#x113;" horiz-adv-x="528" 
d="M150 695h246v-62h-246v62zM483 230h-352q3 -77 41 -127.5t120 -50.5q49 0 79.5 10.5t58.5 23.5l25 -58q-31 -21 -81 -30.5t-80 -9.5q-121 0 -183 71.5t-62 184.5q1 110 59.5 182t166.5 72q113 0 160.5 -79.5t47.5 -188.5zM405 284q-8 65 -39 106t-94 41t-97.5 -41
t-41.5 -106h272z" />
    <glyph glyph-name="Edotaccent" unicode="&#x116;" horiz-adv-x="538" 
d="M284 870q22 0 38 -16t16 -38q0 -23 -16 -38.5t-38 -15.5t-38 15.5t-16 38.5q0 22 16 38t38 16zM99 0v680h372l4 -30t5 -30h-302v-243h196l4 -30t5 -30h-205v-255h322l9 -62h-410z" />
    <glyph glyph-name="edotaccent" unicode="&#x117;" horiz-adv-x="528" 
d="M274 720q22 0 37.5 -16t15.5 -38q0 -23 -15.5 -38.5t-37.5 -15.5t-38.5 15.5t-16.5 38.5q0 22 16.5 38t38.5 16zM483 230h-352q3 -77 41 -127.5t120 -50.5q49 0 79.5 10.5t58.5 23.5l25 -58q-31 -21 -81 -30.5t-80 -9.5q-121 0 -183 71.5t-62 184.5q1 110 59.5 182
t166.5 72q113 0 160.5 -79.5t47.5 -188.5zM405 284q-8 65 -39 106t-94 41t-97.5 -41t-41.5 -106h272z" />
    <glyph glyph-name="Eogonek" unicode="&#x118;" horiz-adv-x="538" 
d="M99 0v680h372l4 -30t5 -30h-302v-243h196l4 -30t5 -30h-205v-255h322l9 -62h-62q-22 -17 -41 -47.5t-19 -53.5q0 -25 14 -35.5t33 -10.5q13 0 26 5t25 15q6 -13 13 -24.5t13 -24.5q-16 -14 -38 -22.5t-48 -8.5q-46 0 -76.5 28.5t-30.5 72.5q0 26 13.5 56.5t34.5 49.5
h-267z" />
    <glyph glyph-name="eogonek" unicode="&#x119;" horiz-adv-x="528" 
d="M483 230h-352q3 -77 41 -127.5t120 -50.5q49 0 79.5 10.5t58.5 23.5l25 -58q-13 -9 -30.5 -16t-36.5 -12q-22 -17 -41 -47.5t-19 -53.5q0 -25 14 -35.5t33 -10.5q13 0 26 5t24 15l27 -49q-16 -14 -38 -22.5t-48 -8.5q-46 0 -76.5 28.5t-30.5 72.5q0 22 10 48.5t27 46.5
q-122 0 -184.5 70t-62.5 185q1 110 59.5 182t166.5 72q113 0 160.5 -78.5t47.5 -189.5zM405 284q-8 65 -39 106t-94 41t-97.5 -41t-41.5 -106h272z" />
    <glyph glyph-name="Ecaron" unicode="&#x11a;" horiz-adv-x="538" 
d="M134 894h76q18 -24 36.5 -48t36.5 -49l72 97h76l-117 -155h-63zM99 0v680h372l4 -30t5 -30h-302v-243h196l4 -30t5 -30h-205v-255h322l9 -62h-410z" />
    <glyph glyph-name="ecaron" unicode="&#x11b;" horiz-adv-x="528" 
d="M125 744h76q18 -24 36.5 -48t36.5 -49q18 25 36 49t37 48h74l-117 -155h-62zM483 230h-352q3 -77 41 -127.5t120 -50.5q49 0 79.5 10.5t58.5 23.5l25 -58q-31 -21 -81 -30.5t-80 -9.5q-121 0 -183 71.5t-62 184.5q1 110 59.5 182t166.5 72q113 0 160.5 -79.5t47.5 -188.5
zM405 284q-8 65 -39 106t-94 41t-97.5 -41t-41.5 -106h272z" />
    <glyph glyph-name="Gbreve" unicode="&#x11e;" horiz-adv-x="657" 
d="M533 886q0 -53 -31.5 -95t-102.5 -43q-71 1 -102.5 43t-31.5 95h57q0 -27 18.5 -53t58.5 -26q38 0 57.5 26t19.5 53h57zM362 349h219v-300q0 -4 -0.5 -8t-0.5 -8l1 -1q-31 -19 -87 -32.5t-104 -13.5q-156 0 -238.5 100.5t-82.5 249.5q0 160 90.5 259t239.5 99
q31 0 85 -9.5t86 -29.5l-25 -58q-34 13 -63.5 21t-80.5 8q-103 0 -176 -75t-73 -214q0 -131 63.5 -207t173.5 -76q35 0 64 6.5t52 13.5v216h-150q1 15 3 30t4 29z" />
    <glyph glyph-name="gbreve" unicode="&#x11f;" horiz-adv-x="554" 
d="M401 736q0 -53 -31 -95t-102 -43q-71 1 -103 43t-32 95h58q0 -27 19 -53t58 -26t58 26t19 53h56zM394 379q-28 25 -60.5 39t-60.5 14q-78 0 -110.5 -55.5t-32.5 -133.5q0 -81 31.5 -135t111.5 -54q28 0 60.5 14t60.5 39v272zM474 -39q0 -76 -52.5 -127t-156.5 -51
q-30 0 -81 11.5t-82 33.5l24 57q30 -13 59.5 -25t77.5 -12q60 0 95.5 28.5t35.5 85.5v74q-29 -22 -65.5 -35t-68.5 -13q-106 0 -158.5 71.5t-52.5 182.5t53.5 184t159.5 73q35 0 74 -16.5t70 -41.5q5 10 10 21.5t10 22.5h48v-524z" />
    <glyph glyph-name="Gcedilla" unicode="&#x122;" horiz-adv-x="657" 
d="M362 349h219v-302q0 -4 -0.5 -7.5t-0.5 -6.5l1 -1q-28 -18 -78 -30.5t-94 -14.5l-14 -34q33 -7 55 -31t22 -50q0 -48 -35 -70.5t-80 -22.5q-19 0 -42 6t-38 16q5 12 10 24.5t9 25.5q10 -5 28.5 -10t32.5 -5q18 0 34.5 8.5t16.5 25.5q0 19 -25 33t-64 18q7 16 14 34t13 34
q-135 14 -206 111.5t-71 235.5q0 160 90.5 259t239.5 99q31 0 85 -9.5t86 -29.5l-25 -58q-34 13 -63.5 21t-80.5 8q-103 0 -176 -75t-73 -214q0 -131 63.5 -207t173.5 -76q35 0 64 6.5t52 13.5v216h-150q1 15 3 30t4 29z" />
    <glyph glyph-name="gcedilla" unicode="&#x123;" horiz-adv-x="554" 
d="M262 559q-22 0 -38 17.5t-16 47.5q0 47 29 90.5t68 64.5l22 -38q-22 -13 -37.5 -30.5t-19.5 -42.5q19 -1 33 -17.5t14 -35.5q0 -22 -16.5 -39t-38.5 -17zM394 379q-28 25 -60.5 39t-60.5 14q-78 0 -110.5 -55.5t-32.5 -133.5q0 -81 31.5 -135t111.5 -54q28 0 60.5 14
t60.5 39v272zM474 -39q0 -76 -52.5 -127t-156.5 -51q-30 0 -81 11.5t-82 33.5l24 57q30 -13 59.5 -25t77.5 -12q60 0 95.5 28.5t35.5 85.5v74q-29 -22 -65.5 -35t-68.5 -13q-106 0 -158.5 71.5t-52.5 182.5t53.5 184t159.5 73q35 0 74 -16.5t70 -41.5q5 10 10 21.5t10 22.5
h48v-524z" />
    <glyph glyph-name="Imacron" unicode="&#x12a;" horiz-adv-x="278" 
d="M15 845h246v-62h-246v62zM99 0v680h79v-680h-79z" />
    <glyph glyph-name="imacron" unicode="&#x12b;" horiz-adv-x="238" 
d="M-4 695h246v-62h-246v62zM79 0v485h80v-485h-80z" />
    <glyph glyph-name="Iogonek" unicode="&#x12e;" horiz-adv-x="278" 
d="M99 3v677h79v-680q-19 -15 -39.5 -46t-20.5 -55q0 -25 14 -35.5t33 -10.5q13 0 26.5 5t24.5 15q7 -13 13.5 -24.5t12.5 -24.5q-16 -14 -37.5 -22.5t-47.5 -8.5q-47 0 -77 28.5t-30 72.5q0 28 14.5 58.5t34.5 50.5z" />
    <glyph glyph-name="iogonek" unicode="&#x12f;" horiz-adv-x="238" 
d="M118 581q-23 0 -38 15.5t-15 38.5q0 22 15 37.5t38 15.5q22 0 38.5 -15.5t16.5 -37.5q0 -23 -16.5 -38.5t-38.5 -15.5zM159 485v-485h-2q-19 -16 -39.5 -45.5t-20.5 -55.5q0 -25 14 -35.5t34 -10.5q13 0 25.5 5t24.5 15q6 -13 12.5 -24.5t13.5 -24.5q-16 -14 -38.5 -22.5
t-49.5 -8.5q-45 0 -75.5 28.5t-30.5 72.5q0 4 2.5 11.5t5.5 11.5q0 24 13.5 47.5t30.5 39.5v481h80z" />
    <glyph glyph-name="Idotaccent" unicode="&#x130;" horiz-adv-x="278" 
d="M139 870q22 0 37.5 -16t15.5 -38q0 -23 -15.5 -38.5t-37.5 -15.5q-23 0 -39 15.5t-16 38.5q0 22 16 38t39 16zM99 0v680h79v-680h-79z" />
    <glyph glyph-name="dotlessi" unicode="&#x131;" horiz-adv-x="238" 
d="M79 0v485h80v-485h-80z" />
    <glyph glyph-name="Kcedilla" unicode="&#x136;" horiz-adv-x="611" 
d="M507 0l-258 331l-74 -85v-246h-79v680h79v-330q73 86 147 172.5t146 172.5q13 -12 27 -23.5t27 -23.5q-55 -65 -111 -129.5t-112 -128.5l304 -390h-96zM338 -21q22 0 37.5 -17t15.5 -46q0 -47 -29 -91.5t-69 -63.5l-20 37q20 13 36.5 31t19.5 43q-20 1 -33.5 17t-13.5 36
q0 22 17 38t39 16z" />
    <glyph glyph-name="kcedilla" unicode="&#x137;" horiz-adv-x="493" 
d="M159 182v-182h-79v695l79 11v-430l220 222l48 -51l-148 -147q49 -75 100 -150t100 -150h-93q-40 62 -80 124.5t-80 124.5zM259 -21q23 0 39.5 -17t16.5 -46q0 -47 -30 -91.5t-69 -63.5l-22 37q22 13 38 31t20 43q-19 1 -33 17t-14 36q0 22 16 38t38 16z" />
    <glyph glyph-name="Lacute" unicode="&#x139;" horiz-adv-x="516" 
d="M187 895h88l-89 -156h-59zM498 0h-398v680h78v-617h311z" />
    <glyph glyph-name="lacute" unicode="&#x13a;" horiz-adv-x="239" 
d="M146 831h88q-22 -30 -43.5 -60t-43.5 -59h-60q15 29 29.5 59t29.5 60zM80 0v673l79 12v-685h-79z" />
    <glyph glyph-name="Lcedilla" unicode="&#x13b;" horiz-adv-x="516" 
d="M498 0h-398v680h78v-617h311zM311 -21q23 0 39 -17t16 -46q0 -48 -29 -92t-69 -64l-21 38q21 13 36.5 30.5t19.5 42.5q-19 1 -32.5 17.5t-13.5 35.5q0 22 16 38.5t38 16.5z" />
    <glyph glyph-name="lcedilla" unicode="&#x13c;" horiz-adv-x="239" 
d="M80 0v695l79 11v-706h-79zM121 -21q22 0 37.5 -17t15.5 -46q0 -47 -28.5 -91.5t-68.5 -63.5l-21 37q22 13 37.5 31t18.5 43q-19 1 -32.5 17t-13.5 36q0 22 16 38t39 16z" />
    <glyph glyph-name="Lcaron" unicode="&#x13d;" horiz-adv-x="516" 
d="M357 712q22 0 38 -17.5t16 -46.5q0 -47 -29.5 -94.5t-72.5 -69.5l-20 37q23 18 39 36.5t19 46.5q-18 1 -31.5 17t-13.5 36q0 22 16 38.5t39 16.5zM498 0h-398v680h78v-617h311z" />
    <glyph glyph-name="lcaron" unicode="&#x13e;" horiz-adv-x="374" 
d="M311 712q23 0 39 -17.5t16 -46.5q0 -48 -29.5 -95t-72.5 -69l-20 37q24 18 40.5 36t18.5 46q-19 2 -32 18t-13 36q0 21 16 38t37 17zM80 0v695l79 11v-706h-79z" />
    <glyph glyph-name="Lslash" unicode="&#x141;" horiz-adv-x="521" 
d="M503 0h-399v250l-49 -42l-35 52l84 70v350h79v-284l103 86l35 -50l-138 -116v-253h311z" />
    <glyph glyph-name="lslash" unicode="&#x142;" horiz-adv-x="239" 
d="M268 452l-109 -93v-359h-79v293l-76 -64l-34 52l110 93v321l79 11v-267q19 16 37.5 32.5t37.5 32.5q9 -13 17.5 -26t16.5 -26z" />
    <glyph glyph-name="Nacute" unicode="&#x143;" horiz-adv-x="713" 
d="M371 894h88l-89 -155h-59zM99 0v680h63l331 -460l41 -67v527h80v-680h-63l-347 489l-26 44v-533h-79z" />
    <glyph glyph-name="nacute" unicode="&#x144;" horiz-adv-x="559" 
d="M312 745h88l-88 -156h-60zM151 415q31 35 80 59.5t92 24.5q83 0 123 -48.5t40 -121.5v-328h-79v317q0 49 -24 81t-74 33q-31 0 -75.5 -21t-76.5 -58v-353h-79v485h48z" />
    <glyph glyph-name="Ncedilla" unicode="&#x145;" horiz-adv-x="713" 
d="M99 0v680h63l331 -460l41 -67v527h80v-680h-63l-347 489l-26 44v-533h-79zM361 -20q23 0 38.5 -17.5t15.5 -45.5q0 -48 -29 -91.5t-69 -63.5l-21 37q21 13 37.5 30.5t19.5 42.5q-19 2 -32.5 18t-13.5 36q0 22 16 38t38 16z" />
    <glyph glyph-name="ncedilla" unicode="&#x146;" horiz-adv-x="559" 
d="M151 415q31 35 80 59.5t92 24.5q83 0 123 -48.5t40 -121.5v-328h-79v317q0 49 -24 81t-74 33q-31 0 -75.5 -21t-76.5 -58v-353h-79v485h48zM279 -21q22 0 38 -17t16 -46q0 -48 -29 -92t-69 -64l-20 38q21 13 36.5 30.5t19.5 42.5q-19 1 -33 17.5t-14 35.5q0 22 16 38.5
t39 16.5z" />
    <glyph glyph-name="Ncaron" unicode="&#x147;" horiz-adv-x="713" 
d="M218 894h76l73 -97q18 25 35.5 49t36.5 48h76l-118 -155h-62zM99 0v680h63l331 -460l41 -67v527h80v-680h-63l-347 489l-26 44v-533h-79z" />
    <glyph glyph-name="ncaron" unicode="&#x148;" horiz-adv-x="559" 
d="M163 745h76l74 -98l71 98h76l-118 -156h-61zM151 415q31 35 80 59.5t92 24.5q83 0 123 -48.5t40 -121.5v-328h-79v317q0 49 -24 81t-74 33q-31 0 -75.5 -21t-76.5 -58v-353h-79v485h48z" />
    <glyph glyph-name="Omacron" unicode="&#x14c;" horiz-adv-x="737" 
d="M247 846h246v-63h-246v63zM69 337q0 151 77 253.5t225 105.5q157 0 227.5 -105.5t70.5 -245.5q0 -146 -77.5 -251.5t-225.5 -107.5q-157 0 -227 105.5t-70 245.5zM152 338q0 -118 51 -201t161 -83q101 0 160.5 79.5t59.5 210.5q0 118 -51 200t-161 82q-100 0 -160 -80.5
t-60 -207.5z" />
    <glyph glyph-name="omacron" unicode="&#x14d;" horiz-adv-x="543" 
d="M149 696h246v-63h-246v63zM264 -13q-107 1 -161 73t-54 185q1 110 59 181t166 72q110 0 164.5 -73t54.5 -186q-1 -111 -61 -181.5t-168 -70.5zM414 239q0 83 -31.5 137t-106.5 54q-74 0 -109.5 -51.5t-36.5 -132.5q0 -85 30 -138t105 -53t111.5 50t37.5 134z" />
    <glyph glyph-name="Ohungarumlaut" unicode="&#x150;" horiz-adv-x="737" 
d="M455 895h84l-87 -156h-56zM316 895h83l-89 -156h-54zM69 337q0 151 77 253.5t225 105.5q157 0 227.5 -105.5t70.5 -245.5q0 -146 -77.5 -251.5t-225.5 -107.5q-157 0 -227 105.5t-70 245.5zM152 338q0 -118 51 -201t161 -83q101 0 160.5 79.5t59.5 210.5q0 118 -51 200
t-161 82q-100 0 -160 -80.5t-60 -207.5z" />
    <glyph glyph-name="ohungarumlaut" unicode="&#x151;" horiz-adv-x="543" 
d="M358 745h83l-88 -156h-55zM218 745h83l-88 -156h-55zM264 -13q-107 1 -161 73t-54 185q1 110 59 181t166 72q110 0 164.5 -73t54.5 -186q-1 -111 -61 -181.5t-168 -70.5zM414 239q0 83 -31.5 137t-106.5 54q-74 0 -109.5 -51.5t-36.5 -132.5q0 -85 30 -138t105 -53
t111.5 50t37.5 134z" />
    <glyph glyph-name="OE" unicode="&#x152;" horiz-adv-x="959" 
d="M521 598q-33 13 -61.5 20.5t-77.5 7.5q-101 -1 -165.5 -81t-64.5 -208q0 -116 56 -199.5t164 -83.5q51 0 86 9t63 22v513zM930 0h-409v11q-32 -11 -72 -18t-73 -7q-157 0 -232 104.5t-75 245.5q0 151 82.5 254.5t230.5 103.5q25 0 65 -6t74 -19v11h371l10 -59h-303v-244
h196l10 -60h-206v-254h323z" />
    <glyph glyph-name="oe" unicode="&#x153;" horiz-adv-x="837" 
d="M793 230h-353q3 -77 41.5 -127.5t119.5 -50.5q49 0 80 10.5t59 23.5q6 -14 12.5 -29t11.5 -29q-30 -21 -80 -30.5t-81 -9.5q-46 0 -83 10t-66 29q-30 -20 -72 -29.5t-73 -9.5q-119 0 -189.5 70.5t-70.5 182.5t70 184t190 72q29 0 70.5 -9.5t72.5 -29.5q26 19 59 29.5
t73 10.5q114 0 161.5 -79t47.5 -189zM130 245q0 -83 46 -138t131 -55q39 0 60.5 6.5t40.5 15.5q-25 33 -36.5 76t-11.5 94q0 50 11.5 92.5t35.5 73.5q-19 9 -41 16t-59 7q-84 0 -130.5 -54.5t-46.5 -133.5zM714 284q-7 65 -38 106t-95 41q-63 0 -97 -41t-42 -106h272z" />
    <glyph glyph-name="Racute" unicode="&#x154;" horiz-adv-x="631" 
d="M287 895h88l-89 -156h-59zM285 613h-107v-269h100q72 0 124 29t52 106q0 80 -47 107t-122 27zM502 0l-157 283q-17 -2 -34.5 -3t-36.5 -1h-96v-279h-78v680h185q107 0 179 -45.5t72 -152.5q-1 -69 -34.5 -112.5t-86.5 -65.5l174 -304h-87z" />
    <glyph glyph-name="racute" unicode="&#x155;" horiz-adv-x="330" 
d="M189 744h87l-87 -155h-60zM78 0v485h48l24 -68q27 23 69.5 45.5t81.5 22.5q4 -16 9 -31.5t10 -31.5q-43 0 -87 -23.5t-76 -55.5v-343h-79z" />
    <glyph glyph-name="Rcedilla" unicode="&#x156;" horiz-adv-x="631" 
d="M285 613h-107v-269h100q72 0 124 29t52 106q0 80 -47 107t-122 27zM502 0l-157 283q-17 -2 -34.5 -3t-36.5 -1h-96v-279h-78v680h185q107 0 179 -45.5t72 -152.5q-1 -69 -34.5 -112.5t-86.5 -65.5l174 -304h-87zM325 -21q23 0 39 -17t16 -46q0 -48 -29.5 -92t-69.5 -64
l-21 38q22 13 38 30.5t19 42.5q-19 1 -32.5 17.5t-13.5 35.5q0 22 15.5 38.5t38.5 16.5z" />
    <glyph glyph-name="rcedilla" unicode="&#x157;" horiz-adv-x="330" 
d="M78 0v485h48l24 -68q27 23 69.5 45.5t81.5 22.5q4 -16 9 -31.5t10 -31.5q-43 0 -87 -23.5t-76 -55.5v-343h-79zM120 -21q22 0 38 -17t16 -46q0 -47 -29 -91.5t-70 -63.5l-19 37q20 13 36 31t20 43q-19 1 -32.5 17t-13.5 36q0 22 15.5 38t38.5 16z" />
    <glyph glyph-name="Rcaron" unicode="&#x158;" horiz-adv-x="631" 
d="M135 895h76l73 -98l72 98h76l-118 -156h-62zM285 613h-107v-269h100q72 0 124 29t52 106q0 80 -47 107t-122 27zM502 0l-157 283q-17 -2 -34.5 -3t-36.5 -1h-96v-279h-78v680h185q107 0 179 -45.5t72 -152.5q-1 -69 -34.5 -112.5t-86.5 -65.5l174 -304h-87z" />
    <glyph glyph-name="rcaron" unicode="&#x159;" horiz-adv-x="330" 
d="M16 744h76q18 -24 36.5 -48t36.5 -49l72 97h76l-118 -155h-62zM78 0v485h48l24 -68q27 23 69.5 45.5t81.5 22.5q4 -16 9 -31.5t10 -31.5q-43 0 -87 -23.5t-76 -55.5v-343h-79z" />
    <glyph glyph-name="Sacute" unicode="&#x15a;" horiz-adv-x="538" 
d="M266 894h87l-88 -155h-59zM80 95q27 -13 72.5 -27t94.5 -14q79 0 121 30.5t42 79.5q0 108 -180 157t-180 203q0 72 58 122t159 50q51 0 96.5 -13t77.5 -29q-6 -16 -13 -31t-14 -31q-26 13 -59 24t-83 11q-63 0 -104 -26t-41 -75q0 -111 180.5 -161t180.5 -199
q0 -78 -62.5 -128.5t-177.5 -50.5q-43 0 -105.5 15t-81.5 31q4 15 9 30.5t10 31.5z" />
    <glyph glyph-name="sacute" unicode="&#x15b;" horiz-adv-x="446" 
d="M231 745h86l-87 -156h-59zM354 397q-24 12 -55 23t-74 11q-44 0 -70.5 -18t-26.5 -49q0 -28 30.5 -47.5t78.5 -35.5q59 -21 110.5 -57t51.5 -96q0 -66 -49.5 -103.5t-144.5 -37.5q-31 0 -78 10.5t-77 30.5l24 60q28 -14 62.5 -24t69.5 -10q54 0 84 17t30 52
q0 31 -33 54.5t-82 39.5q-57 19 -107.5 52.5t-50.5 90.5q0 65 48.5 101.5t131.5 36.5q31 0 77 -11.5t74 -31.5z" />
    <glyph glyph-name="Scedilla" unicode="&#x15e;" horiz-adv-x="538" 
d="M80 95q27 -13 72.5 -27t94.5 -14q79 0 121 30.5t42 79.5q0 108 -180 157t-180 203q0 72 58 122t159 50q51 0 96.5 -13t77.5 -29q-6 -16 -13 -31t-14 -31q-27 13 -60.5 24.5t-84.5 11.5q-65 0 -103.5 -27t-38.5 -75q0 -111 180.5 -161t180.5 -199q0 -73 -55 -122t-156 -55
q-3 -9 -6.5 -18t-7.5 -18q31 -7 54 -31t23 -50q0 -48 -35 -70.5t-80 -22.5q-19 0 -42 6t-38 16l19 50q10 -5 28.5 -10t32.5 -5q18 0 34 8.5t16 25.5q0 19 -25 33t-63 18q7 17 14 34.5t13 34.5q-43 4 -90.5 17t-62.5 26q4 15 9 30.5t10 31.5z" />
    <glyph glyph-name="scedilla" unicode="&#x15f;" horiz-adv-x="446" 
d="M354 397q-24 12 -55 23t-74 11q-44 0 -70.5 -18t-26.5 -49q0 -28 30.5 -47.5t78.5 -35.5q59 -21 110.5 -57t51.5 -96t-42 -97t-122 -43l-14 -36q31 -6 54 -30.5t23 -50.5q0 -47 -35 -69.5t-80 -22.5q-19 0 -43 6t-37 15l20 51q10 -5 27.5 -10.5t32.5 -5.5q18 0 34.5 8.5
t16.5 25.5q0 19 -25.5 33t-62.5 18l27 70q-31 4 -66 13t-57 25l24 60q28 -14 62.5 -24t69.5 -10q54 0 84 17t30 52q0 31 -33 54.5t-82 39.5q-57 19 -107.5 52.5t-50.5 90.5q0 65 48.5 101.5t131.5 36.5q31 0 77 -11.5t74 -31.5z" />
    <glyph glyph-name="Scaron" unicode="&#x160;" horiz-adv-x="538" 
d="M123 894h75q19 -24 37 -48t36 -49l72 97h77l-118 -155h-63zM80 95q27 -13 72.5 -27t94.5 -14q79 0 121 30.5t42 79.5q0 108 -180 157t-180 203q0 72 58 122t159 50q51 0 96.5 -13t77.5 -29q-6 -16 -13 -31t-14 -31q-26 13 -59 24t-83 11q-63 0 -104 -26t-41 -75
q0 -111 180.5 -161t180.5 -199q0 -78 -62.5 -128.5t-177.5 -50.5q-43 0 -105.5 15t-81.5 31q4 15 9 30.5t10 31.5z" />
    <glyph glyph-name="scaron" unicode="&#x161;" horiz-adv-x="446" 
d="M77 745h77l73 -98l73 98h74l-117 -156h-62zM354 397q-24 12 -55 23t-74 11q-44 0 -70.5 -18t-26.5 -49q0 -28 30.5 -47.5t78.5 -35.5q59 -21 110.5 -57t51.5 -96q0 -66 -49.5 -103.5t-144.5 -37.5q-31 0 -78 10.5t-77 30.5l24 60q28 -14 62.5 -24t69.5 -10q54 0 84 17
t30 52q0 31 -33 54.5t-82 39.5q-57 19 -107.5 52.5t-50.5 90.5q0 65 48.5 101.5t131.5 36.5q31 0 77 -11.5t74 -31.5z" />
    <glyph glyph-name="Tcedilla" unicode="&#x162;" horiz-adv-x="531" 
d="M521 617h-219v-617h-9l-20 -47q33 -7 55 -31t22 -50q0 -48 -34.5 -70.5t-79.5 -22.5q-19 0 -42.5 6t-37.5 16q5 12 10 24.5t9 25.5q10 -5 27.5 -10t33.5 -5q18 0 34.5 8.5t16.5 25.5q0 19 -25.5 33t-63.5 18l32 79h-8v617h-213v63h503z" />
    <glyph glyph-name="tcedilla" unicode="&#x163;" horiz-adv-x="325" 
d="M280 63l18 -61q-10 -4 -26.5 -9.5t-35.5 -6.5l-13 -34q33 -6 55.5 -30.5t22.5 -50.5q0 -47 -35 -69.5t-80 -22.5q-19 0 -42.5 6t-37.5 15l20 51q9 -5 26.5 -10.5t33.5 -5.5q17 0 33.5 8.5t16.5 25.5q0 19 -25 33t-63 18l28 71q-41 11 -65 45.5t-24 89.5v291h-69l-1 60h70
v123l80 23v-146h88l26 -60h-114v-280q0 -37 16 -60.5t53 -23.5q11 0 24 3.5t20 6.5z" />
    <glyph glyph-name="Tcaron" unicode="&#x164;" horiz-adv-x="531" 
d="M117 894h75q19 -24 37 -48t36 -49l72 97h77l-118 -155h-63zM521 617h-219v-617h-80v617h-213v63h503z" />
    <glyph glyph-name="tcaron" unicode="&#x165;" horiz-adv-x="459" 
d="M398 712q22 0 38 -17.5t16 -46.5q0 -47 -29 -94.5t-73 -69.5l-20 37q24 18 40.5 36.5t19.5 46.5q-19 1 -33 17t-14 36q0 22 16.5 38.5t38.5 16.5zM298 2q-11 -5 -31.5 -11t-42.5 -6q-62 0 -99.5 36t-37.5 105v291h-69l-1 60h70v123l80 23v-146h88l26 -60h-114v-280
q0 -37 16 -60.5t53 -23.5q11 0 24 3.5t20 6.5z" />
    <glyph glyph-name="Umacron" unicode="&#x16a;" horiz-adv-x="692" 
d="M222 845h247v-62h-247v62zM169 250q0 -87 47.5 -141.5t128.5 -54.5q84 0 130 55t46 141v430h80v-439q0 -110 -68.5 -181t-187.5 -71q-118 0 -186.5 71t-68.5 181v439h79v-430z" />
    <glyph glyph-name="umacron" unicode="&#x16b;" horiz-adv-x="542" 
d="M145 696h248v-63h-248v63zM392 53q-32 -29 -74 -48t-81 -19q-85 0 -124.5 48.5t-39.5 122.5v328h79v-319q0 -49 24 -81t73 -32q28 0 66 16t70 45v371h79v-485h-49z" />
    <glyph glyph-name="Uring" unicode="&#x16e;" horiz-adv-x="692" 
d="M345 917q37 0 65 -25.5t28 -62.5t-28 -61t-65 -24q-38 0 -66 24t-28 61t28 62.5t66 25.5zM345 787q17 0 30 12.5t13 29.5q0 18 -13 30.5t-30 12.5q-18 0 -30.5 -12.5t-12.5 -30.5q0 -17 12.5 -29.5t30.5 -12.5zM169 250q0 -87 47.5 -141.5t128.5 -54.5q84 0 130 55
t46 141v430h80v-439q0 -110 -68.5 -181t-187.5 -71q-118 0 -186.5 71t-68.5 181v439h79v-430z" />
    <glyph glyph-name="uring" unicode="&#x16f;" horiz-adv-x="542" 
d="M269 767q37 0 65.5 -25.5t28.5 -62.5t-28.5 -61t-65.5 -24q-38 0 -66 24t-28 61t28 62.5t66 25.5zM269 638q19 0 31 12t12 29q0 18 -12 30.5t-31 12.5q-17 0 -29.5 -12.5t-12.5 -30.5q0 -17 12.5 -29t29.5 -12zM392 53q-32 -29 -74 -48t-81 -19q-85 0 -124.5 48.5
t-39.5 122.5v328h79v-319q0 -49 24 -81t73 -32q28 0 66 16t70 45v371h79v-485h-49z" />
    <glyph glyph-name="Uhungarumlaut" unicode="&#x170;" horiz-adv-x="692" 
d="M427 894h84l-87 -155h-56zM288 894h83l-89 -155h-54zM169 250q0 -87 47.5 -141.5t128.5 -54.5q84 0 130 55t46 141v430h80v-439q0 -110 -68.5 -181t-187.5 -71q-118 0 -186.5 71t-68.5 181v439h79v-430z" />
    <glyph glyph-name="uhungarumlaut" unicode="&#x171;" horiz-adv-x="542" 
d="M354 745h83l-88 -156h-56zM215 745h82l-88 -156h-55zM392 53q-32 -29 -74 -48t-81 -19q-85 0 -124.5 48.5t-39.5 122.5v328h79v-319q0 -49 24 -81t73 -32q28 0 66 16t70 45v371h79v-485h-49z" />
    <glyph glyph-name="Uogonek" unicode="&#x172;" horiz-adv-x="692" 
d="M169 250q0 -87 47.5 -141.5t128.5 -54.5q84 0 130 55t46 141v430h80v-439q0 -90 -46.5 -155.5t-130.5 -86.5q-22 -18 -40 -48t-18 -52q0 -25 14 -35.5t33 -10.5q14 0 27 5t25 15q6 -13 12.5 -24.5t12.5 -24.5q-15 -14 -37 -22.5t-48 -8.5q-47 0 -77 28.5t-30 72.5
q0 23 10 49t26 46q-113 4 -178.5 74.5t-65.5 177.5v439h79v-430z" />
    <glyph glyph-name="uogonek" unicode="&#x173;" horiz-adv-x="542" 
d="M392 53q-32 -29 -74 -48t-81 -19q-85 0 -124.5 48.5t-39.5 122.5v328h79v-319q0 -49 24 -81t73 -32q28 0 66 16t70 45v371h79v-485q-20 -16 -40 -45t-20 -56q0 -25 14 -36t33 -11q13 0 25.5 5t23.5 15l28 -48q-16 -15 -38.5 -23t-48.5 -8q-46 0 -76.5 28t-30.5 72
q0 37 22.5 72t47.5 56z" />
    <glyph glyph-name="Ydieresis" unicode="&#x178;" horiz-adv-x="561" 
d="M197 861q21 0 35 -14.5t14 -33.5q0 -21 -14 -35t-35 -14q-19 0 -33.5 14t-14.5 35q0 19 14.5 33.5t33.5 14.5zM363 861q21 0 34.5 -14.5t13.5 -33.5q0 -21 -13.5 -35t-34.5 -14q-20 0 -34.5 14t-14.5 35q0 19 14.5 33.5t34.5 14.5zM238 0l1 273l-233 394l82 13l190 -329
l194 329h84l-237 -403l-1 -277h-80z" />
    <glyph glyph-name="Zacute" unicode="&#x179;" horiz-adv-x="569" 
d="M288 894h87l-88 -155h-59zM530 0h-499l-9 62q107 139 214.5 278t214.5 277h-390q-2 16 -5.5 31.5t-5.5 31.5h481l8 -63q-107 -138 -215 -277t-215 -278h413z" />
    <glyph glyph-name="zacute" unicode="&#x17a;" horiz-adv-x="466" 
d="M265 745h86l-87 -156h-60zM427 445l-288 -383h276l10 -62h-379l-11 40l284 384h-241l-18 64h363z" />
    <glyph glyph-name="Zdotaccent" unicode="&#x17b;" horiz-adv-x="569" 
d="M290 870q22 0 37.5 -16t15.5 -38q0 -23 -15.5 -38.5t-37.5 -15.5q-23 0 -39 15.5t-16 38.5q0 22 16 38t39 16zM530 0h-499l-9 62q107 139 214.5 278t214.5 277h-390q-2 16 -5.5 31.5t-5.5 31.5h481l8 -63q-107 -138 -215 -277t-215 -278h413z" />
    <glyph glyph-name="zdotaccent" unicode="&#x17c;" horiz-adv-x="466" 
d="M257 721q23 0 38.5 -16.5t15.5 -38.5q0 -23 -15.5 -38.5t-38.5 -15.5t-38.5 15.5t-15.5 38.5q0 22 15.5 38.5t38.5 16.5zM427 445l-288 -383h276l10 -62h-379l-11 40l284 384h-241l-18 64h363z" />
    <glyph glyph-name="Zcaron" unicode="&#x17d;" horiz-adv-x="569" 
d="M140 894h76l73 -97q18 25 35.5 49t36.5 48h76l-118 -155h-62zM530 0h-499l-9 62q107 139 214.5 278t214.5 277h-390q-2 16 -5.5 31.5t-5.5 31.5h481l8 -63q-107 -138 -215 -277t-215 -278h413z" />
    <glyph glyph-name="zcaron" unicode="&#x17e;" horiz-adv-x="466" 
d="M104 745h77l73 -98l72 98h76l-118 -156h-61zM427 445l-288 -383h276l10 -62h-379l-11 40l284 384h-241l-18 64h363z" />
    <glyph glyph-name="florin" unicode="&#x192;" horiz-adv-x="309" 
d="M170 69q0 -68 -36 -108.5t-99 -40.5q-21 0 -42.5 5.5t-31.5 11.5l17 63q8 -4 21 -7t23 -3q37 0 53 23t16 60v341h-73l-1 61h74v77q0 69 36 109.5t99 40.5q21 0 42 -6t32 -12l-18 -63q-8 4 -21 7t-23 3q-37 0 -52.5 -23t-15.5 -60v-73h89l26 -61h-115v-345z" />
    <glyph glyph-name="Scommaaccent" unicode="&#x218;" horiz-adv-x="538" 
d="M80 95q27 -13 72.5 -27t94.5 -14q79 0 121 30.5t42 79.5q0 108 -180 157t-180 203q0 72 58 122t159 50q51 0 96.5 -13t77.5 -29q-6 -16 -13 -31t-14 -31q-26 13 -59 24t-83 11q-63 0 -104 -26t-41 -75q0 -111 180.5 -161t180.5 -199q0 -78 -62.5 -128.5t-177.5 -50.5
q-43 0 -105.5 15t-81.5 31q4 15 9 30.5t10 31.5zM247 -21q22 0 38 -17t16 -46q0 -47 -28.5 -91.5t-68.5 -63.5l-21 37q21 13 37 31t19 43q-19 1 -32.5 17t-13.5 36q0 22 16 38t38 16z" />
    <glyph glyph-name="scommaaccent" unicode="&#x219;" horiz-adv-x="446" 
d="M354 397q-24 12 -55 23t-74 11q-44 0 -70.5 -18t-26.5 -49q0 -28 30.5 -47.5t78.5 -35.5q59 -21 110.5 -57t51.5 -96q0 -66 -49.5 -103.5t-144.5 -37.5q-31 0 -78 10.5t-77 30.5l24 60q28 -14 62.5 -24t69.5 -10q54 0 84 17t30 52q0 31 -33 54.5t-82 39.5
q-57 19 -107.5 52.5t-50.5 90.5q0 65 48.5 101.5t131.5 36.5q31 0 77 -11.5t74 -31.5zM219 -21q23 0 39 -17t16 -46q0 -48 -29 -92t-69 -64l-21 38q21 13 37 30.5t19 42.5q-19 1 -33 17.5t-14 35.5q0 22 16.5 38.5t38.5 16.5z" />
    <glyph glyph-name="uni021A" unicode="&#x21a;" horiz-adv-x="531" 
d="M521 617h-219v-617h-80v617h-213v63h503zM263 -21q22 0 38 -17t16 -46q0 -47 -29 -91.5t-69 -63.5q-5 9 -10.5 18.5t-11.5 18.5q22 13 38 31t20 43q-20 1 -34 17t-14 36q0 22 17 38t39 16z" />
    <glyph glyph-name="uni021B" unicode="&#x21b;" horiz-adv-x="325" 
d="M298 2q-11 -5 -31.5 -11t-42.5 -6q-62 0 -99.5 36t-37.5 105v291h-69l-1 60h70v123l80 23v-146h88l26 -60h-114v-280q0 -37 16 -60.5t53 -23.5q11 0 24 3.5t20 6.5zM207 -21q23 0 39 -17t16 -46q0 -48 -29 -92t-69 -64l-21 38q21 13 37 30.5t19 42.5q-19 1 -32.5 17.5
t-13.5 35.5q0 22 16 38.5t38 16.5z" />
    <glyph glyph-name="circumflex" unicode="&#x2c6;" horiz-adv-x="328" 
d="M92 589h-76l117 156h62l118 -156h-76l-72 98z" />
    <glyph glyph-name="caron" unicode="&#x2c7;" horiz-adv-x="328" 
d="M16 745h76l73 -98l72 98h76l-118 -156h-62z" />
    <glyph glyph-name="uni02C9" unicode="&#x2c9;" horiz-adv-x="277" 
d="M16 696h246v-63h-246v63z" />
    <glyph glyph-name="breve" unicode="&#x2d8;" horiz-adv-x="300" 
d="M284 736q0 -53 -31.5 -95t-102.5 -43q-71 1 -102.5 43t-31.5 95h57q0 -27 18.5 -53t58.5 -26q38 0 57.5 26t19.5 53h57z" />
    <glyph glyph-name="dotaccent" unicode="&#x2d9;" horiz-adv-x="140" 
d="M70 721q22 0 38 -16.5t16 -38.5q0 -23 -16 -38.5t-38 -15.5t-38 15.5t-16 38.5q0 22 16 38.5t38 16.5z" />
    <glyph glyph-name="ring" unicode="&#x2da;" horiz-adv-x="218" 
d="M109 767q38 0 65.5 -25.5t27.5 -62.5t-27.5 -61t-65.5 -24q-37 0 -65 24t-28 61t28 62.5t65 25.5zM109 638q18 0 30.5 12t12.5 29q0 18 -12.5 30.5t-30.5 12.5q-17 0 -30 -12.5t-13 -30.5q0 -17 13 -29t30 -12z" />
    <glyph glyph-name="ogonek" unicode="&#x2db;" horiz-adv-x="224" 
d="M68 4h82q-24 -16 -45 -48.5t-21 -56.5q0 -25 14 -36t33 -11q14 0 27 5t25 15l25 -48q-15 -15 -37 -23t-48 -8q-47 0 -77 28t-30 72q0 28 14.5 60t37.5 51z" />
    <glyph glyph-name="tilde" unicode="&#x2dc;" horiz-adv-x="325" 
d="M254 703h54q0 -56 -26 -77.5t-63 -21.5q-35 0 -60 22.5t-51 22.5q-13 0 -24 -10.5t-12 -29.5h-55v7q0 51 27 71t62 20q40 0 63 -22t49 -22q13 0 23.5 10t12.5 30z" />
    <glyph glyph-name="hungarumlaut" unicode="&#x2dd;" horiz-adv-x="314" 
d="M215 745h83l-87 -156h-55zM76 745h82l-88 -156h-54z" />
    <glyph glyph-name="pi" unicode="&#x3c0;" horiz-adv-x="615" 
d="M119 0v422h-98v63h574v-63h-99v-422h-80v422h-218v-422h-79z" />
    <glyph glyph-name="dv_Candrabindu" unicode="&#x901;" horiz-adv-x="0" 
d="M229 883q-25 0 -41.5 17t-16.5 41t16.5 41t41.5 17t42 -17t17 -41t-17 -41t-42 -17zM380 937l59 -36q-37 -71 -91 -103.5t-120 -32.5q-67 0 -121 32.5t-90 103.5l58 36q27 -54 67 -81t86 -27q45 0 84 26.5t68 81.5z" />
    <glyph glyph-name="dv_Anusvara" unicode="&#x902;" horiz-adv-x="0" 
d="M75 754q-24 0 -41 17t-17 41q0 25 17 42t41 17q25 0 42 -17t17 -42q0 -24 -17 -41t-42 -17z" />
    <glyph glyph-name="dv_Visarga" unicode="&#x903;" horiz-adv-x="157" 
d="M78 410q-25 0 -41.5 17t-16.5 41q0 25 16.5 42t41.5 17t42 -17t17 -42q0 -24 -17 -41t-42 -17zM78 64q-25 0 -41.5 17t-16.5 42q0 24 16.5 41t41.5 17t42 -17t17 -41q0 -25 -17 -42t-42 -17z" />
    <glyph glyph-name="dv_ShortA" unicode="&#x904;" horiz-adv-x="889" 
d="M500 183q0 -85 -61 -141.5t-175 -56.5q-60 0 -111.5 16.5t-85.5 39.5l15 72q38 -27 84.5 -42.5t97.5 -15.5q59 0 103.5 31.5t44.5 94.5q0 64 -39.5 101t-146.5 37h-71q-5 15 -10 30.5t-10 31.5h98q84 0 124 37.5t40 92.5q0 46 -29.5 79.5t-92.5 33.5q-51 0 -96.5 -18
t-88.5 -49q-2 18 -5 36.5t-6 36.5q37 28 89.5 46.5t111.5 18.5q110 0 158 -55t48 -127q0 -40 -22 -74.5t-56 -56.5h277v229h-112l-17 69h131v13q0 36 -22.5 59t-68.5 23h-31q-79 0 -127.5 39.5t-48.5 101.5v22q19 -4 39.5 -8t39.5 -8q0 -36 26.5 -55.5t67.5 -19.5h32
q77 0 127 -42.5t50 -102.5v-22h113l16 -69h-129v-627l-86 16v317h-263q37 -22 57.5 -56t20.5 -78z" />
    <glyph glyph-name="dv_A" unicode="&#x905;" horiz-adv-x="889" 
d="M500 183q0 -85 -61 -141.5t-175 -56.5q-60 0 -111.5 16.5t-85.5 39.5l15 72q38 -27 84.5 -42.5t97.5 -15.5q62 0 105 31.5t43 94.5q0 64 -39.5 101t-146.5 37h-71q-5 15 -10 30.5t-10 31.5h98q84 0 124 37.5t40 92.5q0 46 -29.5 79.5t-92.5 33.5q-51 0 -96.5 -18
t-88.5 -49q-2 18 -5 36.5t-6 36.5q37 28 89.5 46.5t111.5 18.5q110 0 158 -55t48 -127q0 -40 -22 -74.5t-56 -56.5h277v229h-112l-17 69h328l16 -69h-129v-627l-86 16v317h-263q37 -22 57.5 -56t20.5 -78z" />
    <glyph glyph-name="dv_Aa" unicode="&#x906;" horiz-adv-x="1179" 
d="M500 183q0 -85 -61 -141.5t-175 -56.5q-60 0 -111.5 16.5t-85.5 39.5l15 72q38 -27 84.5 -42.5t97.5 -15.5q62 0 105 31.5t43 94.5q0 64 -39.5 101t-146.5 37h-71q-5 15 -10 30.5t-10 31.5h98q84 0 124 37.5t40 92.5q0 46 -29.5 79.5t-92.5 33.5q-51 0 -96.5 -18
t-88.5 -49q-2 18 -5 36.5t-6 36.5q37 28 89.5 46.5t111.5 18.5q110 0 158 -55t48 -127q0 -40 -22 -74.5t-56 -56.5h277v229h-112l-17 69h619q4 -17 7.5 -34.5t7.5 -34.5h-128v-627l-87 16v611h-204v-627l-86 16v317h-263q37 -22 57.5 -56t20.5 -78z" />
    <glyph glyph-name="dv_I" unicode="&#x907;" horiz-adv-x="539" 
d="M195 63q19 -5 39.5 -7.5t40.5 -3.5q68 0 100.5 28t32.5 68q0 41 -28 68t-75 27h-94q-60 0 -110 38.5t-50 98.5q0 64 46 100.5t112 36.5h144v94h-351q-3 17 -6 34.5t-7 34.5h546l14 -69h-110v-166h-229q-31 0 -53 -19t-22 -46q0 -28 21.5 -47t55.5 -19h84q92 0 145.5 -42
t53.5 -125q0 -66 -57 -115t-161 -49q-13 0 -26 1.5t-26 2.5l37 -49l56 -68l-57 -41q-31 42 -63 83l-64 82q-29 13 -58 40.5t-29 64.5q0 19 13 30.5t33 11.5q36 0 64 -23t38 -55z" />
    <glyph glyph-name="dv_Ii" unicode="&#x908;" horiz-adv-x="538" 
d="M195 63q19 -5 39.5 -7.5t40.5 -3.5q65 1 100.5 25.5t35.5 70.5q0 40 -30 67.5t-76 27.5h-94q-60 0 -110 38.5t-50 98.5q0 64 46 100.5t112 36.5h144v94h-351q-3 17 -6 34.5t-7 34.5h351q-24 22 -41 61.5t-17 72.5q0 55 36 99.5t99 44.5q43 0 72.5 -13t43.5 -25l-32 -55
q-16 9 -32.5 17.5t-41.5 8.5q-32 0 -50 -27t-18 -57q0 -37 21.5 -72.5t43.5 -54.5h111l14 -69h-110v-166h-229q-33 0 -54 -19.5t-21 -45.5q0 -28 21.5 -47t55.5 -19h84q92 0 145.5 -42t53.5 -125q0 -65 -56.5 -114.5t-160.5 -49.5q-13 0 -26.5 1t-26.5 3l93 -117l-57 -41
q-31 41 -63 82.5t-64 82.5q-29 13 -57.5 40.5t-28.5 64.5q0 19 12.5 30.5t32.5 11.5q36 0 64 -23t38 -55z" />
    <glyph glyph-name="dv_U" unicode="&#x909;" horiz-adv-x="561" 
d="M497 183q0 -85 -61.5 -141.5t-174.5 -56.5q-60 0 -111.5 16.5t-86.5 39.5l16 72q39 -27 85 -42.5t97 -15.5q61 0 104 31.5t43 94.5t-40.5 100.5t-145.5 37.5h-71l-19 62h98q83 0 123 37.5t40 92.5q0 32 -15.5 59.5t-46.5 40.5h-328q-3 17 -6.5 34.5t-7.5 34.5h567l15 -69
h-123q16 -19 25.5 -45.5t9.5 -52.5q0 -45 -29 -94t-90 -68q73 -19 103 -69t30 -99z" />
    <glyph glyph-name="dv_Uu" unicode="&#x90a;" horiz-adv-x="859" 
d="M448 612q16 -19 25.5 -46t9.5 -52q0 -45 -29 -94.5t-90 -68.5q26 -7 46.5 -16.5t34.5 -23.5q25 26 70.5 51t106.5 25q101 0 158 -58.5t57 -146.5q0 -94 -64 -148t-148 -54l-15 71q60 0 98.5 37t38.5 96q0 58 -35.5 95t-89.5 37q-51 0 -84 -21t-53 -46q7 -16 9.5 -33.5
t2.5 -32.5q0 -85 -61.5 -142t-174.5 -57q-60 0 -111.5 17t-86.5 40l16 72q39 -27 85 -42t97 -16q61 -1 104 31.5t43 94.5q0 64 -39.5 101t-146.5 37h-71l-19 62h98q83 0 123.5 37.5t40.5 92.5q0 33 -16 60.5t-47 40.5h-327l-15 68h866l15 -68h-422z" />
    <glyph glyph-name="dv_VocalicR" unicode="&#x90b;" horiz-adv-x="900" 
d="M592 108q25 -8 40 -10t40 -2q32 0 59.5 25.5t27.5 82.5q0 40 -16.5 76t-47.5 76q-25 -37 -85.5 -61.5t-140.5 -24.5v-286l-87 16v231l-250 -138l-45 62l274 152q-59 67 -101.5 85t-81.5 18q-21 0 -48.5 -9t-53.5 -20l-33 70q25 13 66 22.5t59 9.5q46 0 101 -13.5
t113 -84.5v226h-379q-3 17 -6.5 34.5t-7.5 34.5h906l16 -69h-442v-272q81 0 124 25t59 50q-9 9 -17 25.5t-8 38.5q0 23 14.5 34t36.5 11q31 0 62 -18.5t31 -54.5q0 -12 -5 -24t-18 -25q47 -46 68.5 -106.5t21.5 -97.5q0 -73 -42.5 -122.5t-122.5 -49.5q-29 0 -52 3.5
t-48 12.5q4 16 9 33.5t10 33.5z" />
    <glyph glyph-name="dv_VocalicL" unicode="&#x90c;" horiz-adv-x="868" 
d="M611 0q0 -34 23 -55.5t63 -21.5q15 0 28.5 2.5t32.5 8.5l14 -66q-22 -6 -43 -9t-43 -3q-57 0 -104.5 38.5t-47.5 105.5q0 62 41 98.5t90 43.5v143q-2 57 -27.5 92.5t-74.5 35.5t-74.5 -39t-25.5 -101v-123l-83 18l-1 105q0 62 -26.5 99.5t-85.5 38.5q-45 0 -76 -32
t-31 -72q0 -71 28.5 -134t79.5 -169l-70 -24q-49 96 -84.5 173t-35.5 161q0 67 56 119t133 53q49 -1 88 -20t64 -53q24 35 61.5 54t83.5 19q29 0 55.5 -8.5t45.5 -24.5v159h-661l-15 68h875l15 -68h-127v-535h-55q-40 0 -63 -21.5t-23 -55.5z" />
    <glyph glyph-name="dv_CandraE" unicode="&#x90d;" horiz-adv-x="691" 
d="M507 937l59 -36q-37 -71 -91 -103t-120 -32q-67 0 -121 32.5t-89 102.5l57 36q27 -54 67 -80.5t86 -26.5q45 0 84 26t68 81zM493 270v342h-286v-466q0 -28 10.5 -56.5t38.5 -47.5l260 -162l-44 -64l-253 150q-47 27 -72.5 67.5t-25.5 106.5v472h-117l-15 68h699l14 -68
h-122v-364q0 -69 -37.5 -109t-120.5 -67l-35 65q57 20 81.5 46.5t24.5 86.5z" />
    <glyph glyph-name="dv_ShortE" unicode="&#x90e;" horiz-adv-x="691" 
d="M284 847h115q77 0 127 -42.5t50 -102.5v-22h111l15 -69h-122v-364q0 -69 -37.5 -109t-120.5 -66q-9 16 -18 32.5t-17 32.5q56 20 81 46.5t25 86.5v341h-286v-465q0 -28 10.5 -57.5t38.5 -46.5l260 -161l-44 -65l-241 143q-53 31 -81.5 70.5t-28.5 110.5v471h-118
q-3 17 -6.5 34.5t-7.5 34.5h503v13q0 34 -23.5 58t-67.5 24h-114q-79 0 -127.5 39.5t-48.5 101.5v22q19 -4 39.5 -8t39.5 -8q0 -36 26.5 -55.5t67.5 -19.5z" />
    <glyph glyph-name="dv_E" unicode="&#x90f;" horiz-adv-x="691" 
d="M493 270v342h-286v-466q0 -28 10.5 -56.5t38.5 -47.5l260 -162l-44 -64l-253 150q-47 27 -72.5 67.5t-25.5 106.5v472h-117l-15 68h699l14 -68h-122v-364q0 -69 -37.5 -109t-120.5 -67l-35 65q57 20 81.5 46.5t24.5 86.5z" />
    <glyph glyph-name="dv_Ai" unicode="&#x910;" horiz-adv-x="691" 
d="M493 270v342h-286v-466q0 -28 10.5 -56.5t38.5 -47.5l260 -162l-44 -64l-253 150q-47 27 -72.5 67.5t-25.5 106.5v472h-117l-15 68h473l-238 219l68 48l269 -267h127l14 -68h-122v-364q0 -69 -37.5 -109t-120.5 -67l-35 65q57 20 81.5 46.5t24.5 86.5z" />
    <glyph glyph-name="dv_CandraO" unicode="&#x911;" horiz-adv-x="1179" 
d="M1027 937l59 -36q-37 -71 -90.5 -103t-119.5 -32q-68 0 -122 32t-90 103l58 36q28 -54 68 -80.5t86 -26.5q41 0 81.5 25.5t69.5 81.5zM500 183q0 -85 -61 -141.5t-175 -56.5q-60 0 -111.5 16.5t-85.5 39.5l15 72q38 -27 84.5 -42.5t97.5 -15.5q62 0 105 31.5t43 94.5
q0 64 -39.5 101t-146.5 37h-71q-5 15 -10 30.5t-10 31.5h98q84 0 124 37.5t40 92.5q0 46 -29.5 79.5t-92.5 33.5q-51 0 -96.5 -18t-88.5 -49q-2 18 -5 36.5t-6 36.5q37 28 89.5 46.5t111.5 18.5q110 0 158 -55t48 -127q0 -40 -22 -74.5t-56 -56.5h277v229h-112l-17 69h619
q4 -17 7.5 -34.5t7.5 -34.5h-128v-627l-87 16v611h-204v-627l-86 16v317h-263q37 -22 57.5 -56t20.5 -78z" />
    <glyph glyph-name="dv_ShortO" unicode="&#x912;" horiz-adv-x="1179" 
d="M803 847h81q76 0 126 -42.5t50 -102.5v-22h115q4 -17 7.5 -34.5t7.5 -34.5h-128v-627l-87 16v611h-204v-627l-86 16v317h-263q37 -22 57.5 -58.5t20.5 -80.5q0 -84 -61 -138.5t-175 -54.5q-60 0 -111.5 16.5t-85.5 39.5l15 72q38 -27 84.5 -42.5t97.5 -15.5q62 0 105 30
t43 92q0 64 -39.5 103t-146.5 39h-71q-5 15 -10 30.5t-10 31.5h98q84 0 124 35.5t40 91.5q0 45 -29.5 80.5t-92.5 35.5q-51 0 -96.5 -18t-88.5 -49q-2 18 -5 36.5t-6 36.5q37 28 89.5 46.5t111.5 18.5q110 0 158 -57t48 -128q0 -40 -22 -73t-56 -55h277v229h-112l-17 69h420
v13q0 36 -22.5 59t-68.5 23h-79q-79 0 -128 39.5t-49 101.5v22q19 -4 39.5 -8t40.5 -8q0 -36 26.5 -55.5t67.5 -19.5z" />
    <glyph glyph-name="dv_O" unicode="&#x913;" horiz-adv-x="1179" 
d="M556 680h391q-60 54 -119.5 109t-118.5 110q17 11 34 23.5t34 24.5l270 -267h128q4 -17 7.5 -34.5t7.5 -34.5h-128v-627l-87 16v611h-204v-627l-86 16v317h-263q37 -22 57.5 -56t20.5 -78q0 -85 -61 -141.5t-175 -56.5q-60 0 -111.5 16.5t-85.5 39.5l15 72
q38 -27 84.5 -42.5t97.5 -15.5q62 0 105 31.5t43 94.5q0 64 -39.5 101t-146.5 37h-71q-5 15 -10 30.5t-10 31.5h98q87 0 124 39t37 96q0 44 -29.5 76t-89.5 32q-51 0 -96.5 -18t-88.5 -49q-2 18 -5 36.5t-6 36.5q37 28 89.5 46.5t111.5 18.5q106 0 155 -54t49 -123
q0 -41 -20 -77t-56 -59h277v229h-112z" />
    <glyph glyph-name="dv_Au" unicode="&#x914;" horiz-adv-x="1179" 
d="M1050 680h125q4 -17 7.5 -34.5t7.5 -34.5h-128v-627l-87 16v611h-204v-627l-86 16v317h-263q37 -22 57.5 -56t20.5 -78q0 -85 -61 -141.5t-175 -56.5q-60 0 -111.5 16.5t-85.5 39.5l15 72q38 -27 84.5 -42.5t97.5 -15.5q62 0 105 31.5t43 94.5q0 64 -39.5 101t-146.5 37
h-71q-5 15 -10 30.5t-10 31.5h98q84 0 124 37.5t40 92.5q0 46 -29.5 79.5t-92.5 33.5q-51 0 -96.5 -18t-88.5 -49q-2 18 -5 36.5t-6 36.5q37 28 89.5 46.5t111.5 18.5q110 0 158 -55t48 -127q0 -40 -22 -74.5t-56 -56.5h277v229h-112l-17 69h414l-41 42q-43 45 -76.5 56
t-74.5 10h-89l-17 75h102q49 0 91 -12t89 -66q-16 51 -33.5 102.5t-34.5 102.5l82 27q21 -84 41.5 -168.5t40.5 -168.5z" />
    <glyph glyph-name="dv_Ka" unicode="&#x915;" horiz-adv-x="908" 
d="M275 91q-94 0 -159 57t-65 150q0 88 61.5 148.5t162.5 60.5q44 0 80 -17.5t58 -39.5v162h-409l-15 68h916l14 -68h-419v-166q21 22 57.5 41.5t84.5 19.5q101 0 162 -60.5t61 -148.5q0 -96 -66 -151.5t-150 -55.5l-15 71q61 0 101 38.5t40 98.5t-39 98t-92 38
q-61 0 -94.5 -32.5t-49.5 -57.5v-361l-87 16v147q-22 -21 -58 -38.5t-80 -17.5zM141 299q0 -60 38.5 -98.5t95.5 -38.5q55 0 87 28.5t51 55.5v105q-19 27 -51 55.5t-87 28.5q-53 0 -93 -38t-41 -98z" />
    <glyph glyph-name="dv_Kha" unicode="&#x916;" horiz-adv-x="917" 
d="M404 338q0 78 55.5 130t143.5 52q32 0 60.5 -8t50.5 -24v123h-407q23 -28 35 -67.5t12 -77.5q0 -72 -43.5 -128.5t-115.5 -75.5q7 -66 75 -136.5t175 -70.5q86 0 147.5 40t85.5 92q-20 -12 -43.5 -18.5t-48.5 -6.5q-74 0 -128 49.5t-54 126.5zM493 339q0 -53 32 -82.5
t78 -29.5q47 0 79 30t32 81v4q-1 50 -33 79.5t-78 29.5q-44 0 -77 -30.5t-33 -81.5zM801 -16l-87 16v96q-45 -49 -114.5 -80.5t-154.5 -31.5q-150 0 -235.5 86.5t-94.5 183.5h-36q-18 0 -28 11t-10 26q0 35 32 71t74 36q18 0 24 -20t8 -44q39 12 65.5 46.5t26.5 85.5
q0 43 -19 84.5t-50 60.5h-199q-3 17 -6.5 34.5t-7.5 34.5h925l14 -69h-127v-627z" />
    <glyph glyph-name="dv_Ga" unicode="&#x917;" horiz-adv-x="632" 
d="M430 0v611h-219v-389q0 -23 -9 -37t-27 -14q-48 0 -83.5 38.5t-35.5 74.5q0 27 21 33.5t47 6.5v287h-121q-3 17 -6.5 34.5t-7.5 34.5h639l15 -69h-127v-627z" />
    <glyph glyph-name="dv_Gha" unicode="&#x918;" horiz-adv-x="704" 
d="M502 0v193q-32 -46 -85 -78.5t-134 -32.5q-97 0 -153.5 52.5t-56.5 124.5q0 49 22.5 90t65.5 55q-35 16 -56 52t-21 79q0 19 8.5 40t21.5 37h-110l-15 68h711l16 -68h-128v-628zM161 257q0 -42 36 -70.5t89 -28.5q90 0 151.5 64.5t64.5 202.5v187h-279q-27 -10 -40 -31.5
t-13 -46.5q0 -44 31.5 -72t94.5 -28h39l21 -63h-53q-80 0 -111 -34t-31 -80z" />
    <glyph glyph-name="dv_Nga" unicode="&#x919;" horiz-adv-x="600" 
d="M549 311q-24 0 -41 17t-17 40q0 25 17 42.5t41 17.5q25 0 42 -17.5t17 -42.5q0 -23 -17 -40t-42 -17zM76 110q39 -27 91 -42t104 -16q69 0 102.5 27.5t33.5 64.5q0 40 -25 69.5t-79 29.5h-93q-60 0 -110 38.5t-50 98.5q0 64 46 100.5t112 36.5h145v94h-350
q-3 17 -6.5 34.5t-7.5 34.5h607l15 -69h-174v-166h-228q-31 0 -53 -19t-22 -46q0 -32 24 -49t62 -17h81q83 0 137.5 -40t54.5 -127q0 -66 -57.5 -115.5t-162.5 -49.5q-60 0 -119.5 16.5t-92.5 38.5z" />
    <glyph glyph-name="dv_Ca" unicode="&#x91a;" horiz-adv-x="709" 
d="M506 0v136q-26 -20 -62.5 -30.5t-77.5 -10.5q-93 0 -157 49t-64 143q0 37 13 67t34 52h-138l-15 72h371l17 -71l-47 -1q-77 -1 -114.5 -33t-37.5 -86q0 -56 39 -88t99 -32q56 0 94.5 28t45.5 77v340h-502l-15 68h716l15 -68h-128v-628z" />
    <glyph glyph-name="dv_Cha" unicode="&#x91b;" horiz-adv-x="815" 
d="M759 398q0 -116 -107 -264.5t-309 -148.5q-117 0 -194.5 51t-77.5 149q0 49 30.5 101t102.5 69q-61 19 -90 67.5t-29 92.5q0 27 9.5 52t24.5 44h-114q-4 17 -8 34.5t-8 34.5h821l16 -69h-168v-64q51 -16 76 -59t25 -90zM160 185q0 -66 58.5 -98t127.5 -32q99 0 174.5 56
t101.5 125q-60 3 -111.5 49.5t-51.5 112.5q0 63 36.5 105.5t90.5 49.5v58h-350q-31 -13 -46.5 -39t-15.5 -58q0 -56 40.5 -92t124.5 -36h26l19 -62h-38q-97 0 -141.5 -37.5t-44.5 -101.5zM657 292q12 22 19 48.5t7 53.5q0 34 -17.5 62.5t-58.5 28.5q-34 0 -53 -25.5
t-19 -61.5q0 -46 39.5 -75t82.5 -31z" />
    <glyph glyph-name="dv_Ja" unicode="&#x91c;" horiz-adv-x="764" 
d="M562 391h-173q19 -22 30.5 -52t11.5 -67q0 -99 -66 -147.5t-157 -48.5q-61 0 -111.5 18.5t-84.5 41.5l16 75q38 -28 83.5 -46t94.5 -18q60 0 100 34.5t40 89.5q0 56 -36 88t-99 32h-55q-4 18 -8.5 35.5t-8.5 35.5h423v149h-559q-3 17 -6.5 34.5t-7.5 34.5h771l15 -69
h-128v-627l-85 16v391z" />
    <glyph glyph-name="dv_Jha" unicode="&#x91d;" horiz-adv-x="858" 
d="M655 611h-216v-166h-229q-34 0 -54.5 -19t-20.5 -46q0 -28 21.5 -47t55.5 -19h84q51 0 92.5 -14.5t66.5 -39.5q50 0 100 0.5t100 0.5v350zM195 63q19 -5 39.5 -7.5t40.5 -3.5q62 0 97.5 22.5t35.5 73.5q0 41 -28 68t-75 27h-94q-60 0 -110 38.5t-50 98.5q0 64 46 100.5
t112 36.5h144v94h-350q-3 17 -6.5 34.5t-7.5 34.5h865q4 -17 7.5 -34.5t7.5 -34.5h-128v-627l-86 16v194h-167q4 -10 5.5 -22t1.5 -25q0 -66 -57 -115t-161 -49q-13 0 -26 1.5t-26 2.5l93 -117l-57 -41q-31 42 -63 83l-64 82q-29 13 -58 40.5t-29 64.5q0 19 13 30.5t33 11.5
q36 0 64 -23t38 -55z" />
    <glyph glyph-name="dv_Nya" unicode="&#x91e;" horiz-adv-x="760" 
d="M28 222q36 -29 82 -46.5t97 -17.5q60 0 98 37t38 103t-38 103.5t-98 37.5q-25 0 -52 -4.5t-51 -11.5l-19 67q29 10 60.5 15t62.5 5q85 0 145.5 -45t70.5 -136h134v283h-554l-15 68h767l15 -68h-127v-628l-86 16v261h-134q-11 -87 -71.5 -131t-144.5 -44q-60 0 -111 18
t-85 42z" />
    <glyph glyph-name="dv_Tta" unicode="&#x91f;" horiz-adv-x="631" 
d="M144 230q0 -101 65.5 -137.5t151.5 -36.5q53 0 103 14t99 49l10 -79q-40 -29 -96 -43.5t-116 -14.5q-116 0 -209.5 54t-93.5 194q0 125 92.5 188t222.5 63h43v130h-413q-3 17 -6.5 34.5t-7.5 34.5h638l15 -69h-139v-204h-130q-98 0 -163.5 -45t-65.5 -132z" />
    <glyph glyph-name="dv_Ttha" unicode="&#x920;" horiz-adv-x="716" 
d="M360 -18q-115 0 -208 54t-93 194q0 113 75 174t180 73v135h-310l-15 68h723l15 -68h-326v-135q103 -8 181.5 -62.5t78.5 -182.5q0 -127 -90 -188.5t-211 -61.5zM576 232q0 101 -64.5 137.5t-151.5 36.5q-88 0 -151.5 -44.5t-63.5 -131.5q0 -101 64.5 -137.5t150.5 -36.5
q90 0 153 44t63 132z" />
    <glyph glyph-name="dv_Dda" unicode="&#x921;" horiz-adv-x="532" 
d="M76 110q39 -27 91 -42t104 -16q65 0 99.5 28t34.5 68q0 41 -28 68t-74 27h-93q-60 0 -110 38.5t-50 98.5q0 64 46 100.5t112 36.5h145v94h-350q-3 17 -6.5 34.5t-7.5 34.5h538q4 -17 7.5 -34.5t7.5 -34.5h-105v-166h-228q-31 0 -53 -19t-22 -46q0 -28 21.5 -47t55.5 -19
h83q91 0 145 -42t54 -125q0 -66 -57.5 -115.5t-162.5 -49.5q-60 0 -119.5 16.5t-92.5 38.5z" />
    <glyph glyph-name="dv_Ddha" unicode="&#x922;" horiz-adv-x="629" 
d="M503 611v-185h-130q-98 0 -163.5 -48.5t-65.5 -137.5q0 -92 55.5 -135t130.5 -49q-19 16 -31.5 41.5t-12.5 50.5q0 60 41 103.5t107 43.5q68 0 109.5 -37.5t41.5 -100.5q0 -73 -62.5 -124t-161.5 -51q-113 0 -208 57.5t-95 200.5q0 124 92.5 192t222.5 68h43v111h-413
q-3 17 -6.5 34.5t-7.5 34.5h636l16 -69h-138zM439 220q-30 0 -52 -18.5t-22 -53.5q0 -28 14.5 -51t41.5 -36q45 10 66.5 37t21.5 57q0 28 -19 46.5t-51 18.5z" />
    <glyph glyph-name="dv_Nna" unicode="&#x923;" horiz-adv-x="880" 
d="M487 378q0 -100 -53.5 -155.5t-140.5 -55.5q-87 1 -140.5 56t-53.5 155v233h-96q-3 17 -6.5 34.5t-7.5 34.5h887q4 -17 8 -34.5t8 -34.5h-128v-627l-86 16v611h-191v-233zM184 611v-233q0 -63 26 -100t84 -38q56 1 81.5 38t25.5 100v233h-217z" />
    <glyph glyph-name="dv_Ta" unicode="&#x924;" horiz-adv-x="678" 
d="M476 0v385h-198q-63 0 -94 -24t-31 -71q0 -57 47 -135t94 -150l-74 -24q-51 72 -102 156.5t-51 156.5q0 68 46 114t128 46h235v158h-472l-15 68h685l15 -68h-127v-628z" />
    <glyph glyph-name="dv_Tha" unicode="&#x925;" horiz-adv-x="678" 
d="M247 534q-10 -19 -35 -33.5t-55 -14.5q-43 0 -77.5 27t-34.5 72q0 47 34 78.5t88 31.5q57 0 105.5 -49t48.5 -122q0 -90 -42 -127.5t-88 -61.5q12 -37 51 -63t93 -28q68 0 104 39.5t36 109.5v218h-62l-15 69h276q4 -17 7.5 -34.5t7.5 -34.5h-127v-627l-87 16v218
q-25 -22 -60 -34.5t-82 -12.5q-89 0 -157 58t-68 133q4 5 8 9.5t8 9.5q70 28 95 63t28 90zM221 597q-9 15 -24 25t-33 10q-19 0 -34.5 -11.5t-15.5 -34.5q0 -19 14.5 -30t32.5 -11q26 0 40.5 16t19.5 36z" />
    <glyph glyph-name="dv_Da" unicode="&#x926;" horiz-adv-x="602" 
d="M551 -9l-67 -34q-17 32 -34 64.5t-35 63.5l-12 -2q-16 -3 -33.5 -4.5t-33.5 -1.5q-110 0 -195.5 56t-85.5 175q0 110 84 168t209 58h34v77h-379q-3 17 -6.5 34.5t-7.5 34.5h608l15 -69h-143v-149h-109q-94 0 -156.5 -39.5t-62.5 -114.5q0 -77 57 -116.5t138 -39.5
q11 0 22.5 1t23.5 2q-1 7 -2.5 15.5t-1.5 18.5q0 14 16.5 29t44.5 15q15 0 47 -13.5t32 -46.5q0 -15 -9 -32t-27 -32z" />
    <glyph glyph-name="dv_Dha" unicode="&#x927;" horiz-adv-x="735" 
d="M266 620q-36 0 -65 -24t-29 -64q0 -43 31 -70.5t95 -27.5h35q6 -16 12 -31.5t13 -31.5h-55q-78 0 -110 -34t-32 -80q0 -45 41.5 -72.5t99.5 -27.5q99 0 164.5 72t65.5 221v161h-72l-15 69h286l15 -69h-127v-627l-87 16v194q-30 -47 -88.5 -80.5t-144.5 -33.5
q-105 0 -165 51t-60 127q0 50 24 91.5t68 54.5q-37 14 -59 51t-22 80q0 63 48 111t129 48q48 0 84 -18.5t49 -35.5l-39 -53q-16 16 -38.5 24.5t-51.5 8.5z" />
    <glyph glyph-name="dv_Na" unicode="&#x928;" horiz-adv-x="613" 
d="M410 315h-224q0 -31 -9 -58t-22 -27q-45 0 -82.5 34.5t-37.5 74.5q0 19 11 30.5t33 11.5h331v230h-407q-3 17 -6.5 34.5t-7.5 34.5h621l14 -69h-127v-627l-87 16v315z" />
    <glyph glyph-name="dv_Nnna" unicode="&#x929;" horiz-adv-x="613" 
d="M410 315h-224q0 -31 -9 -58t-22 -27q-45 0 -82.5 34.5t-37.5 74.5q0 19 11 30.5t33 11.5h331v230h-407q-3 17 -6.5 34.5t-7.5 34.5h621l14 -69h-127v-627l-87 16v315zM155 -33q-24 0 -41.5 17t-17.5 40q0 25 17.5 42t41.5 17t41 -17t17 -42q0 -23 -17 -40t-41 -17z" />
    <glyph glyph-name="dv_Pa" unicode="&#x92a;" horiz-adv-x="657" 
d="M455 0v218q-25 -22 -63 -34.5t-79 -12.5q-96 0 -156.5 56.5t-60.5 156.5v228h-92l-15 68h664l15 -68h-127v-628zM182 384q0 -64 34 -102t102 -38q63 0 99 36t38 99v233h-273v-228z" />
    <glyph glyph-name="dv_Pha" unicode="&#x92b;" horiz-adv-x="947" 
d="M454 379v232h-273v-228q0 -64 34.5 -101.5t101.5 -37.5q63 0 99 36t38 99zM674 149q61 0 101 38.5t40 98.5q-1 60 -39.5 97.5t-91.5 37.5q-61 0 -93.5 -31t-49.5 -57v-349l-87 16v218q-25 -22 -62.5 -34.5t-79.5 -12.5q-96 0 -156.5 56t-60.5 156v228h-92
q-3 17 -6.5 34.5t-7.5 34.5h955l15 -69h-418v-175q22 21 58.5 39.5t82.5 18.5q100 0 161.5 -60.5t61.5 -148.5q0 -96 -66.5 -151.5t-150.5 -55.5z" />
    <glyph glyph-name="dv_Ba" unicode="&#x92c;" horiz-adv-x="618" 
d="M414 0v144q-23 -20 -58.5 -37t-79.5 -17q-94 0 -159.5 57t-65.5 151q0 88 62 148.5t163 60.5q44 0 79.5 -16.5t58.5 -37.5v158h-411q-3 17 -6.5 34.5t-7.5 34.5h624l15 -69h-127v-627zM414 351q-19 26 -51 55.5t-90 29.5q-17 0 -33.5 -5t-30.5 -14q44 -51 89 -102.5
t89 -102.5q8 8 15 17t12 17v105zM168 383q-13 -17 -20 -38t-7 -46q0 -60 38 -99t94 -39q22 0 40.5 5.5t33.5 12.5z" />
    <glyph glyph-name="dv_Bha" unicode="&#x92d;" horiz-adv-x="731" 
d="M528 0v255h-238q0 -38 -7.5 -61t-24.5 -23q-47 0 -83 35.5t-36 74.5q0 12 19 26.5t50 14.5v162q-13 -7 -28 -10.5t-25 -3.5q-54 0 -86.5 33t-32.5 82t36.5 79.5t85.5 30.5q63 0 99 -45t36 -120v-208h235v289h-122l-16 69h337l15 -69h-127v-627zM111 578q0 -21 14.5 -33
t33.5 -12q12 0 26 5.5t24 14.5q-1 33 -14 52.5t-38 19.5q-19 0 -32.5 -12.5t-13.5 -34.5z" />
    <glyph glyph-name="dv_Ma" unicode="&#x92e;" horiz-adv-x="660" 
d="M458 255h-253q0 -46 -9.5 -65t-25.5 -19q-47 0 -83 35t-36 74q0 19 23 30.5t46 11.5v289h-117q-3 17 -6.5 34.5t-7.5 34.5h667q4 -17 8 -34.5t8 -34.5h-128v-627l-86 16v255zM458 611h-253v-289h253v289z" />
    <glyph glyph-name="dv_Ya" unicode="&#x92f;" horiz-adv-x="631" 
d="M77 379q29 9 52.5 44.5t23.5 86.5q0 37 -19.5 64t-52.5 37h-78q-3 17 -6.5 34.5t-7.5 34.5h639l15 -69h-128v-627l-87 16v217q-25 -21 -60 -33.5t-81 -12.5q-90 0 -157.5 58t-67.5 133zM428 611h-233q16 -16 27 -43.5t11 -63.5q0 -47 -21.5 -92.5t-66.5 -70.5
q10 -37 49.5 -66t93.5 -31q63 0 101 36t39 99v232z" />
    <glyph glyph-name="dv_Ra" unicode="&#x930;" horiz-adv-x="443" 
d="M129 254h-39q-17 0 -27.5 11.5t-10.5 27.5q0 34 27.5 69.5t63.5 35.5q16 0 29 -23t20 -41q41 12 67 46.5t26 85.5q0 43 -19 84.5t-50 60.5h-213q-3 17 -6.5 34.5t-7.5 34.5h449l16 -69h-130q23 -28 35 -67.5t12 -77.5q0 -73 -45 -129.5t-118 -75.5l162 -258l-85 -21
q-39 67 -77.5 135.5t-78.5 136.5z" />
    <glyph glyph-name="dv_Rra" unicode="&#x931;" horiz-adv-x="443" 
d="M129 254h-39q-17 0 -27.5 11.5t-10.5 27.5q0 34 27.5 69.5t63.5 35.5q16 0 29 -23t20 -41q41 12 67 46.5t26 85.5q0 43 -19 84.5t-50 60.5h-213q-3 17 -6.5 34.5t-7.5 34.5h449l16 -69h-130q23 -28 35 -67.5t12 -77.5q0 -73 -45 -129.5t-118 -75.5l162 -258l-85 -21
q-39 67 -77.5 135.5t-78.5 136.5zM91 -33q-24 0 -41 17t-17 40q0 25 17 42t41 17q25 0 42 -17t17 -42q0 -23 -17 -40t-42 -17z" />
    <glyph glyph-name="dv_La" unicode="&#x932;" horiz-adv-x="868" 
d="M665 0v285q-2 57 -27.5 92.5t-74.5 35.5t-74.5 -39t-25.5 -101v-123l-83 18l-1 105q0 62 -26.5 99.5t-85.5 38.5q-45 0 -76 -32t-31 -72q0 -71 28.5 -134t79.5 -169l-70 -24q-49 96 -84.5 173t-35.5 161q0 67 56 119t133 53q49 -1 88 -20t64 -53q24 35 61.5 54t83.5 19
q29 0 55.5 -8.5t45.5 -24.5v159h-661l-15 68h875l15 -68h-127v-628z" />
    <glyph glyph-name="dv_Lla" unicode="&#x933;" horiz-adv-x="902" 
d="M783 283q0 59 -36 103t-103 44q-63 0 -94.5 -53.5t-50.5 -110.5l-13 -35q25 -49 69 -81t89 -32q63 0 101 49.5t38 115.5zM134 266q0 -59 38.5 -102.5t104.5 -43.5q62 0 98.5 53.5t52.5 108.5q1 7 4 18t7 18q-26 47 -67 78t-95 32q-67 0 -105 -48.5t-38 -113.5zM275 500
q60 0 110 -30.5t87 -79.5q21 37 53.5 66.5t78.5 39.5v116h-600l-15 68h910l14 -68h-223v-115q77 -14 125.5 -72.5t48.5 -144.5q0 -96 -64.5 -163.5t-155.5 -67.5q-58 0 -107.5 30t-83.5 84q-29 -47 -71.5 -81t-104.5 -34q-99 0 -161 61t-62 159q0 96 61.5 164t159.5 68z" />
    <glyph glyph-name="dv_Llla" unicode="&#x934;" horiz-adv-x="902" 
d="M783 283q0 59 -36 103t-103 44q-63 0 -94.5 -53.5t-50.5 -110.5l-13 -35q25 -49 69 -81t89 -32q63 0 101 49.5t38 115.5zM134 266q0 -59 38.5 -102.5t104.5 -43.5q62 0 98.5 53.5t52.5 108.5q1 7 4 18t7 18q-26 47 -67 78t-95 32q-67 0 -105 -48.5t-38 -113.5zM275 500
q60 0 110 -30.5t87 -79.5q21 37 53.5 66.5t78.5 39.5v116h-600l-15 68h910l14 -68h-223v-115q77 -14 125.5 -72.5t48.5 -144.5q0 -96 -64.5 -163.5t-155.5 -67.5q-58 0 -107.5 30t-83.5 84q-29 -47 -71.5 -81t-104.5 -34q-99 0 -161 61t-62 159q0 96 61.5 164t159.5 68z
M452 -104q-25 0 -41.5 16.5t-16.5 40.5q0 25 16.5 42.5t41.5 17.5t41.5 -17.5t16.5 -42.5q0 -24 -16.5 -40.5t-41.5 -16.5z" />
    <glyph glyph-name="dv_Va" unicode="&#x935;" horiz-adv-x="615" 
d="M275 91q-94 0 -159 57t-65 150q0 88 61.5 148.5t162.5 60.5q44 0 80 -17.5t58 -39.5v162h-409l-15 68h623l15 -68h-127v-628l-87 16v147q-22 -21 -58 -38.5t-80 -17.5zM141 299q0 -60 38.5 -98.5t95.5 -38.5q55 0 87 28.5t51 55.5v105q-19 27 -51 55.5t-87 28.5
q-53 0 -93 -38t-41 -98z" />
    <glyph glyph-name="dv_Sha" unicode="&#x936;" horiz-adv-x="781" 
d="M578 0v611h-113l-15 69h326l16 -69h-127v-627zM128 577q0 -20 14 -30t33 -10q37 0 57.5 26.5t24.5 54.5q-13 7 -28 11t-33 4q-29 0 -48.5 -17t-19.5 -39zM137 253h-38q-17 0 -27.5 11t-10.5 28q0 34 27.5 70t63.5 36q18 0 30.5 -25t17.5 -46q51 4 92 41.5t41 101.5
q0 25 -7.5 54t-26.5 51q-8 -36 -43.5 -66.5t-85.5 -30.5q-46 0 -81 27.5t-35 72.5q0 49 43.5 83t106.5 34q99 0 155.5 -67.5t56.5 -157.5q0 -84 -56.5 -138t-131.5 -66q-2 -1 -5.5 -2.5t-5.5 -2.5l180 -258l-87 -21z" />
    <glyph glyph-name="dv_Ssa" unicode="&#x937;" horiz-adv-x="660" 
d="M457 0v218q-25 -22 -64 -34.5t-81 -12.5q-96 0 -156 56t-60 156v228h-93q-3 17 -6.5 34.5t-7.5 34.5h667q4 -17 8 -34.5t8 -34.5h-128v-627zM457 382v229h-226l223 -261q2 7 2.5 15t0.5 17zM182 383q0 -64 34 -101.5t101 -37.5q37 0 65.5 12.5t45.5 34.5l-246 291v-199z
" />
    <glyph glyph-name="dv_Sa" unicode="&#x938;" horiz-adv-x="774" 
d="M571 611h-247q23 -28 35 -67.5t12 -77.5q0 -31 -8 -59t-24 -51h232v255zM129 254h-39q-17 0 -27.5 11.5t-10.5 27.5q0 34 27.5 69.5t63.5 35.5q16 0 29 -23t20 -41q41 12 67 46.5t26 85.5q0 43 -19 84.5t-50 60.5h-213q-3 17 -6.5 34.5t-7.5 34.5h781l15 -69h-127v-627
l-87 16v290h-295q-14 -10 -31.5 -17.5t-36.5 -11.5l162 -258l-85 -21q-39 67 -77.5 135.5t-78.5 136.5z" />
    <glyph glyph-name="dv_Ha" unicode="&#x939;" horiz-adv-x="541" 
d="M411 237q0 33 -33.5 58t-88.5 25t-91 -33.5t-36 -80.5q0 -74 72.5 -110.5t144.5 -41.5l-19 -70q-109 6 -194 64t-85 158q0 42 14.5 75.5t40.5 55.5q-22 16 -34.5 38.5t-12.5 53.5q1 57 38.5 87t101.5 30h127v66h-353l-14 68h547l16 -68h-108v-135h-210q-29 0 -45 -12.5
t-16 -34.5q0 -16 10.5 -30t27.5 -21q18 6 38 9t42 3q91 0 146 -44.5t55 -105.5q0 -34 -14 -68t-42 -53l-62 43q20 17 28.5 34.5t8.5 39.5z" />
    <glyph glyph-name="dv_MatraOe" unicode="&#x93a;" horiz-adv-x="0" 
d="M-28 882v-202h-81v218z" />
    <glyph glyph-name="dv_MatraOoe" unicode="&#x93b;" 
d="M200 882v-202h114q4 -17 8.5 -34.5t8.5 -34.5h-128v-627l-87 16v611h-113q-3 17 -6.5 34.5t-7.5 34.5h130v218z" />
    <glyph glyph-name="dv_Nukta" unicode="&#x93c;" horiz-adv-x="0" 
d="M75 -168q-24 0 -41 16.5t-17 40.5q0 25 17 42t41 17q25 0 42 -17t17 -42q0 -24 -17 -40.5t-42 -16.5z" />
    <glyph glyph-name="dv_Avagraha" unicode="&#x93d;" horiz-adv-x="540" 
d="M77 111q37 -27 88 -42t100 -15q55 0 91.5 28.5t36.5 81.5q0 59 -52.5 136.5t-108.5 140.5l-157 178v61h391l14 -65h-308l108 -121q59 -68 127 -158.5t68 -171.5q0 -78 -57.5 -130.5t-166.5 -52.5q-43 0 -102 15t-109 45z" />
    <glyph glyph-name="dv_MatraAa" unicode="&#x93e;" 
d="M116 0v612h-112l-15 68h326l16 -68h-128v-628z" />
    <glyph glyph-name="dv_MatraI" unicode="&#x93f;" 
d="M747 711q-79 52 -207 107t-240 55q-66 0 -103.5 -31.5t-37.5 -76.5q0 -33 13.5 -54t21.5 -31h121l16 -68h-128v-628l-87 16v612h-112l-15 68h113q-7 13 -16.5 33.5t-9.5 54.5q0 76 59.5 125.5t158.5 49.5q133 0 278 -65.5t208 -112.5z" />
    <glyph glyph-name="dv_MatraIi" unicode="&#x940;" 
d="M-115 736q-18 -7 -36 -12.5t-35 -11.5q-13 20 -23 44.5t-10 54.5q0 56 42.5 94t105.5 38q106 0 171 -92.5t90 -170.5h121q4 -17 8.5 -34.5t8.5 -34.5h-128v-627l-86 16v611h-114q-3 17 -6.5 34.5t-7.5 34.5h117q-13 44 -55.5 118t-117.5 74q-34 0 -51.5 -20.5
t-17.5 -43.5q0 -19 6.5 -35.5t17.5 -36.5z" />
    <glyph glyph-name="dv_MatraU" unicode="&#x941;" horiz-adv-x="0" 
d="M-343 -104q52 -62 96 -98.5t101 -36.5q41 0 63 21.5t22 55.5t-23.5 55t-61.5 21h-55v68h65q56 0 102 -38.5t46 -105.5t-47 -105.5t-112 -38.5q-69 0 -133.5 44.5t-114.5 122.5z" />
    <glyph glyph-name="dv_MatraUu" unicode="&#x942;" horiz-adv-x="0" 
d="M48 -222q-53 63 -96.5 99.5t-100.5 36.5q-41 0 -62.5 -21.5t-21.5 -53.5q0 -34 22.5 -56.5t61.5 -22.5h56v-66h-66q-54 0 -101 38t-47 107q0 66 47 104.5t113 38.5q70 0 134 -45t113 -123z" />
    <glyph glyph-name="dv_MatraVocalicR" unicode="&#x943;" horiz-adv-x="0" 
d="M-254 -162q0 -34 23 -56t62 -22q15 0 29.5 3.5t31.5 8.5l14 -66q-20 -6 -42.5 -9t-42.5 -3q-58 0 -103 38.5t-45 105.5q0 68 47 106t101 38h65v-67h-55q-37 0 -61 -21.5t-24 -55.5z" />
    <glyph glyph-name="dv_MatraVocalicRr" unicode="&#x944;" horiz-adv-x="0" 
d="M-231 -159q-12 5 -24 21t-12 33q0 49 33.5 68t70.5 19h46v-54h-27q-17 0 -33.5 -8t-16.5 -25q0 -14 16.5 -21.5t33.5 -7.5h26l-23 -51q-24 0 -41 -7.5t-17 -23.5t13.5 -23.5t41.5 -7.5h27l-23 -53h-23q-37 0 -70.5 18.5t-33.5 65.5q0 18 11 33.5t25 23.5z" />
    <glyph glyph-name="dv_MatraCandraE" unicode="&#x945;" horiz-adv-x="0" 
d="M380 937l59 -36q-37 -71 -91 -103t-120 -32q-67 0 -121 32.5t-90 102.5l58 36q27 -54 67 -80.5t86 -26.5q45 0 84 26t68 81z" />
    <glyph glyph-name="dv_MatraShortE" unicode="&#x946;" horiz-adv-x="0" 
d="M-391 922q0 -39 31 -57t74 -18q87 -1 132 -48t45 -114v-39h-84v47q0 42 -26 62t-75 20q-84 0 -130.5 41t-46.5 105v17l40 -8z" />
    <glyph glyph-name="dv_MatraE" unicode="&#x947;" horiz-adv-x="0" 
d="M-87 640h-97l-281 259l68 48z" />
    <glyph glyph-name="dv_MatraAi" unicode="&#x948;" horiz-adv-x="0" 
d="M-124 678h-79l-39 41q-45 46 -79 57.5t-76 11.5h-78l-18 75h93q49 0 90 -11.5t90 -66.5q-17 51 -34.5 102.5t-33.5 102.5l81 27z" />
    <glyph glyph-name="dv_MatraCandraO" unicode="&#x949;" 
d="M312 937l58 -36q-37 -71 -91 -103t-120 -32t-120 32.5t-90 102.5l58 36q28 -54 67 -80.5t85 -26.5t85.5 26t67.5 81zM116 0v612h-112l-15 68h326l16 -68h-128v-628z" />
    <glyph glyph-name="dv_MatraShortO" unicode="&#x94a;" 
d="M-84 922q0 -36 26 -55.5t67 -19.5q81 0 136.5 -40t55.5 -105v-22h113q4 -17 8.5 -34.5t8.5 -34.5h-128v-627l-87 16v611h-113q-3 17 -6.5 34.5t-7.5 34.5h129v13q0 40 -26.5 61t-77.5 21q-80 0 -128.5 39.5t-48.5 101.5v22q19 -4 39.5 -8t39.5 -8z" />
    <glyph glyph-name="dv_MatraO" unicode="&#x94b;" 
d="M-11 680h108l-238 219q17 11 34.5 23.5t34.5 24.5l269 -267h117q4 -17 8.5 -34.5t8.5 -34.5h-128v-627l-87 16v611h-113q-3 17 -6.5 34.5t-7.5 34.5z" />
    <glyph glyph-name="dv_MatraAu" unicode="&#x94c;" 
d="M195 680h119q4 -17 8.5 -34.5t8.5 -34.5h-128v-627l-87 16v611h-113q-3 17 -6.5 34.5t-7.5 34.5h126l-41 42q-44 45 -76.5 55.5t-74.5 10.5h-79l-16 75h84q53 0 95 -11.5t92 -66.5q-17 51 -34 102.5t-33 102.5l81 27q20 -84 40.5 -168.5t41.5 -168.5z" />
    <glyph glyph-name="dv_Halant" unicode="&#x94d;" horiz-adv-x="0" 
d="M-53 -315l-211 190l63 58l200 -202z" />
    <glyph glyph-name="dv_PrishtaMatraE" unicode="&#x94e;" horiz-adv-x="316" 
d="M114 0v680h198l16 -68h-128v-628z" />
    <glyph glyph-name="dv_MatraAw" unicode="&#x94f;" 
d="M-33 791h82q19 -1 35 -2t29 -3q-7 16 -19 27t-34 13q-64 6 -86.5 40t-22.5 90v20l72 -16q0 -37 15.5 -60t45.5 -25q67 -4 92.5 -46t25.5 -102v-47h113l16 -68h-128v-628l-87 16v612h-112l-15 68h136q-1 27 -11 36t-48 9h-94q-80 0 -127.5 39.5t-47.5 100.5v19l71 -15
q0 -37 28.5 -57.5t70.5 -20.5z" />
    <glyph glyph-name="dv_Om" unicode="&#x950;" horiz-adv-x="863" 
d="M614 807q-25 0 -41.5 17t-16.5 41t16.5 41t41.5 17t42 -17t17 -41t-17 -41t-42 -17zM765 861l59 -36q-37 -71 -91 -103.5t-120 -32.5q-67 0 -121 32.5t-90 103.5l58 36q27 -54 67 -81t86 -27q45 0 84 26.5t68 81.5zM280 695q110 0 158 -55t48 -127q0 -45 -28.5 -94
t-89.5 -68q25 -7 46 -16.5t34 -23.5q25 26 70.5 51t107.5 25q100 0 157.5 -58t57.5 -146q0 -96 -64.5 -149.5t-148.5 -53.5l-15 71q61 0 99.5 36.5t38.5 96.5q0 58 -36.5 94.5t-88.5 36.5q-50 0 -84.5 -21t-53.5 -45q7 -16 9.5 -33.5t2.5 -32.5q0 -85 -61 -141.5t-175 -56.5
h-12q-57 1 -105 17.5t-80 38.5l15 72q38 -27 84.5 -42.5t97.5 -15.5q62 0 105 31.5t43 94.5q0 64 -39.5 101t-146.5 37h-71q-5 15 -10 30.5t-10 31.5h98q84 0 124 37.5t40 92.5q0 46 -29.5 79.5t-92.5 33.5q-51 0 -96.5 -18t-88.5 -49q-2 18 -5 36.5t-6 36.5
q37 28 89.5 46.5t111.5 18.5z" />
    <glyph glyph-name="dv_Udatta" unicode="&#x951;" horiz-adv-x="0" 
d="M87 755h-58l-12 187h83z" />
    <glyph glyph-name="dv_Anudatta" unicode="&#x952;" horiz-adv-x="0" 
d="M566 -150h-534l-15 67h535z" />
    <glyph glyph-name="dv_Graveaccent" unicode="&#x953;" horiz-adv-x="0" 
d="M175 755h-55l-103 187h92z" />
    <glyph glyph-name="dv_Acuteaccent" unicode="&#x954;" horiz-adv-x="0" 
d="M175 942l-104 -187h-54l67 187h91z" />
    <glyph glyph-name="dv_MatraCandraLongE" unicode="&#x955;" horiz-adv-x="0" 
d="M383 989l58 -34q-36 -71 -90 -102t-120 -31t-121 31.5t-90 101.5q14 8 28.5 17t29.5 17q27 -53 67 -79t86 -26q41 0 82 25t70 80zM451 731h-419l-13 58h419q4 -14 6.5 -28.5t6.5 -29.5z" />
    <glyph glyph-name="dv_MatraUe" unicode="&#x956;" horiz-adv-x="0" 
d="M380 -42l59 -36q-37 -70 -91 -102t-120 -32q-67 0 -121 32t-90 102l58 36q27 -54 67 -81t86 -27q45 0 84 27t68 81z" />
    <glyph glyph-name="dv_MatraUue" unicode="&#x957;" horiz-adv-x="0" 
d="M429 -42l58 -35q-37 -69 -100 -92.5t-107 -23.5q-46 0 -108 23.5t-99 92.5l58 35q25 -53 71.5 -71.5t77.5 -18.5t76 18t73 72zM480 -141l57 -36q-46 -69 -116.5 -94.5t-140.5 -25.5t-141.5 27t-121.5 93l58 36q35 -47 93 -70.5t112 -23.5q52 0 108 21.5t92 72.5z" />
    <glyph glyph-name="dv_Qa" unicode="&#x958;" horiz-adv-x="908" 
d="M273 435q-53 0 -92 -38t-40 -98q0 -60 38 -98.5t94 -38.5q60 0 90.5 29t49.5 56v103q-19 26 -49.5 55.5t-90.5 29.5zM634 162q61 0 101 38.5t40 98.5q-1 60 -40 98t-92 38q-60 0 -93.5 -32.5t-50.5 -57.5v-361l-86 16v145q-23 -20 -58.5 -37t-79.5 -17q-95 0 -159.5 56.5
t-64.5 150.5q0 88 61.5 148.5t162.5 60.5q44 0 79.5 -17t58.5 -38v159h-410q-3 17 -6.5 34.5t-7.5 34.5h916l14 -69h-420v-164q23 22 59.5 41t83.5 19q100 0 161.5 -60.5t61.5 -148.5q0 -96 -66 -151.5t-150 -55.5zM184 -104q-25 0 -42 17t-17 41t17 41t42 17t41.5 -17
t16.5 -41t-16.5 -41t-41.5 -17z" />
    <glyph glyph-name="dv_Khha" unicode="&#x959;" horiz-adv-x="917" 
d="M404 338q0 78 55.5 130t143.5 52q32 0 60.5 -8t50.5 -24v123h-407q23 -28 35 -67.5t12 -77.5q0 -72 -43.5 -128.5t-115.5 -75.5q7 -66 75 -136.5t175 -70.5q86 0 147.5 40t85.5 92q-20 -12 -43.5 -18.5t-48.5 -6.5q-74 0 -128 49.5t-54 126.5zM493 339q0 -53 32 -82.5
t78 -29.5q47 0 79 30t32 81q0 52 -32 82.5t-79 30.5q-44 0 -77 -30.5t-33 -81.5zM801 -16l-87 16v96q-45 -49 -114.5 -80.5t-154.5 -31.5q-150 0 -235.5 86.5t-94.5 183.5h-36q-18 0 -28 11t-10 26q0 35 32 71t74 36q18 0 24 -20t8 -44q39 12 65.5 46.5t26.5 85.5
q0 43 -19 84.5t-50 60.5h-199q-3 17 -6.5 34.5t-7.5 34.5h925l14 -69h-127v-627zM97 -33q-24 0 -41 17t-17 40q0 25 17 42t41 17q25 0 42 -17t17 -42q0 -23 -17 -40t-42 -17z" />
    <glyph glyph-name="dv_Ghha" unicode="&#x95a;" horiz-adv-x="632" 
d="M430 0v611h-219v-389q0 -23 -9 -37t-27 -14q-48 0 -83.5 38.5t-35.5 74.5q0 27 21 33.5t47 6.5v287h-121q-3 17 -6.5 34.5t-7.5 34.5h639l15 -69h-127v-627zM178 -33q-25 0 -41.5 17t-16.5 40q0 25 16.5 42t41.5 17q24 0 41.5 -17t17.5 -42q0 -23 -17.5 -40t-41.5 -17z
" />
    <glyph glyph-name="dv_Za" unicode="&#x95b;" horiz-adv-x="764" 
d="M562 391h-173q19 -22 30.5 -52t11.5 -67q0 -99 -66 -147.5t-157 -48.5q-61 0 -111.5 18.5t-84.5 41.5l16 75q38 -28 83.5 -46t94.5 -18q60 0 100 34.5t40 89.5q0 56 -36 88t-99 32h-55q-4 18 -8.5 35.5t-8.5 35.5h423v149h-559q-3 17 -6.5 34.5t-7.5 34.5h771l15 -69
h-128v-627l-85 16v391zM210 -104q-24 0 -41.5 17t-17.5 41t17.5 41t41.5 17q25 0 42 -17t17 -41t-17 -41t-42 -17z" />
    <glyph glyph-name="dv_Dddha" unicode="&#x95c;" horiz-adv-x="532" 
d="M76 110q39 -27 91 -42t104 -16q62 0 98 23.5t36 72.5q0 41 -28 68t-74 27h-93q-60 0 -110 38.5t-50 98.5q0 64 46 100.5t112 36.5h145v94h-350q-3 17 -6.5 34.5t-7.5 34.5h538q4 -17 7.5 -34.5t7.5 -34.5h-105v-166h-228q-31 0 -53 -19t-22 -46q0 -28 21.5 -47t55.5 -19
h83q91 0 145 -42t54 -125q0 -66 -57.5 -115.5t-162.5 -49.5q-60 0 -119.5 16.5t-92.5 38.5zM278 -183q-24 0 -41.5 17t-17.5 42q0 24 17.5 41.5t41.5 17.5t41 -17.5t17 -41.5q0 -25 -17 -42t-41 -17z" />
    <glyph glyph-name="dv_Rha" unicode="&#x95d;" horiz-adv-x="625" 
d="M503 611v-185h-130q-98 0 -163.5 -48.5t-65.5 -137.5q0 -92 55.5 -135t130.5 -49q-19 16 -31.5 41.5t-12.5 50.5q0 60 41 103.5t107 43.5q68 0 109.5 -37.5t41.5 -100.5q0 -73 -62.5 -124t-161.5 -51q-113 0 -208 57.5t-95 200.5q0 124 92.5 192t222.5 68h43v111h-413
q-3 17 -6.5 34.5t-7.5 34.5h636l16 -69h-138zM439 220q-30 0 -52 -18.5t-22 -53.5q0 -28 14.5 -51t41.5 -36q45 10 66.5 37t21.5 57q0 28 -19 46.5t-51 18.5zM361 -183q-24 0 -40.5 17t-16.5 42q0 24 16.5 41.5t40.5 17.5q25 0 42.5 -17.5t17.5 -41.5q0 -25 -17.5 -42
t-42.5 -17z" />
    <glyph glyph-name="dv_Fa" unicode="&#x95e;" horiz-adv-x="947" 
d="M454 379v232h-273v-228q0 -64 34.5 -101.5t101.5 -37.5q63 0 99 36t38 99zM674 149q61 0 101 38.5t40 98.5q-1 60 -39.5 97.5t-91.5 37.5q-61 0 -93.5 -31t-49.5 -57v-349l-87 16v218q-25 -22 -62.5 -34.5t-79.5 -12.5q-96 0 -156.5 56t-60.5 156v228h-92
q-3 17 -6.5 34.5t-7.5 34.5h955l15 -69h-418v-175q22 21 58.5 39.5t82.5 18.5q100 0 161.5 -60.5t61.5 -148.5q0 -96 -66.5 -151.5t-150.5 -55.5zM221 -33q-24 0 -41 17t-17 40q0 25 17 42t41 17q25 0 42 -17t17 -42q0 -23 -17 -40t-42 -17z" />
    <glyph glyph-name="dv_Yya" unicode="&#x95f;" horiz-adv-x="631" 
d="M77 379q29 9 52.5 44.5t23.5 86.5q0 37 -19.5 64t-52.5 37h-78q-3 17 -6.5 34.5t-7.5 34.5h639l15 -69h-128v-627l-87 16v217q-25 -21 -60 -33.5t-81 -12.5q-90 0 -157.5 58t-67.5 133zM428 611h-233q16 -16 27 -43.5t11 -63.5q0 -47 -21.5 -92.5t-66.5 -70.5
q10 -37 49.5 -66t93.5 -31q63 0 101 36t39 99v232zM163 -33q-24 0 -41 17t-17 40q0 25 17 42t41 17q25 0 42 -17t17 -42q0 -23 -17 -40t-42 -17z" />
    <glyph glyph-name="dv_VocalicRr" unicode="&#x960;" horiz-adv-x="894" 
d="M651 -14q-5 8 -8 18.5t-3 21.5q0 79 55.5 123.5t55.5 81.5q0 25 -12.5 52.5t-46.5 72.5q-25 -35 -85 -60.5t-138 -25.5v-286l-87 16v231l-250 -138l-45 62l274 152q-59 68 -102 85.5t-81 17.5q-21 0 -48.5 -9t-53.5 -20l-33 70q34 17 80.5 24t59.5 7q44 0 94.5 -17
t104.5 -80v226h-379q-3 17 -6.5 34.5t-7.5 34.5h901l15 -69h-436v-272l27 2q65 1 102.5 26.5t50.5 46.5q-10 9 -17.5 25.5t-7.5 38.5q0 23 14.5 34.5t37.5 11.5q33 0 62.5 -20t29.5 -54q0 -12 -6 -23t-19 -24q46 -53 67 -93.5t21 -81.5q0 -60 -55 -96.5t-55 -66.5
q0 -22 16 -26.5t33 -4.5h25l-20 -62h-16q-17 0 -34 -7t-17 -23q0 -17 16.5 -24t33.5 -7h28q-6 -16 -11.5 -31.5t-10.5 -31.5h-24q-35 0 -70.5 19.5t-38.5 63.5q0 18 5 31t15 24z" />
    <glyph glyph-name="dv_VocalicLl" unicode="&#x961;" horiz-adv-x="868" 
d="M639 -6q-13 5 -25.5 22t-12.5 35q0 34 19.5 53t44.5 26v155q-2 57 -27.5 92.5t-74.5 35.5t-74.5 -39t-25.5 -101v-123l-83 18l-1 105q0 62 -26.5 99.5t-85.5 38.5q-45 0 -76 -32t-31 -72q0 -71 28.5 -134t79.5 -169l-70 -24q-49 96 -84.5 173t-35.5 161q0 67 56 119
t133 53q49 -1 88 -20t64 -53q24 35 61.5 54t83.5 19q29 0 55.5 -8.5t45.5 -24.5v159h-661l-15 68h875l15 -68h-127v-528h-27q-16 0 -33 -8t-17 -25t17 -24t33 -7h26l-22 -50q-25 0 -41.5 -8.5t-16.5 -24.5t13 -24.5t41 -8.5h26l-20 -54h-26q-36 0 -70 20t-34 67q0 18 12 34
t26 23z" />
    <glyph glyph-name="dv_MatraVocalicL" unicode="&#x962;" horiz-adv-x="0" 
d="M254 -143v-73l-66 15v58q-1 35 -18 49.5t-39 13.5q-17 1 -32.5 -13t-15.5 -31q0 -38 17.5 -76.5t48.5 -98.5l-62 -15q-29 56 -49.5 100.5t-20.5 93.5q0 40 33 70.5t79 31.5q28 0 55.5 -16.5t36.5 -39.5q10 22 37 39t54 17q50 0 82 -31t32 -71q0 -37 -21.5 -65.5
t-23.5 -54.5q-1 -9 6.5 -15t20.5 -6h11l-14 -52h-18q-21 0 -49 12t-28 40q0 43 23.5 73t23.5 64q0 21 -14.5 32.5t-32.5 11.5q-21 0 -38.5 -16t-17.5 -47z" />
    <glyph glyph-name="dv_MatraVocalicLl" unicode="&#x963;" horiz-adv-x="0" 
d="M382 -400q-30 0 -57 16t-27 54q0 16 7 28.5t18 19.5q-5 4 -7 11t-2 13q0 43 22 71.5t22 61.5q0 21 -14.5 33.5t-33.5 12.5q-22 0 -39 -16.5t-17 -46.5v-74l-66 16v58q0 34 -18.5 48.5t-39.5 14.5q-13 0 -30 -13t-17 -32q0 -38 17.5 -76t48.5 -98l-63 -16
q-28 57 -48.5 101.5t-20.5 92.5v6q2 37 34.5 66.5t77.5 29.5q28 0 55 -16t37 -39q10 22 37 38.5t54 16.5h7q47 -2 76.5 -32.5t29.5 -69.5q0 -40 -21.5 -68t-21.5 -56q1 -7 9.5 -11t19.5 -4h9q-4 -12 -7 -24.5t-7 -25.5h-14q-13 0 -24.5 -4.5t-11.5 -16.5q0 -13 12.5 -18.5
t26.5 -5.5h23q-5 -11 -9.5 -22.5t-9.5 -23.5h-17z" />
    <glyph glyph-name="dv_Danda" unicode="&#x964;" horiz-adv-x="367" 
d="M227 756v-772l-87 16v771z" />
    <glyph glyph-name="dv_DoubleDanda" unicode="&#x965;" horiz-adv-x="682" 
d="M542 756v-772l-87 16v771zM226 756l1 -772l-87 16v771z" />
    <glyph glyph-name="dv_Zero" unicode="&#x966;" horiz-adv-x="692" 
d="M347 57q-122 0 -202.5 83t-80.5 199q0 117 80 200t202 83t202 -83t80 -200q0 -116 -80 -199t-201 -83zM147 339q0 -90 56 -149t143 -59q88 0 143.5 59t55.5 149q0 91 -55.5 150t-143.5 59q-87 0 -143 -59t-56 -150z" />
    <glyph glyph-name="dv_One" unicode="&#x967;" horiz-adv-x="388" 
d="M54 286q0 7 0.5 15t0.5 16q25 22 53 42t53 42l13 11q-37 13 -72 49.5t-35 87.5q0 62 38 104t96 42q65 0 103.5 -40.5t38.5 -98.5q0 -47 -23.5 -95t-90.5 -98l-93 -74q0 -1 -0.5 -2t-0.5 -2l201 -282l-88 -21q-49 75 -97 151.5t-97 152.5zM205 620q-27 0 -41.5 -20
t-14.5 -50q0 -36 22 -60t52 -34q19 17 31 40t12 48q0 31 -16.5 53.5t-44.5 22.5z" />
    <glyph glyph-name="dv_Two" unicode="&#x968;" horiz-adv-x="509" 
d="M171 256h-39q-16 0 -25 10t-9 27q0 33 24.5 70.5t62.5 37.5q18 0 30 -24t20 -46q51 3 91.5 42.5t40.5 104.5q0 59 -34 102.5t-101 43.5q-51 0 -90 -23t-45 -28l-34 63q8 6 56 32.5t116 26.5q119 0 168.5 -73.5t49.5 -144.5q0 -87 -59.5 -144t-143.5 -70l175 -260l-83 -21
q-43 67 -85.5 136t-85.5 138z" />
    <glyph glyph-name="dv_Three" unicode="&#x969;" horiz-adv-x="520" 
d="M82 635q35 27 82 43.5t104 16.5q87 0 134.5 -47t47.5 -110q0 -46 -23 -83t-64 -50q49 -12 74.5 -55t25.5 -95q0 -72 -56 -119.5t-146 -53.5l-31 -2l91 -114l-56 -41l-127 165q-28 13 -57.5 40.5t-29.5 64.5q0 19 13.5 30.5t32.5 11.5q34 0 63 -23t39 -56q10 -2 20.5 -3
t20.5 -1q52 0 93 29t41 72q0 46 -32 82.5t-115 36.5h-79l-14 62h99q66 0 98 27t32 73q0 39 -29 63.5t-74 24.5q-49 0 -90 -16t-77 -44z" />
    <glyph glyph-name="dv_Four" unicode="&#x96a;" horiz-adv-x="706" 
d="M522 140q0 -71 -45 -114.5t-124 -43.5t-124.5 44t-45.5 114q0 54 34 116.5t85 127.5q-58 66 -126 132t-125 120l49 63q64 -62 130 -125.5t123 -128.5q57 65 122 128.5t130 125.5l50 -63q-57 -54 -125.5 -120t-126.5 -132q51 -65 85 -127.5t34 -116.5zM268 140
q0 -40 26 -62.5t59 -22.5t58.5 22.5t25.5 62.5q0 38 -24 84t-60 95q-37 -49 -61 -95t-24 -84z" />
    <glyph glyph-name="dv_Five" unicode="&#x96b;" horiz-adv-x="509" 
d="M256 67q26 -8 44 -10t35 -2q44 0 63 19.5t19 47.5q0 43 -13.5 78.5t-31.5 63.5q-15 -3 -31 -4.5t-32 -1.5q-96 0 -162.5 52t-66.5 163v207h85v-207q0 -84 42.5 -113.5t116.5 -29.5q-5 10 -8.5 20.5t-3.5 21.5q0 18 14.5 37t40.5 19q31 0 59.5 -20t28.5 -53q0 -13 -4 -26
t-17 -26q31 -42 45.5 -99t14.5 -88q-2 -52 -35 -92t-120 -40q-17 0 -46 3t-57 13q5 16 10.5 33.5t9.5 33.5z" />
    <glyph glyph-name="dv_Six" unicode="&#x96c;" horiz-adv-x="547" 
d="M513 -6l-68 -35l-64 119l-4 6t-3 7q-17 -8 -45.5 -9.5t-43.5 -1.5q-98 0 -158.5 50t-60.5 125q0 52 25 95t74 55q-42 13 -65 50t-23 83q0 64 48 110.5t135 46.5q56 0 103 -16.5t82 -43.5q-2 -18 -5 -35.5t-6 -35.5q-37 28 -77.5 44t-89.5 16q-44 0 -73 -24t-29 -64
q0 -46 31.5 -73t97.5 -27h93q3 -16 6 -31.5t7 -30.5h-100q-82 0 -114 -36.5t-32 -82.5q0 -43 40.5 -72t93.5 -29q14 0 27.5 1.5t25.5 5.5q-1 7 -2 14.5t-1 15.5q0 23 14.5 38t39.5 15q26 0 56.5 -18.5t30.5 -49.5q0 -16 -9.5 -32.5t-26.5 -32.5z" />
    <glyph glyph-name="dv_Seven" unicode="&#x96d;" horiz-adv-x="687" 
d="M532 460q-16 41 -44 67t-71 26t-74.5 -27t-31.5 -71t29 -72.5t78 -28.5q41 0 76.5 31t37.5 75zM552 356q-24 -34 -64.5 -53.5t-78.5 -19.5q-81 0 -131.5 47t-50.5 118q0 77 52 129t136 52q111 0 168.5 -96.5t57.5 -236.5q0 -128 -83.5 -221t-221.5 -93
q-148 0 -225.5 85.5t-77.5 236.5q22 0 43 -0.5t43 -0.5q0 -119 58 -182t164 -63q93 0 153.5 68.5t60.5 187.5q0 10 -1 20.5t-2 21.5z" />
    <glyph glyph-name="dv_Eight" unicode="&#x96e;" horiz-adv-x="571" 
d="M144 207q0 -61 40.5 -105t106.5 -44q46 0 94 30t48 144l75 -23q2 -66 -40 -146.5t-186 -80.5q-110 0 -168.5 65.5t-58.5 154.5q0 126 91 264.5t194 232.5l50 -64q-110 -101 -178 -215t-68 -213z" />
    <glyph glyph-name="dv_Nine" unicode="&#x96f;" horiz-adv-x="474" 
d="M248 619q-45 0 -74 -30t-29 -76q0 -21 1.5 -38t5.5 -31q16 -15 42 -21.5t54 -6.5q47 0 75 30.5t28 73.5q0 42 -27.5 70.5t-75.5 28.5zM248 349h-5q-12 0 -23.5 3t-21.5 8l42 -61q63 -92 90 -129t26 -86q0 -45 -32 -73t-82 -37l-13 64q23 7 37 18.5t14 29.5q0 28 -25.5 66
t-94.5 128q-47 62 -72 115.5t-25 107.5q0 74 49 132.5t136 58.5q89 0 138 -49.5t49 -118.5q0 -75 -52.5 -125.5t-134.5 -51.5z" />
    <glyph glyph-name="dv_Abbreviation" unicode="&#x970;" horiz-adv-x="569" 
d="M286 518q96 0 163.5 -68.5t67.5 -167.5q0 -97 -67.5 -165.5t-164.5 -68.5q-99 0 -165.5 69t-66.5 170q0 97 67 164t166 67zM285 119q65 0 110 47.5t45 117.5q0 69 -45 115.5t-110 46.5t-110 -46.5t-45 -115.5q0 -71 45 -118t110 -47z" />
    <glyph glyph-name="dv_Highspacedot" unicode="&#x971;" horiz-adv-x="197" 
d="M99 237q-25 0 -42 16.5t-17 41.5t17 42t42 17t41.5 -17t16.5 -42t-16.5 -41.5t-41.5 -16.5z" />
    <glyph glyph-name="dv_CandraA" unicode="&#x972;" horiz-adv-x="889" 
d="M882 937l59 -36q-37 -71 -91 -103t-121 -32t-121 32t-89 103l57 36q28 -54 68 -80.5t85 -26.5q43 0 83.5 25.5t69.5 81.5zM500 183q0 -85 -61 -141.5t-175 -56.5q-60 0 -111.5 16.5t-85.5 39.5l15 72q38 -27 84.5 -42.5t97.5 -15.5q62 0 105 31.5t43 94.5q0 64 -39.5 101
t-146.5 37h-71q-5 15 -10 30.5t-10 31.5h98q84 0 124 37.5t40 92.5q0 46 -29.5 79.5t-92.5 33.5q-51 0 -96.5 -18t-88.5 -49q-2 18 -5 36.5t-6 36.5q37 28 89.5 46.5t111.5 18.5q110 0 158 -55t48 -127q0 -40 -22 -74.5t-56 -56.5h277v229h-112l-17 69h328l16 -69h-129v-627
l-86 16v317h-263q37 -22 57.5 -56t20.5 -78z" />
    <glyph glyph-name="dv_Oe" unicode="&#x973;" horiz-adv-x="889" 
d="M500 183q0 -85 -61 -141.5t-175 -56.5q-60 0 -111.5 16.5t-85.5 39.5l15 72q38 -27 84.5 -42.5t97.5 -15.5q62 0 105 31.5t43 94.5q0 64 -39.5 101t-146.5 37h-71q-5 15 -10 30.5t-10 31.5h98q83 0 123.5 38t40.5 92q0 46 -29.5 79.5t-92.5 33.5q-51 0 -96.5 -18
t-88.5 -49q-2 18 -5 36.5t-6 36.5q37 28 89.5 46.5t111.5 18.5q110 0 158 -55t48 -127q0 -40 -22 -74.5t-56 -56.5h277v229h-112l-17 69h131v218l82 -16v-202h115l16 -69h-129v-627l-86 16v317h-263q37 -22 57.5 -56t20.5 -78z" />
    <glyph glyph-name="dv_Ooe" unicode="&#x974;" horiz-adv-x="1179" 
d="M685 0v318h-263q37 -22 58 -56.5t21 -78.5q0 -85 -61.5 -142t-175.5 -57q-60 0 -111 17t-86 40l15 72q39 -27 85 -42t97 -16q62 -1 105 31.5t43 94.5q0 64 -39.5 101t-146.5 37h-71l-19 62h97q84 0 124 37.5t40 92.5q0 46 -29.5 79.5t-92.5 33.5q-51 0 -96.5 -17.5
t-87.5 -49.5l-12 73q37 28 89.5 46.5t112.5 18.5q110 0 157.5 -55t47.5 -126q0 -40 -22 -75t-56 -57h277v230h-112l-16 68h418v219l82 -16v-203h118l15 -68h-127v-628l-88 16v612h-204v-628z" />
    <glyph glyph-name="dv_Aw" unicode="&#x975;" horiz-adv-x="1179" 
d="M823 791h82q19 -1 35 -2t29 -3q-7 16 -19 27t-34 13q-64 6 -86.5 40t-22.5 90v20l72 -16q0 -37 15.5 -60t45.5 -25q67 -4 92.5 -46t25.5 -102v-47h117q4 -17 7.5 -34.5t7.5 -34.5h-128v-627l-87 16v611h-204v-627l-86 16v317h-263q37 -22 57.5 -56t20.5 -78
q0 -85 -61 -141.5t-175 -56.5q-60 0 -111.5 16.5t-85.5 39.5l15 72q38 -27 84.5 -42.5t97.5 -15.5q62 0 105 31.5t43 94.5q0 64 -39.5 101t-146.5 37h-71q-5 15 -10 30.5t-10 31.5h98q83 0 123.5 38t40.5 92q0 46 -29.5 79.5t-92.5 33.5q-51 0 -96.5 -18t-88.5 -49
q-2 18 -5 36.5t-6 36.5q37 28 89.5 46.5t111.5 18.5q110 0 158 -55t48 -127q0 -40 -22 -74.5t-56 -56.5h277v229h-112l-17 69h425q-1 27 -11 36t-48 9h-94q-80 0 -127.5 39.5t-47.5 100.5v19l71 -15q0 -37 28.5 -57.5t70.5 -20.5z" />
    <glyph glyph-name="dv_Ue" unicode="&#x976;" horiz-adv-x="889" 
d="M500 183q0 -85 -61 -141.5t-175 -56.5q-60 0 -111.5 16.5t-85.5 39.5l15 72q38 -27 84.5 -42.5t97.5 -15.5q62 0 105 31.5t43 94.5q0 64 -39.5 101t-146.5 37h-71q-5 15 -10 30.5t-10 31.5h98q84 0 124 37.5t40 92.5q0 46 -29.5 79.5t-92.5 33.5q-51 0 -96.5 -18
t-88.5 -49q-2 18 -5 36.5t-6 36.5q37 28 89.5 46.5t111.5 18.5q110 0 158 -55t48 -127q0 -40 -22 -74.5t-56 -56.5h277v229h-112l-17 69h328l16 -69h-129v-627l-86 16v317h-263q37 -22 57.5 -56t20.5 -78zM664 -42l59 -36q-37 -70 -91 -102t-120 -32q-67 0 -121.5 32
t-90.5 102l59 36q27 -54 67 -80.5t86 -26.5q41 0 81.5 26t70.5 81z" />
    <glyph glyph-name="dv_Uue" unicode="&#x977;" horiz-adv-x="889" 
d="M500 183q0 -85 -61 -141.5t-175 -56.5q-60 0 -111.5 16.5t-85.5 39.5l15 72q38 -27 84.5 -42.5t97.5 -15.5q62 0 105 31.5t43 94.5q0 64 -39.5 101t-146.5 37h-71q-5 15 -10 30.5t-10 31.5h98q84 0 124 37.5t40 92.5q0 46 -29.5 79.5t-92.5 33.5q-51 0 -96.5 -18
t-88.5 -49q-2 18 -5 36.5t-6 36.5q37 28 89.5 46.5t111.5 18.5q110 0 158 -55t48 -127q0 -40 -22 -74.5t-56 -56.5h277v229h-112l-17 69h328l16 -69h-129v-627l-86 16v317h-263q37 -22 57.5 -56t20.5 -78zM644 -41l58 -35q-37 -69 -100 -92.5t-107 -23.5q-46 0 -108 23.5
t-99 92.5q15 8 29.5 17t28.5 18q25 -53 71.5 -71.5t77.5 -18.5q30 0 75.5 18t73.5 72zM695 -140l57 -36q-46 -69 -116.5 -95t-140.5 -26t-141.5 27t-121.5 93q14 9 28.5 18.5t29.5 17.5q35 -46 93 -70t112 -24q52 0 108 22t92 73z" />
    <glyph glyph-name="dv_MarwariDda" unicode="&#x978;" horiz-adv-x="621" 
d="M205 611v-260h124q96 0 156.5 -55t60.5 -155v-157q-13 3 -43 8t-43 8v141q0 64 -34 101.5t-102 37.5h-119q0 -42 -10 -61t-25 -19q-47 0 -83 35t-36 74q0 14 19 28t50 14v260h-117q-3 17 -6.5 34.5t-7.5 34.5h627q4 -17 8 -34.5t8 -34.5h-427z" />
    <glyph glyph-name="dv_Zha" unicode="&#x979;" horiz-adv-x="764" 
d="M562 391h-173q19 -22 30.5 -52t11.5 -67q0 -99 -66 -147.5t-157 -48.5q-61 0 -111.5 18.5t-84.5 41.5l16 75q38 -28 83.5 -46t94.5 -18q60 0 100 34.5t40 89.5q0 56 -36 88t-99 32h-55q-4 18 -8.5 35.5t-8.5 35.5h423v149h-559q-3 17 -6.5 34.5t-7.5 34.5h771l15 -69
h-128v-627l-85 16v391zM107 -80q-24 0 -41 17t-17 42q0 24 17 41t41 17q25 0 42.5 -17t17.5 -41q0 -25 -17.5 -42t-42.5 -17zM311 -80q-24 0 -41.5 17t-17.5 42q0 24 17.5 41t41.5 17t41 -17t17 -41q0 -25 -17 -42t-41 -17zM210 -190q-25 0 -42 16.5t-17 41.5q0 24 17 41.5
t42 17.5q24 0 41 -17.5t17 -41.5q0 -25 -17 -41.5t-41 -16.5z" />
    <glyph glyph-name="dv_HeavyYa" unicode="&#x97a;" horiz-adv-x="625" 
d="M78 379q28 9 51.5 44.5t23.5 86.5q0 37 -19 64t-52 37h-74l-15 69h635l16 -69h-129v-627l-86 16v217q-25 -21 -60 -33.5t-81 -12.5q-90 0 -158 58t-68 133zM429 611h-209q52 -60 104.5 -120.5t103.5 -120.5q0 7 0.5 14t0.5 14v213zM145 341q11 -37 50.5 -66t93.5 -31
q42 0 73 16t48 47l-177 209q0 -50 -19.5 -98.5t-68.5 -76.5z" />
    <glyph glyph-name="dv_Gga" unicode="&#x97b;" horiz-adv-x="632" 
d="M430 0v611h-219v-389q0 -23 -9 -37t-27 -14q-48 0 -83.5 38.5t-35.5 74.5q0 27 21 33.5t47 6.5v287h-121q-3 17 -6.5 34.5t-7.5 34.5h639l15 -69h-127v-627zM536 -150h-435l-15 67h435z" />
    <glyph glyph-name="dv_Jja" unicode="&#x97c;" horiz-adv-x="764" 
d="M562 391h-173q19 -22 30.5 -52t11.5 -67q0 -99 -66 -147.5t-157 -48.5q-61 0 -111.5 18.5t-84.5 41.5l16 75q38 -28 83.5 -46t94.5 -18q60 0 100 34.5t40 89.5q0 56 -36 88t-99 32h-55q-4 18 -8.5 35.5t-8.5 35.5h423v149h-559q-3 17 -6.5 34.5t-7.5 34.5h771l15 -69
h-128v-627l-85 16v391zM649 -150h-585l-15 67h584z" />
    <glyph glyph-name="dv_GlottalStop" unicode="&#x97d;" horiz-adv-x="551" 
d="M280 695q109 0 163.5 -60t54.5 -139q0 -66 -51 -134t-145 -102v-245l-87 27v262q84 26 138 77.5t54 113.5q0 60 -35.5 92.5t-95.5 32.5q-57 0 -105.5 -19.5t-93.5 -50.5l-11 79q43 28 95.5 47t118.5 19z" />
    <glyph glyph-name="dv_Ddda" unicode="&#x97e;" horiz-adv-x="532" 
d="M76 110q39 -27 91 -42t104 -16q62 0 98 28t36 68q0 41 -28 68t-74 27h-93q-60 0 -110 38.5t-50 98.5q0 64 46 100.5t112 36.5h145v94h-350q-3 17 -6.5 34.5t-7.5 34.5h538q4 -17 7.5 -34.5t7.5 -34.5h-105v-166h-228q-31 0 -53 -19t-22 -46q0 -28 21.5 -47t55.5 -19h83
q91 0 145 -42t54 -125q0 -66 -57.5 -115.5t-162.5 -49.5q-60 0 -119.5 16.5t-92.5 38.5zM487 -150h-413l-16 67h413z" />
    <glyph glyph-name="dv_Bba" unicode="&#x97f;" horiz-adv-x="617" 
d="M414 0v144q-23 -20 -58.5 -37t-79.5 -17q-94 0 -159.5 57t-65.5 151q0 88 62 148.5t163 60.5q44 0 79.5 -16.5t58.5 -37.5v158h-411q-3 17 -6.5 34.5t-7.5 34.5h624l15 -69h-127v-627zM414 351q-19 26 -51 55.5t-90 29.5q-17 0 -33.5 -5t-30.5 -14q44 -51 89 -102.5
t89 -102.5q8 8 15 17t12 17v105zM168 383q-13 -17 -20 -38t-7 -46q0 -60 38 -99t94 -39q22 0 40.5 5.5t33.5 12.5zM529 -150h-443q-4 17 -7.5 34t-7.5 33h442q4 -16 8 -33z" />
    <glyph glyph-name="uni200C" unicode="&#x200c;" horiz-adv-x="0" 
d="M-30 1237h60v-1305h-60v1305z" />
    <glyph glyph-name="uni200D" unicode="&#x200d;" horiz-adv-x="0" 
d="M74 1320l40 -40l-74 -74l74 -74l-39 -39l-45 44v-1205h-60v1204l-44 -43l-39 39l74 74l-74 74l40 40l73 -74z" />
    <glyph glyph-name="endash" unicode="&#x2013;" horiz-adv-x="412" 
d="M396 242h-371l-9 63h371z" />
    <glyph glyph-name="emdash" unicode="&#x2014;" horiz-adv-x="509" 
d="M494 242h-469l-9 63h469z" />
    <glyph glyph-name="quoteleft" unicode="&#x2018;" horiz-adv-x="135" 
d="M61 484q-24 0 -39 17.5t-15 45.5q0 48 29.5 95.5t71.5 69.5l22 -38q-25 -17 -41.5 -35.5t-20.5 -46.5q20 -1 33.5 -17.5t13.5 -36.5q0 -21 -15.5 -37.5t-38.5 -16.5z" />
    <glyph glyph-name="quoteright" unicode="&#x2019;" horiz-adv-x="135" 
d="M74 712q22 0 38 -17.5t16 -46.5q0 -47 -29.5 -94.5t-72.5 -69.5l-20 37q24 18 39.5 36.5t19.5 46.5q-19 1 -32.5 17t-13.5 36q0 22 16 38.5t39 16.5z" />
    <glyph glyph-name="quotesinglbase" unicode="&#x201a;" horiz-adv-x="135" 
d="M74 107q22 0 38 -17t16 -45q0 -49 -29.5 -96t-72.5 -69l-20 38q24 17 39.5 36t19.5 47q-19 1 -32.5 17t-13.5 36q0 21 16 37t39 16z" />
    <glyph glyph-name="quotedblleft" unicode="&#x201c;" horiz-adv-x="291" 
d="M61 484q-24 0 -39 17.5t-15 45.5q0 48 29.5 95.5t71.5 69.5l22 -38q-25 -17 -41.5 -35.5t-20.5 -46.5q20 -1 33.5 -17.5t13.5 -36.5q0 -21 -15.5 -37.5t-38.5 -16.5zM217 484q-22 0 -38 17.5t-16 45.5q0 48 29.5 95.5t72.5 69.5l20 -38q-24 -17 -40.5 -35.5t-18.5 -46.5
q19 -1 32.5 -17.5t13.5 -36.5q0 -21 -16.5 -37.5t-38.5 -16.5z" />
    <glyph glyph-name="quotedblright" unicode="&#x201d;" horiz-adv-x="291" 
d="M230 712q22 0 38 -17.5t16 -46.5q0 -47 -29.5 -94.5t-71.5 -69.5l-21 37q25 18 40.5 36.5t19.5 46.5q-19 1 -32.5 17t-13.5 36q0 22 15.5 38.5t38.5 16.5zM74 712q22 0 38 -17.5t16 -46.5q0 -47 -29.5 -94.5t-72.5 -69.5l-20 37q24 18 39.5 36.5t19.5 46.5
q-19 1 -32.5 17t-13.5 36q0 22 16 38.5t39 16.5z" />
    <glyph glyph-name="quotedblbase" unicode="&#x201e;" horiz-adv-x="291" 
d="M74 108q22 0 38 -17.5t16 -45.5q0 -48 -29.5 -95.5t-72.5 -69.5l-20 38q24 17 39.5 36t19.5 47q-19 1 -32.5 17t-13.5 36q0 22 16 38t39 16zM230 107q22 0 38 -17t16 -45q0 -49 -29.5 -96t-71.5 -69l-21 38q25 17 40.5 36t19.5 47q-19 1 -32.5 17t-13.5 36q0 21 15.5 37
t38.5 16z" />
    <glyph glyph-name="dagger" unicode="&#x2020;" horiz-adv-x="365" 
d="M226 780v-155h103q4 -17 9.5 -34t9.5 -33h-122l-11 -562l-64 4l-10 558h-105q-4 16 -9.5 33t-9.5 34h124v158z" />
    <glyph glyph-name="daggerdbl" unicode="&#x2021;" horiz-adv-x="399" 
d="M154 -6l5 184h-109l-19 67h125l3 281h-109l-19 68h130l-5 189l89 -3l-5 -186h109l18 -68h-125l-2 -281h109l18 -67h-129l5 -177z" />
    <glyph glyph-name="bullet" unicode="&#x2022;" horiz-adv-x="224" 
d="M112 239q-37 0 -63 26t-26 62q0 37 26 63t63 26t63 -26t26 -63q0 -36 -26 -62t-63 -26z" />
    <glyph glyph-name="ellipsis" unicode="&#x2026;" horiz-adv-x="433" 
d="M368 101q21 0 35.5 -14.5t14.5 -36.5q0 -21 -14.5 -35.5t-35.5 -14.5t-36 14.5t-15 35.5q0 22 15 36.5t36 14.5zM219 101q21 0 35.5 -14.5t14.5 -36.5q0 -21 -14.5 -35.5t-35.5 -14.5q-22 0 -37 14.5t-15 35.5q0 22 15 36.5t37 14.5zM65 101q22 0 36.5 -14.5t14.5 -36.5
q0 -21 -14.5 -35.5t-36.5 -14.5q-21 0 -36 14.5t-15 35.5q0 22 15 36.5t36 14.5z" />
    <glyph glyph-name="perthousand" unicode="&#x2030;" horiz-adv-x="1235" 
d="M621 706l-307 -710l-76 4l305 710zM31 532q0 78 46.5 124t111.5 46q69 0 114 -44.5t45 -125.5q0 -78 -46.5 -123.5t-111.5 -45.5q-69 0 -114 44t-45 125zM105 532q0 -56 25.5 -82t59.5 -26q30 0 57 25t27 83q0 57 -25.5 82.5t-59.5 25.5q-30 0 -57 -25t-27 -83zM888 169
q0 78 46 123.5t112 45.5q69 0 113.5 -44.5t44.5 -124.5q0 -78 -46.5 -123.5t-111.5 -45.5q-69 0 -113.5 44t-44.5 125zM512 169q0 78 46.5 123.5t112.5 45.5q68 0 112.5 -44.5t44.5 -124.5q0 -78 -46 -123.5t-111 -45.5q-69 0 -114 44t-45 125zM961 169q0 -57 25.5 -82.5
t59.5 -25.5q31 0 57.5 25.5t26.5 82.5q0 56 -25.5 82t-58.5 26q-30 0 -57.5 -25t-27.5 -83zM587 169q0 -57 25 -82.5t59 -25.5q30 0 56.5 25.5t26.5 82.5q0 56 -25 82t-58 26q-31 0 -57.5 -25t-26.5 -83z" />
    <glyph glyph-name="guilsinglleft" unicode="&#x2039;" horiz-adv-x="208" 
d="M28 221v48q37 34 73 69.5t72 69.5q5 -14 10.5 -28.5t11.5 -28.5l-102 -106q25 -27 51 -53.5t51 -53.5q-6 -13 -11.5 -27.5t-10.5 -27.5z" />
    <glyph glyph-name="guilsinglright" unicode="&#x203a;" horiz-adv-x="208" 
d="M34 408l145 -139v-48l-145 -138l-23 56l104 106l-104 106z" />
    <glyph glyph-name="fraction" unicode="&#x2044;" horiz-adv-x="394" 
d="M388 706l-306 -710l-76 4l305 710z" />
    <glyph glyph-name="Euro" unicode="&#x20ac;" horiz-adv-x="595" 
d="M476 218h-255q17 -72 60 -118t123 -46q43 0 73.5 9t58.5 22l30 -60q-31 -16 -72 -27.5t-87 -11.5q-123 0 -185 66.5t-81 165.5h-98l-9 61h99q-2 13 -3 27.5t-1 29.5q0 16 1.5 32t3.5 30h-91l-9 61h109q22 103 87.5 169t181.5 66q39 0 80 -9t73 -30l-25 -58
q-34 13 -57.5 21t-68.5 8q-75 0 -123 -45.5t-67 -121.5h244l8 -61h-264q-1 -14 -2.5 -29.5t-1.5 -31.5q0 -14 1 -29.5t2 -28.5h257z" />
    <glyph glyph-name="Turkishlira" unicode="&#x20ba;" horiz-adv-x="530" 
d="M365 503l11 -59q-47 -16 -95 -33t-95 -34v-308q86 0 158.5 77t72.5 181h81q0 -143 -99 -235t-224 -92h-68v349q-19 -6 -38 -13t-38 -13l-10 58l86 31v50q-19 -6 -38 -12.5t-38 -13.5l-10 59l86 30v170l79 11v-153q44 16 89 32t90 31l11 -58l-190 -67v-51q44 15 89 31z
" />
    <glyph glyph-name="Ruble" unicode="&#x20bd;" horiz-adv-x="601" 
d="M469 147h-274v-147h-80v147h-65l-7 60h72v58h-71v66h71v349h185q108 0 179.5 -46t71.5 -159q-1 -111 -77.5 -160.5t-182.5 -49.5h-96v-58h267zM301 613h-106v-282h98q75 0 125 32t53 110q0 83 -46 111.5t-124 28.5z" />
    <glyph glyph-name="litre" unicode="&#x2113;" horiz-adv-x="396" 
d="M48 177q-5 16 -9.5 32t-9.5 32q16 12 33.5 25.5t34.5 28.5v266q0 67 38.5 104t95.5 37q54 0 89 -35.5t35 -97.5q0 -69 -52.5 -149.5t-125.5 -146.5v-109q0 -46 11 -77t57 -31q13 0 29.5 4t36.5 14l27 -49q-21 -19 -47.5 -27.5t-53.5 -8.5q-82 0 -111 45.5t-29 119.5v56
q-11 -10 -23.5 -18t-25.5 -15zM276 566q0 39 -13.5 53.5t-32.5 14.5q-20 -1 -36.5 -16t-16.5 -58v-190q41 46 70 96.5t29 99.5z" />
    <glyph glyph-name="trademark" unicode="&#x2122;" horiz-adv-x="744" 
d="M310 629h-117v-324h-63v324h-115v51h290q1 -13 2.5 -25.5t2.5 -25.5zM539 408q-4 -1 -8 -1.5t-8 -1.5q-25 34 -49.5 68.5t-48.5 68.5v-237h-63v375h27l141 -189l135 189h27v-375h-61v235z" />
    <glyph glyph-name="Ohm" unicode="&#x2126;" horiz-adv-x="765" 
d="M613 339q0 127 -64.5 207t-165.5 80t-166 -80t-65 -207q0 -81 34 -162.5t91 -112.5l3 -64h-207l-5 64h110q-51 42 -80 119t-29 157q0 151 83 252t231 104q147 -3 230.5 -104t83.5 -252q0 -80 -29.5 -157t-81.5 -119h112l-6 -64h-208l4 64q57 31 91 112.5t34 162.5z" />
    <glyph glyph-name="estimated" unicode="&#x212e;" horiz-adv-x="521" 
d="M477 230h-351q3 -77 41 -127.5t120 -50.5q48 0 79 10.5t59 23.5l25 -58q-31 -21 -81.5 -30.5t-79.5 -9.5q-121 0 -183 71.5t-62 184.5q0 110 59.5 182t166.5 72q113 0 160 -79t47 -189zM399 284q-7 65 -38 106t-94 41t-97.5 -41t-42.5 -106h272z" />
    <glyph glyph-name="partialdiff" unicode="&#x2202;" horiz-adv-x="545" 
d="M484 271q0 -136 -67.5 -203.5t-166.5 -67.5q-90 0 -146.5 63.5t-56.5 143.5q0 78 55 139t150 61q43 0 79.5 -17t63.5 -41q-19 84 -79 153t-147 89l35 49q128 -26 204 -142.5t76 -226.5zM406 250q-19 35 -59.5 62t-94.5 27q-60 0 -94.5 -41.5t-34.5 -96.5q0 -53 35 -94
t95 -41q74 0 111.5 50t41.5 134z" />
    <glyph glyph-name="Delta" unicode="&#x2206;" horiz-adv-x="601" 
d="M334 680l261 -668l-79 -12h-510l251 680h77zM295 575l-189 -512h386z" />
    <glyph glyph-name="product" unicode="&#x220f;" horiz-adv-x="596" 
d="M80 680h436v-680h-76v621h-285v-621h-75v680z" />
    <glyph glyph-name="summation" unicode="&#x2211;" horiz-adv-x="472" 
d="M410 620h-290l180 -259v-33l-181 -266h310q2 -16 4 -31t5 -31h-402v62l196 282q-48 69 -97 138l-98 138v60h364z" />
    <glyph glyph-name="minus" unicode="&#x2212;" horiz-adv-x="449" 
d="M433 242h-409l-8 63h407z" />
    <glyph glyph-name="divisionslash" unicode="&#x2215;" horiz-adv-x="394" 
d="M388 706l-306 -710l-76 4l305 710z" />
    <glyph glyph-name="bulletmath" unicode="&#x2219;" horiz-adv-x="224" 
d="M112 239q-37 0 -63 26t-26 62q0 37 26 63t63 26t63 -26t26 -63q0 -36 -26 -62t-63 -26z" />
    <glyph glyph-name="radical" unicode="&#x221a;" horiz-adv-x="550" 
d="M544 706l-291 -710l-81 4l-166 317l79 4l128 -241l257 630z" />
    <glyph glyph-name="infinity" unicode="&#x221e;" horiz-adv-x="861" 
d="M733 260q0 54 -34.5 94t-96.5 40q-57 0 -90.5 -49t-47.5 -100q-3 -7 -6 -16.5t-5 -16.5q24 -43 61.5 -71.5t86.5 -29.5q63 0 97.5 44.5t34.5 104.5zM128 245q0 -54 35 -94t95 -40q57 0 91 49t48 100l11 33q-23 43 -61.5 71t-87.5 29q-61 1 -96 -43.5t-35 -104.5zM256 460
q57 0 102.5 -29t79.5 -74q28 43 67.5 73.5t96.5 30.5q92 0 148 -56.5t56 -146.5t-56 -151.5t-146 -61.5q-56 0 -102 28t-82 77q-26 -43 -65.5 -74.5t-96.5 -31.5q-91 0 -147.5 56t-56.5 146t56 152t146 62z" />
    <glyph glyph-name="integral" unicode="&#x222b;" horiz-adv-x="352" 
d="M216 -30q0 -68 -36 -108.5t-99 -40.5q-20 0 -40.5 5.5t-31.5 11.5l18 63q8 -4 20.5 -6.5t22.5 -2.5q37 0 52 23t15 59v661q0 69 35.5 108.5t97.5 39.5q22 0 42.5 -5t31.5 -12l-19 -62q-8 3 -20.5 7t-22.5 4q-37 0 -51.5 -24t-14.5 -61v-660z" />
    <glyph glyph-name="approxequal" unicode="&#x2248;" horiz-adv-x="481" 
d="M403 398l60 -15q0 -58 -43.5 -75t-81.5 -17q-36 0 -97 22t-107 22q-12 0 -34 -8.5t-24 -32.5l-58 14q0 60 44.5 76t82.5 16q40 0 102.5 -22t102.5 -22q13 1 32.5 9t20.5 33zM403 218l60 -15q0 -59 -43.5 -75t-81.5 -16q-36 0 -97 22t-107 22q-12 0 -34 -9t-24 -32l-58 13
q0 60 44.5 76.5t82.5 16.5q40 0 102.5 -22.5t102.5 -22.5q13 1 32.5 9t20.5 33z" />
    <glyph glyph-name="notequal" unicode="&#x2260;" horiz-adv-x="476" 
d="M386 517l-60 -137h125l8 -61h-160l-57 -127h209l8 -61h-244l-65 -146l-69 5l63 141h-118l-9 61h154l56 127h-201l-9 61h238l62 140z" />
    <glyph glyph-name="lessequal" unicode="&#x2264;" horiz-adv-x="324" 
d="M274 105l-261 160v56l261 160l22 -61l-205 -126l205 -128zM293 0h-272l-8 60h274z" />
    <glyph glyph-name="greaterequal" unicode="&#x2265;" horiz-adv-x="324" 
d="M312 265l-262 -160l-23 61l205 128l-205 126l23 61l262 -160v-56zM308 0h-272l-9 60h273z" />
    <glyph glyph-name="lozenge" unicode="&#x25ca;" horiz-adv-x="532" 
d="M251 0l-223 288v22l223 289h31l222 -289v-22l-222 -288h-31zM105 299l160 -212l163 212l-163 213z" />
    <glyph glyph-name="uni25CC" unicode="&#x25cc;" horiz-adv-x="672" 
d="M335 510q-14 0 -23 9t-9 23t9 23.5t23 9.5t23.5 -9.5t9.5 -23.5t-9.5 -23t-23.5 -9zM435 493q-14 0 -23 9t-9 23t9 23.5t23 9.5t23.5 -9.5t9.5 -23.5t-9.5 -23t-23.5 -9zM237 558q14 0 23 -9.5t9 -23.5t-9 -23t-23 -9t-23.5 9t-9.5 23t9.5 23.5t23.5 9.5zM520 437
q-14 0 -23 9t-9 23t9 23.5t23 9.5t23.5 -9.5t9.5 -23.5t-9.5 -23t-23.5 -9zM152 502q14 0 23 -9.5t9 -23.5t-9 -23t-23 -9t-23.5 9t-9.5 23t9.5 23.5t23.5 9.5zM573 349q-14 0 -23 9t-9 23t9 23.5t23 9.5t23.5 -9.5t9.5 -23.5t-9.5 -23t-23.5 -9zM99 414q14 0 23 -9.5
t9 -23.5t-9 -23t-23 -9t-23.5 9t-9.5 23t9.5 23.5t23.5 9.5zM589 254q-14 0 -23 9t-9 23t9 23.5t23 9.5t23.5 -9.5t9.5 -23.5t-9.5 -23t-23.5 -9zM83 319q14 0 23 -9.5t9 -23.5t-9 -23t-23 -9t-23.5 9t-9.5 23t9.5 23.5t23.5 9.5zM573 161q-14 0 -23 9t-9 23t9 23.5t23 9.5
t23.5 -9.5t9.5 -23.5t-9.5 -23t-23.5 -9zM99 226q14 0 23 -9.5t9 -23.5t-9 -23t-23 -9t-23.5 9t-9.5 23t9.5 23.5t23.5 9.5zM521 72q-14 0 -23 9t-9 23t9 23.5t23 9.5t23.5 -9.5t9.5 -23.5t-9.5 -23t-23.5 -9zM151 137q14 0 23 -9.5t9 -23.5t-9 -23t-23 -9t-23.5 9t-9.5 23
t9.5 23.5t23.5 9.5zM237 82q14 0 23 -9.5t9 -23.5t-9 -23t-23 -9t-23.5 9t-9.5 23t9.5 23.5t23.5 9.5zM435 17q-14 0 -23 9t-9 23t9 23.5t23 9.5t23.5 -9.5t9.5 -23.5t-9.5 -23t-23.5 -9zM335 0q-14 0 -23 9t-9 23t9 23.5t23 9.5t23.5 -9.5t9.5 -23.5t-9.5 -23t-23.5 -9z
" />
    <glyph glyph-name="commaaccent" unicode="&#xf6c3;" horiz-adv-x="149" 
d="M79 -21q23 0 39 -17t16 -46q0 -48 -29 -92t-69 -64l-21 38q22 13 37.5 30.5t18.5 42.5q-19 1 -32.5 17.5t-13.5 35.5q0 22 16 38.5t38 16.5z" />
    <glyph glyph-name="fi" unicode="&#xfb01;" horiz-adv-x="547" 
d="M17 0zM91 552q0 69 36 109.5t99 40.5q21 0 42 -6t32 -12l-18 -63q-8 4 -21 7t-23 3q-37 0 -52.5 -23t-15.5 -60v-73h89l26 -61h-115v-414h-79v414h-73l-1 61h74v77zM428 581q-23 0 -38 15.5t-15 38.5q-1 22 14.5 37.5t38.5 15.5q22 0 38.5 -15.5t16.5 -37.5
q0 -23 -16.5 -38.5t-38.5 -15.5zM389 0v485h80v-485h-80z" />
    <glyph glyph-name="fl" unicode="&#xfb02;" horiz-adv-x="549" 
d="M17 0zM91 552q0 69 36 109.5t99 40.5q21 0 42 -6t32 -12l-18 -63q-8 4 -21 7t-23 3q-37 0 -52.5 -23t-15.5 -60v-73h89l26 -61h-115v-414h-79v414h-73l-1 61h74v77zM389 0v695l79 11v-706h-79z" />
    <glyph glyph-name="grave.case" horiz-adv-x="178" 
d="M16 895h87l60 -156h-60z" />
    <glyph glyph-name="dieresis.case" horiz-adv-x="295" 
d="M65 861q20 0 34 -14.5t14 -33.5q0 -21 -14 -35t-34 -14t-34.5 14t-14.5 35q0 19 14.5 33.5t34.5 14.5zM230 861q21 0 34.5 -14.5t13.5 -33.5q0 -21 -13.5 -35t-34.5 -14q-20 0 -34.5 14t-14.5 35q0 19 14.5 33.5t34.5 14.5z" />
    <glyph glyph-name="macron.case" horiz-adv-x="277" 
d="M16 846h246v-63h-246v63z" />
    <glyph glyph-name="acute.case" horiz-adv-x="178" 
d="M76 895h87l-88 -156h-59z" />
    <glyph glyph-name="circumflex.case" horiz-adv-x="328" 
d="M92 739h-76l117 156h62l118 -156h-76l-72 98z" />
    <glyph glyph-name="caron.case" horiz-adv-x="328" 
d="M16 895h76l73 -98l72 98h76l-118 -156h-62z" />
    <glyph glyph-name="breve.case" horiz-adv-x="300" 
d="M284 886q0 -53 -31.5 -95t-102.5 -43q-71 1 -102.5 43t-31.5 95h57q0 -27 18.5 -53t58.5 -26q38 0 57.5 26t19.5 53h57z" />
    <glyph glyph-name="dotaccent.case" horiz-adv-x="140" 
d="M70 871q22 0 38 -16.5t16 -38.5q0 -23 -16 -38.5t-38 -15.5t-38 15.5t-16 38.5q0 22 16 38.5t38 16.5z" />
    <glyph glyph-name="ring.case" horiz-adv-x="218" 
d="M109 917q38 0 65.5 -25.5t27.5 -62.5t-27.5 -61t-65.5 -24q-37 0 -65 24t-28 61t28 62.5t65 25.5zM109 788q18 0 30.5 12t12.5 29q0 18 -12.5 30.5t-30.5 12.5q-17 0 -30 -12.5t-13 -30.5q0 -17 13 -29t30 -12z" />
    <glyph glyph-name="tilde.case" horiz-adv-x="325" 
d="M254 853h54q0 -56 -26 -77.5t-63 -21.5q-35 0 -60 22.5t-51 22.5q-13 0 -24 -10.5t-12 -29.5h-55v7q0 51 27 71t62 20q40 0 63 -22t49 -22q13 0 23.5 10t12.5 30z" />
    <glyph glyph-name="hungarumlaut.case" horiz-adv-x="314" 
d="M215 895h83l-87 -156h-55zM76 895h82l-88 -156h-54z" />
    <glyph glyph-name="dv_La.MAR" horiz-adv-x="832" 
d="M671 307q0 40 -30.5 72t-76.5 32q-49 0 -75 -38t-26 -100v-123l-83 18l-1 105q0 62 -26.5 99.5t-85.5 38.5q-45 0 -76 -32t-31 -72q0 -71 28.5 -134t79.5 -169l-70 -24q-49 96 -84.5 173t-35.5 161q0 67 56 119t133 53q49 -1 88 -20t64 -53q18 27 44.5 44t58.5 24v131
h-518l-15 68h840l15 -68h-236v-133q62 -14 103 -61t41 -104q0 -84 -35 -161t-84 -173l-70 24q52 106 80 169t28 134z" />
    <glyph glyph-name="dv_Sha.MAR" horiz-adv-x="810" 
d="M606 0v611h-333v-60q90 -10 132 -63t42 -116q0 -84 -57 -126t-144 -56l132 -188l-83 -22q-32 50 -64 101l-64 102h-39q-17 0 -27.5 11t-10.5 27q0 35 27.5 70.5t62.5 35.5q12 0 21 -10t16 -26l14 -33q51 3 91.5 29.5t40.5 81.5q0 47 -34.5 81t-99.5 34q-50 0 -88 -23
t-44 -28l-34 63q7 6 40 26t84 28v61h-184q-3 17 -6.5 34.5t-7.5 34.5h816l15 -69h-127v-627z" />
    <glyph glyph-name="dv_oldJha" horiz-adv-x="1024" 
d="M111 578q0 -21 14.5 -33t33.5 -12q12 0 26 5.5t24 14.5q-1 33 -14 52.5t-38 19.5q-19 0 -32.5 -12.5t-13.5 -34.5zM528 0v255h-238q0 -38 -7.5 -61t-24.5 -23q-47 0 -83 35.5t-36 74.5q0 12 19 26.5t50 14.5v162q-13 -7 -28 -10.5t-25 -3.5q-54 0 -86.5 33t-32.5 82
t36.5 79.5t85.5 30.5q63 0 99 -45t36 -120v-208h235v289h-122l-16 69h629l16 -69h-420v-164q22 22 58.5 41t83.5 19q101 0 162.5 -60.5t61.5 -148.5q0 -96 -66.5 -151.5t-150.5 -55.5l-15 71q61 0 101.5 38.5t40.5 98.5t-39.5 98t-92.5 38q-61 0 -94 -32.5t-50 -57.5v-361z
" />
    <glyph glyph-name="dv_KSsa" horiz-adv-x="767" 
d="M248 619q-24 0 -40.5 -16.5t-16.5 -39.5q0 -28 17.5 -50.5t45.5 -41.5q23 22 38 44t15 44q0 25 -18.5 42.5t-40.5 17.5zM565 0v339h-42q-63 0 -132.5 11.5t-128.5 36.5q-46 -37 -84.5 -74t-38.5 -82q0 -51 42 -73.5t83 -22.5q10 0 22 1t23 2q-2 7 -3 15.5t-1 18.5
q0 20 11.5 34.5t31.5 16.5q42 0 66.5 -25.5t24.5 -54.5q0 -10 -9 -25t-21 -26q17 -30 35 -60t35 -58l-67 -35q-17 33 -35 65l-36 64l-11 -2q-16 -3 -33 -5t-33 -2q-76 0 -143 39.5t-67 131.5q0 59 44.5 106t94.5 87q-38 26 -61.5 60.5t-23.5 76.5q0 51 38 91t107 40
q61 0 100 -38.5t39 -88.5q0 -36 -19.5 -66.5t-48.5 -58.5q49 -16 102.5 -24t97.5 -8h41v273h199l14 -69h-127v-627z" />
    <glyph glyph-name="dv_JNya" horiz-adv-x="785" 
d="M583 0v391h-169q20 -22 31 -52t11 -66q0 -99 -65 -147.5t-155 -48.5q-13 0 -25 0.5t-23 2.5l92 -116l-56 -40l-127 166q-29 12 -58 39.5t-29 64.5q0 19 13 30.5t33 11.5q35 0 63 -22.5t39 -55.5q17 -5 36 -8t38 -3q63 0 101.5 33.5t38.5 90.5q0 56 -36.5 88t-98.5 32h-56
l-17 72h419v149h-579l-15 68h792l15 -68h-127v-628z" />
    <glyph glyph-name="dv_Jha.NEP" horiz-adv-x="475" 
d="M176 163h-27q-12 0 -31.5 11t-19.5 27q0 35 28 71t63 36q11 0 20 -10.5t16 -26.5l15 -34q49 3 85.5 30t36.5 82q0 46 -32.5 75t-94.5 31q-8 -43 -39.5 -71t-77.5 -28q-29 0 -55 8.5t-48 26.5q7 13 15.5 26t16.5 26q15 -9 30 -15t32 -6q27 0 41 21t14 50q0 33 -24.5 66.5
t-46.5 51.5h-90q-3 17 -6.5 34.5t-7.5 34.5h481l15 -69h-305q18 -13 32.5 -36.5t19.5 -48.5q107 -3 162 -54t55 -125t-55 -122.5t-139 -54.5q28 -43 54.5 -85.5t54.5 -84.5l-80 -21q-27 45 -54 91.5t-54 92.5z" />
    <glyph glyph-name="dv_Reph" horiz-adv-x="0" 
d="M-131 675h-84q-25 22 -42.5 64t-17.5 76q0 55 36.5 99t99.5 44q43 0 72 -13t43 -25l-31 -55q-16 9 -32.5 17.5t-41.5 8.5q-32 0 -50.5 -27t-18.5 -57q0 -38 22.5 -75.5t44.5 -56.5z" />
    <glyph glyph-name="dv_Reph.MAR" horiz-adv-x="456" 
d="M467 612h-463l-15 68h462zM380 418l59 -36q-37 -71 -91 -103.5t-120 -32.5q-67 0 -121 32.5t-90 103.5l58 36q27 -54 67 -80.5t86 -26.5q45 0 84 26.5t68 80.5z" />
    <glyph glyph-name="dv_Rakar" horiz-adv-x="0" 
d="M64 -155l-51 40l123 129h73l123 -129l-50 -40l-108 114z" />
    <glyph glyph-name="dv_MatraI.1" 
d="M838 711q-79 52 -235.5 107t-271.5 55q-84 0 -128 -31.5t-44 -76.5q0 -33 13.5 -54t21.5 -31h121l16 -68h-128v-628l-87 16v612h-112l-15 68h113q-7 13 -16.5 33.5t-9.5 54.5q0 76 64 125.5t185 49.5q138 0 310.5 -65.5t235.5 -112.5z" />
    <glyph glyph-name="dv_MatraI.2" 
d="M1055 711q-104 37 -351 99.5t-384 62.5q-83 0 -122 -31.5t-39 -76.5q0 -33 13.5 -54t21.5 -31h121l16 -68h-128v-628l-87 16v612h-112l-15 68h113q-7 13 -16.5 33.5t-9.5 54.5q0 76 59 125.5t180 49.5q163 0 418 -71t354 -107z" />
    <glyph glyph-name="dv_MatraI.3" 
d="M911 711q-90 45 -282 103.5t-304 58.5q-84 0 -125 -31.5t-41 -76.5q0 -33 13.5 -54t21.5 -31h121l16 -68h-128v-628l-87 16v612h-112l-15 68h113q-7 13 -16.5 33.5t-9.5 54.5q0 76 61.5 125.5t181.5 49.5q132 0 341.5 -69t282.5 -109z" />
    <glyph glyph-name="dv_MatraI.4" 
d="M572 711q-55 46 -130.5 104t-162.5 58q-60 0 -90 -31.5t-30 -76.5q0 -33 13.5 -54t21.5 -31h121l16 -68h-128v-628l-87 16v612h-112l-15 68h113q-7 13 -16.5 33.5t-9.5 54.5q0 76 50 125.5t143 49.5q104 0 193.5 -63.5t142.5 -114.5z" />
    <glyph glyph-name="dv_MatraIReph" 
d="M819 675h-84q-14 11 -26.5 30.5t-19.5 39.5q-81 48 -188.5 87.5t-200.5 39.5q-66 0 -103.5 -31t-37.5 -76q0 -34 13.5 -55t21.5 -30h120l17 -69h-128v-627l-87 16v611h-113l-14 69h113q-7 13 -16.5 33.5t-9.5 54.5q0 75 59.5 125t158.5 50q94 0 198 -36t183 -78
q4 51 40.5 90t95.5 39q42 0 71.5 -13t43.5 -25l-32 -55q-16 9 -32.5 17.5t-41.5 8.5q-32 0 -50 -27t-18 -57q0 -38 22 -75.5t45 -56.5z" />
    <glyph glyph-name="dv_MatraIReph.1" 
d="M905 675h-83q-14 11 -26.5 30.5t-19.5 39.5q-90 48 -219.5 87.5t-225.5 39.5q-84 0 -128 -31t-44 -76q0 -34 13.5 -55t21.5 -30h120l17 -69h-128v-627l-87 16v611h-113l-14 69h113q-7 13 -16.5 33.5t-9.5 54.5q0 75 63.5 125t184.5 50q101 0 224 -37t213 -80q4 52 40 92
t96 40q43 0 72.5 -13t43.5 -25l-32 -55q-16 9 -32.5 17.5t-41.5 8.5q-32 0 -50 -27t-18 -57q0 -38 22 -75.5t44 -56.5z" />
    <glyph glyph-name="dv_MatraIReph.2" 
d="M1111 675h-83q-12 10 -22.5 25t-18.5 32q-130 41 -337 90.5t-326 49.5q-85 0 -125 -30.5t-40 -76.5q0 -34 13.5 -55t21.5 -30h120q4 -17 8.5 -34.5t8.5 -34.5h-128v-627l-87 16v611h-113q-3 17 -6.5 34.5t-7.5 34.5h113q-7 13 -16.5 33.5t-9.5 54.5q0 75 59 125t180 50
q126 0 321 -47.5t333 -91.5v7q0 54 35.5 100.5t98.5 46.5q43 0 72.5 -13t43.5 -25l-32 -55q-16 9 -32.5 17.5t-41.5 8.5q-32 0 -50 -27t-18 -57q0 -38 22 -75.5t44 -56.5z" />
    <glyph glyph-name="dv_MatraIReph.3" 
d="M981 675h-84q-13 10 -24 26.5t-19 35.5q-105 44 -267 89.5t-261 45.5q-84 0 -125.5 -31t-41.5 -76q0 -34 13.5 -55t21.5 -30h120q4 -17 8.5 -34.5t8.5 -34.5h-128v-627l-87 16v611h-113q-3 17 -6.5 34.5t-7.5 34.5h113q-7 13 -16.5 33.5t-9.5 54.5q0 77 62 126t183 49
q99 0 252.5 -44t262.5 -86q4 54 37.5 99.5t99.5 45.5q42 0 71.5 -13t43.5 -25l-32 -55q-16 9 -32.5 17.5t-41.5 8.5q-32 0 -50 -27.5t-18 -56.5q0 -38 22 -75.5t45 -56.5z" />
    <glyph glyph-name="dv_MatraIReph.4" 
d="M626 675h-84q-19 17 -35 47.5t-21 60.5q-46 36 -98 62.5t-109 26.5q-60 0 -90 -31t-30 -76q0 -34 13.5 -55t21.5 -30h120l17 -69h-128v-627l-87 16v611h-113l-14 69h113q-7 13 -16.5 33.5t-9.5 54.5q0 75 49.5 125t142.5 50q60 0 116 -24t105 -57q13 40 46.5 68t82.5 28
q43 0 72 -13t43 -25l-31 -55q-16 9 -32.5 17.5t-41.5 8.5q-32 0 -50.5 -27t-18.5 -57q0 -38 22.5 -75.5t44.5 -56.5z" />
    <glyph glyph-name="dv_MatraIi.1" 
d="M-399 736q-17 -7 -35 -12.5t-35 -11.5q-13 20 -23 42.5t-10 52.5q0 60 46.5 98t142.5 38q178 0 326 -92.5t177 -170.5h121q4 -17 8.5 -34.5t8.5 -34.5h-128v-627l-86 16v611h-114q-3 17 -6.5 34.5t-7.5 34.5h117q-18 45 -143 118.5t-271 73.5q-56 0 -83.5 -21t-27.5 -44
q0 -19 6.5 -35t16.5 -36z" />
    <glyph glyph-name="dv_MatraIi.2" 
d="M-207 736q-17 -7 -34.5 -12.5t-35.5 -11.5q-13 20 -23.5 44.5t-10.5 54.5q0 56 43 94t109 38q111 0 213.5 -92t135.5 -171h121q4 -17 8.5 -34.5t8.5 -34.5h-128v-627l-86 16v611h-114q-3 17 -6.5 34.5t-7.5 34.5h117q-16 45 -96 118.5t-162 73.5q-38 0 -56.5 -21
t-18.5 -44q0 -19 6.5 -35t16.5 -36z" />
    <glyph glyph-name="dv_MatraIiReph.1" 
d="M-399 736q-17 -7 -35 -12.5t-35 -11.5q-13 20 -23 42.5t-10 52.5q0 60 46.5 98t142.5 38q104 0 204.5 -38t171.5 -87q10 51 40 95.5t96 44.5q43 0 72 -13t43 -25l-31 -55q-16 9 -32.5 17.5t-41.5 8.5q-33 0 -51 -27t-18 -57q0 -36 20 -71.5t42 -55.5h109q4 -17 8.5 -34.5
t8.5 -34.5h-128v-627l-86 16v611h-114q-3 17 -6.5 34.5t-7.5 34.5h117q-18 45 -143 118.5t-271 73.5q-56 0 -83.5 -21t-27.5 -44q0 -19 6.5 -35t16.5 -36z" />
    <glyph glyph-name="dv_MatraIiReph.2" 
d="M-207 736q-11 -4 -35 -12.5t-36 -11.5q-13 20 -23 44.5t-10 54.5q0 56 43 94t109 38q58 0 118 -30t109 -72q7 46 42 81.5t90 35.5q43 0 72.5 -13t43.5 -25l-32 -55q-16 9 -32.5 17.5t-41.5 8.5q-32 0 -50 -27t-18 -57q0 -36 19.5 -71.5t41.5 -55.5h108l17 -69h-128v-627
l-86 16v611h-114l-15 69h118q-16 45 -96 118.5t-162 73.5q-38 0 -56.5 -21t-18.5 -44q0 -19 6.5 -35t16.5 -36z" />
    <glyph glyph-name="dv_MatraIiReph" 
d="M-112 736q-18 -7 -35.5 -12.5t-35.5 -11.5q-12 20 -21.5 44.5t-9.5 54.5q0 56 41 94t105 38q46 0 84.5 -20.5t69.5 -52.5q13 37 46 62.5t79 25.5q43 0 72 -13t43 -25l-31 -55q-16 9 -32.5 17.5t-41.5 8.5q-33 0 -51 -27t-18 -57q0 -28 16.5 -64.5t24.5 -62.5h121
q4 -17 8.5 -34.5t8.5 -34.5h-128v-627l-87 16v611h-113q-3 17 -6.5 34.5t-7.5 34.5h118q-14 44 -56.5 118t-117.5 74q-34 0 -51.5 -20.5t-17.5 -43.5q0 -19 7 -35.5t17 -36.5z" />
    <glyph glyph-name="dv_MatraEReph" horiz-adv-x="0" 
d="M-84 640h-96q-70 64 -141 129t-140 130q17 11 34 23.5t33 24.5l133 -132q0 49 33.5 92.5t92.5 43.5q40 0 67 -11t43 -24q-7 -13 -15 -26.5t-16 -26.5q-16 8 -31.5 15t-37.5 7q-31 0 -47 -26t-16 -54q0 -25 14 -55t31 -52z" />
    <glyph glyph-name="dv_MatraAiReph" horiz-adv-x="0" 
d="M-124 678h-78l-44 44q-44 43 -82 54.5t-81 11.5h-69q-4 19 -8.5 37.5t-8.5 37.5h126q38 -3 73.5 -18t75.5 -60l-68 205l81 27q6 -24 11.5 -48t12.5 -48q15 16 36 25.5t46 9.5q40 0 67 -11t42 -24l-31 -53q-16 9 -31.5 16t-37.5 7q-29 0 -46 -25.5t-17 -51.5
q0 -4 0.5 -8.5t1.5 -7.5z" />
    <glyph glyph-name="dv_MatraOReph" 
d="M-11 680h108l-238 219q17 11 34.5 23.5t34.5 24.5q33 -33 65.5 -66.5t66.5 -66.5q4 52 36.5 98t97.5 46q43 0 72.5 -13t43.5 -25l-32 -55q-16 9 -32.5 17.5t-41.5 8.5q-32 0 -50 -27t-18 -57q0 -36 19.5 -71.5t41.5 -55.5h117q4 -17 8.5 -34.5t8.5 -34.5h-128v-627
l-87 16v611h-113q-3 17 -6.5 34.5t-7.5 34.5z" />
    <glyph glyph-name="dv_MatraAuReph" 
d="M195 680h119l17 -69h-128v-627l-87 16v611h-113q-1 10 -6.5 34.5t-7.5 34.5h126l-41 42q-43 45 -77 55.5t-74 10.5h-89l-16 75h112q46 -1 85 -14t84 -64l-67 205l81 27l23 -96q16 16 38 26.5t50 10.5q43 0 72.5 -13t43.5 -25l-32 -55q-16 9 -32.5 17.5t-41.5 8.5
q-32 0 -50 -26.5t-18 -56.5q1 -10 5.5 -30.5t23.5 -97.5z" />
    <glyph glyph-name="dv_RakarMatraU" horiz-adv-x="0" 
d="M64 -155l-51 40l123 129h73l123 -129l-50 -40l-108 114zM-28 -228q52 -62 96 -98.5t101 -36.5q42 0 64 21t22 55t-23.5 55.5t-62.5 21.5h-55v67h65q55 0 102 -38t47 -106q0 -66 -47 -105t-113 -39q-69 0 -133.5 44.5t-113.5 122.5z" />
    <glyph glyph-name="dv_RakarMatraUu" horiz-adv-x="0" 
d="M64 -155l-51 40l123 129h73l123 -129l-50 -40l-108 114zM371 -346q-53 61 -96.5 98t-100.5 37q-41 0 -62.5 -21.5t-21.5 -54.5q0 -34 22.5 -56.5t61.5 -22.5h56v-66h-66q-54 0 -101.5 38t-47.5 107q0 67 47.5 105t113.5 38q69 0 133 -44.5t113 -121.5z" />
    <glyph glyph-name="dv_KRa" horiz-adv-x="908" 
d="M141 304q0 -60 38.5 -98t95.5 -38q55 0 87 28t51 55v105q-19 27 -51 55.5t-87 28.5q-53 0 -93 -38t-41 -98zM228 102q-76 13 -126.5 66t-50.5 135q0 88 61.5 148.5t162.5 60.5q44 0 80 -17.5t58 -38.5v156h-409l-15 68h916l14 -68h-419v-161q21 22 57.5 41.5t84.5 19.5
q101 0 162 -60t61 -149q0 -96 -66 -151.5t-150 -55.5l-15 72q61 0 101 38t40 98t-39 98t-92 38q-61 0 -94.5 -32.5t-49.5 -57.5v-366l-87 16v133l-275 -177l-61 49z" />
    <glyph glyph-name="dv_KRa.NEP" horiz-adv-x="878" 
d="M604 149q60 0 100 38.5t40 98.5t-39 97.5t-91 37.5q-62 0 -95 -32t-50 -57v-348l-87 16v240l-250 -138l-45 62l274 152q-61 70 -105 86.5t-83 16.5q-17 0 -44.5 -9.5t-52.5 -20.5l-33 71q36 19 83 24.5t61 5.5q43 0 92.5 -17.5t102.5 -79.5v218h-379q-3 17 -6.5 34.5
t-7.5 34.5h885l16 -69h-421v-177q22 22 58.5 41t83.5 19q101 0 162.5 -60.5t61.5 -148.5q0 -96 -66.5 -151.5t-150.5 -55.5z" />
    <glyph glyph-name="dv_KhRa" horiz-adv-x="917" 
d="M195 270q7 -67 81.5 -124.5t181.5 -57.5q22 0 45.5 3t45.5 7l74 66q-6 -1 -12 -1.5t-13 -0.5q-78 0 -136 47.5t-58 128.5q0 78 55.5 129.5t143.5 51.5q31 0 60 -8t51 -23v123h-407q23 -28 35 -63.5t12 -74.5q0 -72 -43.5 -128t-115.5 -75zM493 339q0 -53 32 -82.5
t78 -29.5q47 0 79 30t32 81v4q-1 50 -33 79.5t-78 29.5q-44 0 -77 -30.5t-33 -81.5zM714 154l-254 -224q-16 11 -33.5 21.5t-33.5 20.5l63 51l-40 2q-133 8 -213.5 77.5t-87.5 159.5h-36q-18 0 -28 10.5t-10 26.5q0 34 32 70.5t74 36.5q19 0 24.5 -22t7.5 -42
q39 11 65.5 45.5t26.5 85.5q0 43 -19 81t-50 57h-199q-3 17 -6.5 34.5t-7.5 34.5h925l14 -69h-127v-627l-87 16v154z" />
    <glyph glyph-name="dv_GRa" horiz-adv-x="632" 
d="M430 0v199q-70 -60 -141 -121t-141 -121l-61 47l343 291v316h-219v-384q0 -23 -9 -37t-27 -14q-48 0 -83.5 38.5t-35.5 74.5q0 27 21 33.5t47 6.5v282h-121q-3 17 -6.5 34.5t-7.5 34.5h639l15 -69h-127v-627z" />
    <glyph glyph-name="dv_GhRa" horiz-adv-x="704" 
d="M161 257q0 -42 36 -70.5t89 -28.5q17 0 33 2.5t32 6.5l151 132v313h-279q-27 -10 -40 -31.5t-13 -46.5q0 -44 31.5 -72t94.5 -28h39l21 -63h-53q-80 0 -111 -34t-31 -80zM219 -44l-61 48l95 82q-84 7 -132 57t-48 116q0 49 22.5 90t65.5 55q-35 16 -56 52t-21 79
q0 19 8.5 40t21.5 37h-110l-15 68h711l16 -68h-128v-628l-86 16v203z" />
    <glyph glyph-name="dv_CRa" horiz-adv-x="709" 
d="M506 0v155l-296 -184l-61 49l180 111q-81 7 -132.5 55t-51.5 133q0 37 13 67t34 52h-138l-15 72h371l17 -71l-47 -1q-77 -1 -114.5 -33t-37.5 -86q0 -55 39 -87t99 -32q56 0 94.5 28t45.5 77v307h-502l-15 68h716l15 -68h-128v-628z" />
    <glyph glyph-name="dv_JRa" horiz-adv-x="809" 
d="M607 391h-218q19 -22 30.5 -52t11.5 -67q0 -99 -66 -147.5t-157 -48.5q-61 0 -111.5 18.5t-84.5 41.5l16 75q38 -28 83.5 -46t94.5 -18q60 0 100 34.5t40 89.5q0 56 -36 88t-99 32h-55q-4 18 -8.5 35.5t-8.5 35.5h468v149h-604q-3 17 -6.5 34.5t-7.5 34.5h816
q4 -17 8 -34.5t8 -34.5h-129v-627l-85 16v196l-262 -242q-16 12 -31 24.5t-30 23.5q81 72 161.5 145.5t161.5 145.5v98z" />
    <glyph glyph-name="dv_JhRa" horiz-adv-x="882" 
d="M455 260q55 0 111.5 0.5t111.5 0.5v350h-239v-166h-229q-34 0 -54.5 -19t-20.5 -46q0 -28 21.5 -47t55.5 -19h84q52 0 93 -13.5t66 -40.5zM195 63q19 -5 39.5 -7.5t40.5 -3.5q70 0 101.5 28t31.5 68q0 41 -28 68t-75 27h-94q-60 0 -110 38.5t-50 98.5q0 64 46 100.5
t112 36.5h144v94h-350q-3 17 -6.5 34.5t-7.5 34.5h889l14 -69h-127v-627l-87 16v149l-127 -170q-16 10 -33 20t-33 20q34 43 69 87.5t69 87.5h-135q4 -10 5.5 -22t1.5 -25q0 -66 -57 -115t-161 -49q-13 0 -26 1.5t-26 2.5l93 -117l-57 -41q-31 42 -63 83l-64 82
q-29 13 -58 40.5t-29 64.5q0 19 13 30.5t33 11.5q36 0 64 -23t38 -55z" />
    <glyph glyph-name="dv_TRa" horiz-adv-x="586" 
d="M469 611v-627l-87 16v231l-250 -138l-45 62l274 152q-61 71 -105 87.5t-83 16.5q-17 0 -44.5 -9.5t-52.5 -20.5l-33 70q25 13 66 22.5t59 9.5q46 0 101 -13.5t113 -84.5v226h-379q-3 17 -6.5 34.5t-7.5 34.5h592l16 -69h-128z" />
    <glyph glyph-name="dv_TRa.alt" horiz-adv-x="685" 
d="M483 0v318l-135 -180l-66 48l159 199h-163q-63 0 -94 -24t-31 -71q0 -57 47 -135t94 -150l-74 -24q-51 72 -102 156.5t-51 156.5q0 68 46 114t128 46h242v158h-479l-15 68h693l15 -68h-127v-628z" />
    <glyph glyph-name="dv_ThRa" horiz-adv-x="678" 
d="M221 597q-9 15 -24 25t-33 10q-19 0 -34.5 -11.5t-15.5 -34.5q0 -19 14.5 -30t32.5 -11q26 0 40.5 16t19.5 36zM247 534q-10 -19 -35 -33.5t-55 -14.5q-43 0 -77.5 27t-34.5 72q0 47 34 78.5t88 31.5q57 0 105.5 -49t48.5 -122q0 -90 -42 -127.5t-88 -61.5q12 -37 51 -63
t93 -28q63 0 100.5 36t39.5 99v232h-62l-15 69h276q4 -17 7.5 -34.5t7.5 -34.5h-127v-627l-87 16v206q-75 -58 -150.5 -117.5t-150.5 -116.5q-15 12 -30.5 23.5t-30.5 24.5l213 158l-24 1q-79 7 -136.5 61.5t-57.5 121.5q4 5 8 9.5t8 9.5q63 17 96 60t27 93z" />
    <glyph glyph-name="dv_DRa" horiz-adv-x="602" 
d="M551 -9l-67 -34q-17 32 -34 64.5t-35 63.5q-10 -5 -23 -8t-24 -4l-77 -135l-84 22q18 30 37 60t37 60q-93 12 -159.5 68t-66.5 160q0 110 84 168t209 58h34v77h-379q-3 17 -6.5 34.5t-7.5 34.5h608l15 -69h-143v-149h-109q-94 0 -156.5 -39.5t-62.5 -114.5q0 -78 57 -117
t138 -39q11 0 22.5 1t23.5 2q-1 7 -2.5 15.5t-1.5 18.5q0 14 16 29t45 15q15 0 47 -13.5t32 -46.5q0 -15 -9 -32t-27 -32z" />
    <glyph glyph-name="dv_DhRa" horiz-adv-x="735" 
d="M532 0v203q-70 -62 -141 -124t-141 -122l-61 47l95 83h-20q-90 5 -140 53t-50 120q0 49 23.5 90t68.5 54q-37 14 -59 51t-22 80q0 63 48 111t129 48q48 0 84 -18.5t49 -35.5l-39 -53q-16 16 -38.5 24.5t-51.5 8.5q-40 0 -66 -24t-26 -62q0 -44 29.5 -72t94.5 -28h35
q6 -16 12 -31.5t13 -31.5h-55q-78 0 -110 -34t-32 -80q0 -45 41.5 -74t99.5 -29q21 0 40 3.5t38 9.5q38 33 76.5 65.5t75.5 65.5v313h-72l-15 69h286l15 -69h-127v-627z" />
    <glyph glyph-name="dv_NRa" horiz-adv-x="606" 
d="M489 -16l-87 16v231l-269 -259q-15 12 -30.5 23.5t-30.5 24.5l303 287q-51 24 -101.5 48.5t-101.5 49.5q-14 -19 -32 -44t-35 -25q-34 0 -54 41t-20 70q0 28 14 51t36 23q5 0 10 -1t9 -3l302 -145v239h-399q-3 17 -6.5 34.5t-7.5 34.5h613l15 -69h-128v-627z" />
    <glyph glyph-name="dv_PRa" horiz-adv-x="657" 
d="M454 379v232h-272v-228q0 -64 34 -101.5t101 -37.5q63 0 99.5 36t37.5 99zM454 0v202l-295 -230q-16 12 -31 23.5t-30 24.5q50 38 108 79.5t108 79.5h-35q-83 7 -133 60.5t-50 143.5v228h-93q-3 17 -6.5 34.5t-7.5 34.5h664l15 -69h-127v-627z" />
    <glyph glyph-name="dv_PhRa" horiz-adv-x="947" 
d="M454 379v232h-273v-228q0 -64 34.5 -101.5t101.5 -37.5q63 0 99 36t38 99zM674 149q61 0 101 38.5t40 98.5q-1 60 -39.5 97.5t-91.5 37.5q-61 0 -93.5 -31t-49.5 -57v-349l-87 16v201l-295 -229q-16 12 -31 23.5t-30 24.5q50 38 105 78.5t105 78.5h-27q-84 7 -135 61
t-51 145v228h-92q-3 17 -6.5 34.5t-7.5 34.5h955l15 -69h-418v-175q22 21 58.5 39.5t82.5 18.5q100 0 161.5 -60.5t61.5 -148.5q0 -96 -66.5 -151.5t-150.5 -55.5z" />
    <glyph glyph-name="dv_BRa" horiz-adv-x="617" 
d="M414 355q-19 27 -51 56t-90 29q-17 0 -33.5 -4.5t-30.5 -14.5l178 -204q8 8 15 17t12 17v104zM168 387q-13 -17 -20 -38t-7 -46q0 -60 38 -98.5t94 -38.5q22 0 40.5 5t33.5 13zM414 0v134q-69 -44 -138 -89t-138 -88l-61 48l150 96q-75 13 -125.5 66.5t-50.5 134.5
q0 89 62 149.5t163 60.5q44 0 79.5 -17t58.5 -38v154h-411q-3 17 -6.5 34.5t-7.5 34.5h624l15 -69h-127v-627z" />
    <glyph glyph-name="dv_BhRa" horiz-adv-x="731" 
d="M111 578q0 -21 14.5 -33t33.5 -12q12 0 26 5.5t24 14.5q-1 33 -14 52.5t-38 19.5q-19 0 -32.5 -12.5t-13.5 -34.5zM528 0v222q-75 -63 -150.5 -125.5t-150.5 -124.5q-15 12 -30.5 23.5t-30.5 24.5l298 235h-171q0 -39 -9 -61.5t-26 -22.5q-47 0 -83 35.5t-36 74.5
q0 12 16 26.5t53 14.5v162q-13 -7 -28 -10.5t-25 -3.5q-54 0 -86.5 33t-32.5 82t36.5 79.5t85.5 30.5q63 0 99 -45t36 -120v-208h235v289h-122l-16 69h337l15 -69h-127v-627z" />
    <glyph glyph-name="dv_MRa" horiz-adv-x="660" 
d="M458 611h-253v-289h253v289zM544 -16l-86 16v222q-75 -63 -150.5 -125.5t-150.5 -124.5q-15 12 -30.5 23.5t-30.5 24.5l298 235h-188q0 -37 -9.5 -60.5t-26.5 -23.5q-47 0 -83 35t-36 74q0 19 19 30.5t50 11.5v289h-117q-3 17 -6.5 34.5t-7.5 34.5h667q4 -17 8 -34.5
t8 -34.5h-128v-627z" />
    <glyph glyph-name="dv_YRa" horiz-adv-x="631" 
d="M428 611h-233q16 -16 27 -43.5t11 -63.5q0 -47 -21.5 -92.5t-66.5 -70.5q10 -37 49.5 -66t93.5 -31q63 0 101 36t39 99v232zM77 379q29 9 52.5 44.5t23.5 86.5q0 37 -19.5 64t-52.5 37h-78q-3 17 -6.5 34.5t-7.5 34.5h639l15 -69h-128v-627l-87 16v199
q-72 -57 -145.5 -114t-145.5 -113q-15 12 -30.5 23.5t-30.5 24.5l102 76t102 77q-86 10 -152 61t-66 128z" />
    <glyph glyph-name="dv_LRa" horiz-adv-x="868" 
d="M665 0v218l-218 -247l-61 49l276 297q-8 44 -32.5 70t-66.5 26q-49 0 -74.5 -39t-25.5 -101v-109l-83 18l-1 91q0 62 -26.5 99.5t-85.5 38.5q-45 0 -76 -32t-31 -72q0 -71 28.5 -134t79.5 -169l-70 -24q-49 96 -84.5 173t-35.5 161q0 67 56 119t133 53q49 -1 88 -20
t64 -53q24 35 61.5 54t83.5 19q29 0 55.5 -8.5t45.5 -24.5v159h-661l-15 68h875l15 -68h-127v-628z" />
    <glyph glyph-name="dv_VRa" horiz-adv-x="615" 
d="M141 304q0 -60 37.5 -98t93.5 -39q60 0 91 29.5t50 55.5v103q-19 27 -50 56t-91 29q-53 0 -91.5 -38t-39.5 -98zM413 0v133l-275 -177l-61 49l151 96q-76 13 -126.5 66.5t-50.5 135.5q0 88 61.5 148.5t162.5 60.5q44 0 79.5 -17t58.5 -38v155h-409l-15 68h623l15 -68
h-127v-628z" />
    <glyph glyph-name="dv_ShRa" horiz-adv-x="673" 
d="M119 563q0 55 40.5 92.5t97.5 37.5t96.5 -37.5t39.5 -92.5q0 -36 -15.5 -75t-58.5 -76l151 -117v385h199l14 -69h-127v-627l-86 16v180q-69 -49 -138 -98.5t-138 -97.5q-9 17 -19 34.5t-19 35.5l264 185l-163 123q-48 -37 -96.5 -75t-96.5 -75l-33 73l164 127
q-41 37 -58.5 74t-17.5 77zM313 561q0 25 -15.5 42t-40.5 17t-41 -17t-16 -42q0 -23 11.5 -46.5t45.5 -53.5q33 30 44.5 54t11.5 46z" />
    <glyph glyph-name="dv_SsRa" horiz-adv-x="660" 
d="M457 382v229h-226l223 -261q2 7 2.5 15t0.5 17zM182 383q0 -64 34 -101.5t101 -37.5q37 0 65.5 12.5t45.5 34.5l-246 291v-199zM457 0v204l-298 -232q-16 12 -31 23.5t-30 24.5q50 38 106.5 79.5t106.5 79.5h-32q-83 7 -133 60.5t-50 143.5v228h-93q-3 17 -6.5 34.5
t-7.5 34.5h667q4 -17 8 -34.5t8 -34.5h-128v-627z" />
    <glyph glyph-name="dv_SRa" horiz-adv-x="774" 
d="M571 611h-247q23 -28 35 -67.5t12 -77.5q0 -31 -8 -59t-24 -51h232v255zM529 290h-253q-14 -10 -31.5 -17.5t-36.5 -11.5l120 -192zM129 254h-39q-17 0 -27.5 11.5t-10.5 27.5q0 34 27.5 69.5t63.5 35.5q16 0 29 -23t20 -41q41 12 67 46.5t26 85.5q0 43 -19 84.5
t-50 60.5h-213q-3 17 -6.5 34.5t-7.5 34.5h781l15 -69h-127v-627l-87 16v233l-201 -230l-85 -21q-39 67 -77.5 135.5t-78.5 136.5z" />
    <glyph glyph-name="dv_HRa" horiz-adv-x="541" 
d="M298 318q-2 1 -6 1.5t-11 0.5q-51 -2 -85 -35t-34 -79q0 -75 72.5 -111t144.5 -42q-5 -17 -10 -34.5t-9 -34.5q-109 6 -194 63.5t-85 158.5q0 42 14.5 75t39.5 56q-21 15 -33.5 38t-12.5 54q0 57 38 87t101 30h127v65h-352q-3 17 -6.5 34.5t-7.5 34.5h547q4 -17 8 -34.5
t8 -34.5h-108v-134h-210q-28 0 -45 -12.5t-17 -34.5q0 -17 10.5 -30.5t28.5 -20.5q18 6 38 9t42 3q90 0 145.5 -44.5t55.5 -105.5q0 -34 -14 -68t-43 -53l-59 43q19 16 26.5 33.5t7.5 39.5q0 19 -11.5 37t-33.5 29q-15 -37 -30 -75t-31 -75l-75 18z" />
    <glyph glyph-name="dv_QRa" horiz-adv-x="908" 
d="M141 304q0 -60 38.5 -98t95.5 -38q55 0 87 28t51 55v105q-19 27 -51 55.5t-87 28.5q-53 0 -93 -38t-41 -98zM228 102q-76 13 -126.5 66t-50.5 135q0 88 61.5 148.5t162.5 60.5q44 0 80 -17.5t58 -38.5v156h-409l-15 68h916l14 -68h-419v-161q21 22 57.5 41.5t84.5 19.5
q101 0 162 -60t61 -149q0 -96 -66 -151.5t-150 -55.5l-15 72q61 0 101 38t40 98t-39 98t-92 38q-61 0 -94.5 -32.5t-49.5 -57.5v-366l-87 16v134l-270 -174l-66 45zM316 -104q-25 0 -42 16.5t-17 40.5q0 25 17 42.5t42 17.5t42 -17.5t17 -42.5q0 -24 -17 -40.5t-42 -16.5z
" />
    <glyph glyph-name="dv_KhhRa" horiz-adv-x="917" 
d="M195 270q7 -67 81.5 -124.5t181.5 -57.5q22 0 45.5 3t45.5 7l74 66q-6 -1 -12 -1.5t-13 -0.5q-78 0 -136 47.5t-58 128.5q0 78 55.5 129.5t143.5 51.5q31 0 60 -8t51 -23v123h-407q23 -28 35 -63.5t12 -74.5q0 -72 -43.5 -128t-115.5 -75zM493 339q0 -53 32 -82.5
t78 -29.5q47 0 79 30t32 81v4q-1 50 -33 79.5t-78 29.5q-44 0 -77 -30.5t-33 -81.5zM714 154l-254 -224q-16 11 -33.5 21.5t-33.5 20.5l68 53h-45q-133 8 -213.5 77.5t-87.5 159.5h-36q-18 0 -28 10.5t-10 26.5q0 34 32 70.5t74 36.5q19 0 24.5 -22t7.5 -42q39 11 65.5 45.5
t26.5 85.5q0 43 -19 81t-50 57h-199q-3 17 -6.5 34.5t-7.5 34.5h925l14 -69h-127v-627l-87 16v154zM97 -33q-24 0 -41 17t-17 40q0 25 17 42t41 17q25 0 42 -17t17 -42q0 -23 -17 -40t-42 -17z" />
    <glyph glyph-name="dv_GhhRa" horiz-adv-x="632" 
d="M430 0v199q-70 -60 -141 -121t-141 -121l-61 47l343 291v316h-219v-384q0 -23 -9 -37t-27 -14q-48 0 -83.5 38.5t-35.5 74.5q0 27 21 33.5t47 6.5v282h-121q-3 17 -6.5 34.5t-7.5 34.5h639l15 -69h-127v-627zM333 -75q-25 0 -41.5 17t-16.5 41t16.5 41t41.5 17
q24 0 41.5 -17t17.5 -41t-17.5 -41t-41.5 -17z" />
    <glyph glyph-name="dv_ZRa" horiz-adv-x="809" 
d="M607 391h-218q19 -22 30.5 -52t11.5 -67q0 -99 -66 -147.5t-157 -48.5q-61 0 -111.5 18.5t-84.5 41.5l16 75q38 -28 83.5 -46t94.5 -18q60 0 100 34.5t40 89.5q0 56 -36 88t-99 32h-55q-4 18 -8.5 35.5t-8.5 35.5h468v149h-604q-3 17 -6.5 34.5t-7.5 34.5h816
q4 -17 8 -34.5t8 -34.5h-129v-627l-85 16v196l-262 -242q-16 12 -31 24.5t-30 23.5q81 72 161.5 145.5t161.5 145.5v98zM118 -104q-24 0 -41 17t-17 41t17 41t41 17q25 0 42.5 -17t17.5 -41t-17.5 -41t-42.5 -17z" />
    <glyph glyph-name="dv_FRa" horiz-adv-x="947" 
d="M454 379v232h-273v-228q0 -64 34.5 -101.5t101.5 -37.5q63 0 99 36t38 99zM674 149q61 0 101 38.5t40 98.5q-1 60 -39.5 97.5t-91.5 37.5q-61 0 -93.5 -31t-49.5 -57v-349l-87 16v201l-295 -229q-16 12 -31 23.5t-30 24.5q50 38 105 78.5t105 78.5h-27q-84 7 -135 61
t-51 145v228h-92q-3 17 -6.5 34.5t-7.5 34.5h955l15 -69h-418v-175q22 21 58.5 39.5t82.5 18.5q100 0 161.5 -60.5t61.5 -148.5q0 -96 -66.5 -151.5t-150.5 -55.5zM353 -48q-24 0 -41 17.5t-17 40.5q0 25 17 42t41 17q25 0 42 -17t17 -42q0 -23 -17 -40.5t-42 -17.5z" />
    <glyph glyph-name="dv_YyRa" horiz-adv-x="631" 
d="M428 611h-233q16 -16 27 -43.5t11 -63.5q0 -47 -21.5 -92.5t-66.5 -70.5q10 -37 49.5 -66t93.5 -31q63 0 101 36t39 99v232zM77 379q29 9 52.5 44.5t23.5 86.5q0 37 -19.5 64t-52.5 37h-78q-3 17 -6.5 34.5t-7.5 34.5h639l15 -69h-128v-627l-87 16v199
q-72 -57 -145.5 -114t-145.5 -113q-15 12 -30.5 23.5t-30.5 24.5l102 76t102 77q-86 10 -152 61t-66 128zM329 -48q-23 0 -40 17.5t-17 40.5q0 25 17 42t40 17q26 0 43 -17t17 -42q0 -23 -17 -40.5t-43 -17.5z" />
    <glyph glyph-name="dv_KSsRa" horiz-adv-x="809" 
d="M248 619q-24 0 -40.5 -16.5t-16.5 -39.5q0 -28 17.5 -50.5t45.5 -41.5q23 22 38 44t15 44q0 25 -18.5 42.5t-40.5 17.5zM611 0v277l-93 -124q-16 10 -33 20.5t-33 20.5q29 37 57.5 73t57.5 72h-44q-63 0 -132.5 11.5t-128.5 36.5q-46 -37 -84.5 -74t-38.5 -82
q0 -51 42 -73.5t83 -22.5q10 0 22 1t23 2q-2 7 -3 15.5t-1 18.5q0 22 15 37.5t38 15.5q27 0 57.5 -19t30.5 -50q0 -16 -10 -32t-27 -32q17 -30 35 -60t35 -58l-67 -35q-17 33 -35 65l-36 64l-11 -2q-16 -3 -33 -5t-33 -2q-76 0 -143 39.5t-67 131.5q0 59 44.5 106t94.5 87
q-38 26 -61.5 60.5t-23.5 76.5q0 51 38 91t107 40q61 0 100 -38.5t39 -88.5q0 -36 -19.5 -66.5t-48.5 -58.5q53 -17 111 -24.5t103 -7.5h73v273h199l9 -69h-122v-627z" />
    <glyph glyph-name="dv_KR.half" horiz-adv-x="645" 
d="M141 304q0 -60 38.5 -98t95.5 -38q55 0 87 28t51 55v105q-19 27 -51 55.5t-87 28.5q-53 0 -93 -38t-41 -98zM228 102q-76 13 -126.5 66t-50.5 135q0 88 61.5 148.5t162.5 60.5q44 0 80 -17.5t58 -38.5v156h-409l-15 68h652l15 -68h-156v-161q21 22 57.5 39t84.5 17h124
v-67h-122q-61 0 -94.5 -32.5t-49.5 -57.5v-366l-87 16v134l-270 -174l-66 45z" />
    <glyph glyph-name="dv_GhR.half" horiz-adv-x="379" 
d="M535 327l13 -84l-329 -287l-61 48l95 82q-84 7 -132 57t-48 116q0 49 22.5 90t65.5 55q-35 16 -56 52t-21 79q0 19 8.5 40t21.5 37h-110l-15 68h388l16 -68h-170q-27 -10 -40 -31.5t-13 -46.5q0 -44 31.5 -72t94.5 -28h39l21 -63h-53q-80 0 -111 -34t-31 -80
q0 -42 36 -70.5t89 -28.5q17 0 33 2.5t32 6.5z" />
    <glyph glyph-name="dv_TR.half" horiz-adv-x="264" 
d="M275 611h-272q-3 17 -6.5 34.5t-7.5 34.5h270q4 -17 8 -34.5t8 -34.5zM382 231l-250 -138l-45 62l274 152q-61 71 -105 87.5t-83 16.5q-17 0 -44.5 -9.5t-52.5 -20.5l-33 70q37 19 84 25t61 6q42 0 92 -18t102 -79q1 -6 1 -18.5v-27.5q0 -31 -0.5 -64t-0.5 -44z" />
    <glyph glyph-name="dv_TR.half.alt" horiz-adv-x="361" 
d="M372 612h-368l-15 68h368zM483 454v-54l33 -41l-168 -221l-66 48l159 199h-163q-63 0 -94 -24t-31 -71q0 -57 47 -135t94 -150l-74 -24q-51 72 -102 156.5t-51 156.5q0 68 46 114t128 46h242z" />
    <glyph glyph-name="dv_DhR.half" horiz-adv-x="414" 
d="M408 193l158 133q3 -20 6 -41t7 -42l-329 -286l-61 47l90 79h-1q-82 4 -143 50t-61 125q0 50 24 91.5t68 54.5q-37 14 -59 51t-22 80q0 63 48 111t129 48q48 0 84 -18.5t49 -35.5l-39 -53q-16 16 -38.5 24.5t-51.5 8.5q-35 0 -64.5 -25t-29.5 -63q0 -43 31 -70.5
t95 -27.5h35q6 -16 12 -31.5t13 -31.5h-55q-78 0 -110 -34t-32 -80q0 -45 41.5 -74t99.5 -29q21 0 46.5 5t59.5 34z" />
    <glyph glyph-name="dv_PR.half" horiz-adv-x="333" 
d="M495 300l-23 -83l-313 -245q-16 12 -31 23.5t-30 24.5q50 38 101.5 76t101.5 76l-17 4q-85 7 -136.5 61t-51.5 146v228h-93q-3 17 -6.5 34.5t-7.5 34.5h339q4 -17 8 -34.5t8 -34.5h-162v-228q0 -64 34 -101.5t101 -37.5q61 0 97.5 34.5t39.5 94.5z" />
    <glyph glyph-name="dv_VR.half" horiz-adv-x="498" 
d="M509 612h-505l-15 68h505zM226 100q-74 15 -124.5 72.5t-50.5 130.5q0 84 61 146t161 63q93 -1 157 -61t64 -147q0 -22 -5 -43.5t-14 -40.5l-8 -53l-329 -211l-61 49zM404 303q0 60 -37.5 98.5t-94.5 38.5q-60 0 -95.5 -41.5t-35.5 -94.5q0 -60 37.5 -98t93.5 -39
q62 0 97 41.5t35 94.5z" />
    <glyph glyph-name="dv_ShR.half" horiz-adv-x="345" 
d="M313 561q0 25 -15.5 42t-40.5 17t-41 -17t-16 -42q0 -23 11.5 -46.5t45.5 -53.5q33 30 44.5 54t11.5 46zM444 162q-62 -45 -124.5 -90t-125.5 -88q-9 17 -19 34.5t-19 35.5l264 185l-163 123q-48 -37 -96.5 -75t-96.5 -75l-33 73l164 127q-38 34 -56.5 70t-18.5 76
q0 57 38.5 96t98.5 39q59 0 97 -39t38 -96q0 -32 -16.5 -71.5t-56.5 -74.5l130 -101l34 -14v-68q-1 0 -1 0.5t-1 0.5q0 -13 0.5 -26t0.5 -26q-9 -4 -18.5 -8t-19.5 -8z" />
    <glyph glyph-name="dv_SsR.half" horiz-adv-x="337" 
d="M472 217l-313 -245q-16 12 -31 23.5t-30 24.5q50 38 101.5 76t101.5 76l-17 4q-85 7 -136.5 61t-51.5 146v228h-93q-3 17 -6.5 34.5t-7.5 34.5h344q4 -17 8 -34.5t8 -34.5h-118l215 -251l55 -52zM182 383q0 -64 34 -101.5t101 -37.5q37 0 65.5 12.5t45.5 34.5l-246 291
v-199z" />
    <glyph glyph-name="dv_SR.half" horiz-adv-x="453" 
d="M583 348l8 -94l-221 -251l-85 -21q-39 67 -77.5 135.5t-78.5 136.5h-39q-17 0 -27.5 11.5t-10.5 27.5q0 34 27.5 69.5t63.5 35.5q16 0 29 -23t20 -41q41 12 67 46.5t26 85.5q0 43 -19 84.5t-50 60.5h-213q-3 17 -6.5 34.5t-7.5 34.5h459q4 -17 8 -34.5t8 -34.5h-140
q23 -28 35 -67.5t12 -77.5q0 -31 -8 -59t-24 -51h232zM529 290h-253q-14 -10 -31.5 -17.5t-36.5 -11.5l120 -192z" />
    <glyph glyph-name="dv_GR.half" horiz-adv-x="310" 
d="M322 611h-111v-384q0 -23 -9 -37t-27 -14q-48 0 -83.5 38.5t-35.5 74.5q0 27 21 33.5t47 6.5v282h-121q-3 17 -6.5 34.5t-7.5 34.5h317q4 -17 8 -34.5t8 -34.5zM87 4q93 80 188 159.5t188 159.5q4 -21 7 -42l6 -42l-328 -282z" />
    <glyph glyph-name="dv_DR.half" horiz-adv-x="602" 
d="M551 -9l-67 -34q-16 30 -31.5 59.5t-31.5 58.5q-12 -2 -29 -3.5t-27 -1.5l-74 -132l-84 22q18 30 37 60t37 60q-93 12 -159.5 68t-66.5 160q0 110 84 168t209 58h34v77h-379q-3 17 -6.5 34.5t-7.5 34.5h608l15 -69h-143v-149h-109q-94 0 -156.5 -39.5t-62.5 -114.5
q0 -78 57 -117t138 -39q11 0 22.5 1t23.5 2q-1 7 -2.5 15.5t-1.5 18.5q0 14 12 29t36 15q30 0 61 -13.5t31 -46.5q0 -15 -9 -32t-27 -32zM522 -314l-213 189l63 58l201 -201z" />
    <glyph glyph-name="dv_BhR.half" horiz-adv-x="410" 
d="M111 578q0 -21 14.5 -33t33.5 -12q12 0 26 5.5t24 14.5q-1 33 -14 52.5t-38 19.5q-19 0 -32.5 -12.5t-13.5 -34.5zM549 322l-8 -90q-78 -65 -157 -130.5t-157 -129.5q-15 12 -30.5 23.5t-30.5 24.5l298 235h-170q0 -38 -9.5 -61t-26.5 -23q-48 0 -82.5 35t-34.5 77
q0 30 21.5 34.5t45.5 4.5v162q-13 -7 -28 -10.5t-25 -3.5q-54 0 -86.5 32.5t-32.5 82.5q0 49 37 79.5t85 30.5q63 0 99 -45t36 -120v-208h256z" />
    <glyph glyph-name="dv_GRYa" horiz-adv-x="942" 
d="M738 611h-233q16 -16 27 -43.5t11 -63.5q0 -47 -21.5 -92.5t-66.5 -70.5q10 -37 49.5 -66t93.5 -31q63 0 101 36t39 99v232zM387 379q29 9 52.5 44.5t23.5 86.5q0 37 -19.5 64t-52.5 37h-180v-384q0 -23 -9 -37t-27 -14q-48 0 -83.5 38.5t-35.5 74.5q0 27 21 33.5t47 6.5
v282h-121q-3 17 -6.5 34.5t-7.5 34.5h949l15 -69h-128v-627l-87 16v217q-25 -21 -60 -33.5t-81 -12.5q-40 0 -77.5 13t-67.5 35l-304 -262l-61 47q82 70 158 134t157 132q-14 21 -22 44t-8 48z" />
    <glyph glyph-name="dv_ChRYa" horiz-adv-x="1358" 
d="M459 399q0 62 40 108.5t103 46.5q26 0 48 -6.5t38 -16.5h149q57 0 87.5 -28t30.5 -61q0 -41 -20.5 -63t-63.5 -45q11 -37 50 -66t93 -31q64 0 102 36t39 100v239h-919q-31 -13 -46.5 -39.5t-15.5 -58.5q0 -56 40.5 -92t124.5 -36h26l19 -62h-38q-97 0 -141.5 -37.5
t-44.5 -101.5q0 -66 58.5 -98t127.5 -32q99 0 175 56t101 125q-60 3 -111.5 49.5t-51.5 113.5zM608 485q-34 0 -53.5 -25.5t-19.5 -60.5q0 -46 39.5 -75.5t82.5 -30.5q12 22 19 48t7 53q0 35 -17 63t-58 28zM235 -155l-53 40l99 104q-93 11 -151.5 61.5t-58.5 134.5
q0 49 30.5 101t102.5 69q-61 19 -90 67.5t-29 92.5q0 27 9.5 52.5t25.5 44.5h-115l-16 68h1364l16 -68h-127v-628l-87 16v211q-25 -22 -60 -34.5t-82 -12.5q-90 0 -157 58t-67 133l15 18q28 8 52 21t24 35q0 15 -15.5 25.5t-49.5 10.5h-71q7 -16 11 -33.5t4 -32.5
q0 -106 -90.5 -245.5t-265.5 -164.5l100 -104l-51 -40l-109 114z" />
    <glyph glyph-name="dv_TtTtYa" horiz-adv-x="1140" 
d="M460 611v-89h160q60 0 87.5 -30t27.5 -64q0 -37 -22.5 -61t-58.5 -43q10 -37 49.5 -66t93.5 -32q63 0 101.5 37t39.5 100v248h-478zM145 -170q0 -72 53.5 -107.5t124.5 -35.5q47 0 90 13t88 44q2 -20 5 -39.5t6 -39.5q-35 -27 -82.5 -40t-106.5 -13q-115 0 -189 55
t-74 162t72.5 157.5t165.5 54.5q19 1 38 1.5t38 0.5v57q-10 -1 -20.5 -1.5t-20.5 -0.5q-119 0 -197 52.5t-78 162.5q0 106 73 158t166 56q19 1 38 1h38v83h-370q-3 17 -6.5 34.5t-7.5 34.5h1148l15 -69h-127v-627l-87 16v201q-25 -22 -60 -35t-82 -13q-90 0 -157.5 58.5
t-67.5 133.5l16 17q29 9 52 22t23 35q0 14 -15 25t-50 11h-289q-64 0 -114 -34.5t-50 -105.5q0 -72 53.5 -108t125.5 -36q47 0 89.5 13t87.5 45q3 -19 6 -39.5t5 -39.5q-11 -9 -24 -16t-26 -13v-151h-152q-65 0 -114.5 -35t-49.5 -105z" />
    <glyph glyph-name="dv_TthTthYa" horiz-adv-x="1229" 
d="M367 611v-68q50 -3 94.5 -22t73.5 -52h172q57 0 88 -28.5t31 -61.5q0 -41 -20.5 -63t-63.5 -44q11 -37 50 -66.5t93 -31.5q63 0 102 36.5t40 100.5v300h-660zM145 322q0 -76 55.5 -111.5t126.5 -35.5q78 0 130 41t52 108t-52.5 107.5t-129.5 40.5q-74 0 -128 -43
t-54 -107zM281 104q-90 10 -156 63.5t-66 152.5q0 89 64 150.5t158 71.5v69h-278q-3 17 -6.5 34.5t-7.5 34.5h1235q4 -17 7.5 -34.5t7.5 -34.5h-126v-627l-86 16v149q-25 -22 -61 -35t-82 -13q-89 0 -156.5 59t-67.5 132q26 31 58 36.5t32 37.5q0 16 -15 26.5t-50 10.5h-106
q7 -18 11 -38.5t4 -42.5q0 -96 -67 -152t-160 -66v-51q95 -7 161 -64t66 -156q0 -105 -80.5 -163t-186.5 -58q-104 0 -186 54t-82 166q0 88 64 149.5t158 71.5v51zM145 -166q0 -77 55.5 -112t126.5 -35q78 0 130 41t52 107q0 68 -52.5 108t-129.5 40q-74 -1 -128 -42.5
t-54 -106.5z" />
    <glyph glyph-name="dv_DdDdYa" horiz-adv-x="1028" 
d="M367 611v-76h140q37 0 77.5 -22t40.5 -68q0 -41 -20 -63t-63 -44q10 -37 49.5 -66.5t93.5 -31.5q63 0 101.5 36t39.5 99v236h-459zM71 -270q32 -22 75.5 -35t82.5 -14q45 1 69 19t24 46q0 31 -21 51t-56 20h-65q-54 0 -92 34.5t-38 83.5q0 51 36.5 84t90.5 33h107v53
q-12 -3 -25.5 -4.5t-28.5 -1.5q-49 0 -97.5 14t-74.5 31l13 73q32 -21 75.5 -35t82.5 -14q42 0 67.5 19t25.5 47q0 31 -21 51t-56 20h-65q-54 0 -92 34t-38 82q0 53 36.5 86t90.5 33h107v71h-281q-3 17 -6.5 34.5t-7.5 34.5h1035q4 -17 8 -34.5t8 -34.5h-128v-627l-86 16
v214q-25 -21 -60.5 -33.5t-81.5 -12.5q-90 0 -157 58t-67 132l14 18q28 8 52 21t24 36q0 14 -20.5 25t-83.5 11h-255q-28 0 -44.5 -13t-16.5 -35t17.5 -34.5t45.5 -12.5h55q73 0 116.5 -38.5t43.5 -101.5q0 -25 -10.5 -49t-30.5 -41v-163h-176q-28 0 -44.5 -12t-16.5 -34
t17.5 -34.5t45.5 -12.5h55q73 0 116.5 -39t43.5 -103q0 -54 -46 -94t-132 -40q-49 0 -97.5 14.5t-74.5 30.5z" />
    <glyph glyph-name="dv_DdhDdhYa" horiz-adv-x="1136" 
d="M460 611v-87h156q60 0 87.5 -29.5t27.5 -63.5q0 -36 -21.5 -60t-59.5 -44q11 -38 50 -67t93 -31q63 0 101.5 36.5t39.5 99.5v246h-474zM391 305q-26 0 -45 -16.5t-19 -47.5q0 -24 12.5 -44t34.5 -32q40 9 58 33t18 49t-15.5 41.5t-43.5 16.5zM145 -167q0 -69 46.5 -104.5
t95.5 -38.5q-16 12 -22.5 31t-6.5 39q0 53 39.5 88t91.5 35q54 0 91 -32.5t37 -86.5q0 -63 -50.5 -107.5t-143.5 -44.5q-115 0 -189 56.5t-74 163.5q0 106 72.5 157t165.5 55q19 1 38 1h38v58q-13 -2 -25.5 -3t-25.5 -1q-116 0 -190.5 55t-74.5 162q0 106 73 158t166 56
q19 1 38 1h38v80h-370q-3 17 -6.5 34.5t-7.5 34.5h1143l15 -69h-127v-627l-86 16v204q-25 -22 -60 -35t-82 -13q-89 0 -157 58.5t-68 132.5l15 18q29 8 52.5 21.5t23.5 35.5q0 14 -15 25t-50 11h-271q-71 0 -124.5 -33.5t-53.5 -106.5q0 -69 47 -105t96 -39
q-16 12 -22.5 31.5t-6.5 39.5q0 52 39.5 87.5t90.5 35.5q53 0 91 -32.5t38 -86.5q0 -34 -14.5 -63t-41.5 -49v-165q-38 0 -76.5 0.5t-75.5 0.5q-65 0 -114.5 -35.5t-49.5 -104.5zM392 -181q-25 0 -44.5 -16t-19.5 -47q0 -23 12.5 -43t34.5 -32q40 8 58.5 32t18.5 50
q0 25 -16 40.5t-44 15.5z" />
    <glyph glyph-name="dv_DdhRYa" horiz-adv-x="1164" 
d="M503 611v-118h140q59 0 87 -29.5t28 -64.5q0 -37 -22 -61t-59 -43q11 -37 50 -66.5t93 -31.5q63 0 101.5 36.5t39.5 99.5v278h-458zM252 -154l-52 40l96 101q-95 13 -166.5 72t-71.5 181q0 124 92.5 192t222.5 68h43v111h-413q-3 17 -6.5 34.5t-7.5 34.5h1171
q4 -17 7.5 -34.5t7.5 -34.5h-128v-627l-86 16v172q-25 -21 -60.5 -34t-81.5 -13q-90 0 -157.5 58t-67.5 133l16 17q28 9 52 22t24 35q0 16 -15.5 26t-50.5 10h-247q-98 0 -163.5 -48.5t-65.5 -137.5q0 -92 55.5 -135t130.5 -49q-19 16 -31.5 41.5t-12.5 50.5q0 60 41 103.5
t107 43.5q68 0 109.5 -39t41.5 -99q0 -62 -45.5 -108.5t-119.5 -60.5q25 -25 50 -51t49 -51q-12 -10 -25 -20l-26 -20l-107 113zM439 220q-30 0 -52 -18.5t-22 -53.5q0 -28 14.5 -51t41.5 -36q45 10 66.5 37t21.5 57q0 28 -19 46.5t-51 18.5z" />
    <glyph glyph-name="dv_DGRa" horiz-adv-x="602" 
d="M551 -9l-67 -34l-64 118h-14q-16 -31 -35 -65t-35 -65l-84 21l32 56l32 56q-30 1 -59 7t-54 16v-141q0 -37 -3.5 -61t-30.5 -24q-45 0 -81 36.5t-36 74.5q0 28 21 34t46 6v124q-29 28 -46.5 67.5t-17.5 90.5q0 110 84 168t209 58h34v77h-379q-3 17 -6.5 34.5t-7.5 34.5
h608l15 -69h-143v-149h-112q-93 0 -154.5 -39.5t-61.5 -114.5q0 -78 57 -117t138 -39q11 0 22.5 1t23.5 2q-1 7 -2.5 15.5t-1.5 18.5q0 22 15 37t38 15q26 0 56.5 -18.5t30.5 -49.5q0 -15 -9 -32t-27 -32z" />
    <glyph glyph-name="dv_DDYa" horiz-adv-x="1098" 
d="M430 611v-72h147q61 0 88 -31t27 -65q0 -35 -21.5 -59t-59.5 -43q11 -37 50 -66t93 -32q64 0 102 36.5t39 99.5v232h-465zM398 0q-25 -7 -52 -11.5t-58 -4.5q-107 0 -166.5 50t-59.5 131q0 30 16 67t62 65q-29 19 -46 48.5t-17 66.5q0 55 40.5 92.5t106.5 37.5h118v69
h-339q-3 17 -6.5 34.5t-7.5 34.5h1105l15 -69h-127v-627l-87 16v217q-25 -21 -60.5 -33.5t-81.5 -12.5q-90 0 -157.5 58t-67.5 132q24 34 58 36.5t34 38.5q0 14 -15.5 25t-50.5 11h-325q-31 0 -49 -17.5t-18 -43.5q0 -25 16.5 -47t50.5 -22h168l18 -66h-145q-39 0 -78 -27.5
t-39 -78.5q0 -54 34.5 -84.5t97.5 -30.5q22 0 42 3.5t39 8.5q-2 7 -3 17.5t-1 18.5q0 20 13 35.5t34 15.5q35 0 61.5 -27t26.5 -55q0 -10 -9 -24t-21 -25l69 -117l-67 -35q-18 32 -35.5 65t-35.5 64z" />
    <glyph glyph-name="dv_DBRa" horiz-adv-x="603" 
d="M204 40q0 -54 34 -86.5t83 -33.5q11 0 21.5 2t20.5 6q-37 42 -74 83t-74 83q-5 -12 -8 -25.5t-3 -28.5zM412 85q-18 -4 -36 -5.5t-35 -2.5h-21.5t-20.5 1q27 -31 55 -61t55 -61q14 15 22.5 36t9.5 46q-7 12 -13 24t-13 23h-3zM482 109q25 -43 56 -97.5t56 -97.5
q-16 -9 -33.5 -17t-33.5 -17l-42 78q-13 -29 -36.5 -53t-57.5 -36l-62 -111l-87 22q13 20 26.5 40t26.5 40q-73 7 -122 55t-49 124q0 25 6 47.5t17 41.5q-42 28 -67 73t-25 107q0 110 84.5 168t208.5 58h34v77h-379q-3 17 -6.5 34.5t-7.5 34.5h608l15 -69h-143v-149h-109
q-94 0 -156.5 -39.5t-62.5 -114.5q0 -78 57 -117t138 -39q11 0 22.5 1t23.5 2q-1 7 -2.5 15.5t-1.5 18.5q0 14 11 29t33 15q31 0 63.5 -13.5t32.5 -46.5q0 -15 -9 -32t-27 -32z" />
    <glyph glyph-name="dv_DRYa" horiz-adv-x="775" 
d="M150 168q0 -54 42.5 -85t106.5 -31q21 0 42.5 3t43.5 10l187 166v380h-142v-139h-192q-37 0 -56.5 -16t-19.5 -45q0 -25 16.5 -47t50.5 -22h168l18 -66h-148q-46 0 -81.5 -27t-35.5 -81zM572 135q-71 -63 -141.5 -127.5t-140.5 -128.5q-16 12 -31 24.5t-30 23.5l67 61
h-28q-102 5 -154 55t-52 122q0 30 16 67.5t61 65.5q-29 17 -45.5 47.5t-16.5 66.5q0 54 41 92t106 38h118v69h-339q-3 17 -6.5 34.5t-7.5 34.5h781l15 -69h-127v-627l-86 16v135z" />
    <glyph glyph-name="dv_DVYa" horiz-adv-x="1129" 
d="M469 611v-83h139q61 0 88.5 -29.5t27.5 -63.5q0 -37 -22.5 -60.5t-58.5 -44.5q10 -36 49.5 -65t93.5 -32q64 0 102 36.5t39 100.5v241h-458zM204 40q0 -54 34 -86.5t83 -33.5q51 1 85 33t35 85q-7 12 -13 24t-13 23q-16 -2 -35.5 -5t-40.5 -3q-31 0 -63 5t-60 15
q-6 -13 -9 -27t-3 -30zM482 109q25 -43 56 -97.5t56 -97.5q-16 -9 -33.5 -17t-33.5 -17l-40 74q-20 -40 -62 -69t-102 -29q-84 0 -141.5 50t-57.5 133q0 25 6 47.5t17 41.5q-42 28 -67 73t-25 107q0 110 84 168t209 58h34v77h-379q-3 17 -6.5 34.5t-7.5 34.5h1136l16 -69
h-128v-627l-86 16v207q-25 -19 -61 -32t-86 -13q-89 0 -154.5 58.5t-65.5 129.5l16 19q28 9 51.5 22t23.5 35q0 14 -15 25t-51 11h-237q-88 0 -147.5 -42.5t-59.5 -111.5q0 -78 57 -117t138 -39q11 0 22.5 1t23.5 2q-1 7 -2.5 15.5t-1.5 18.5q0 23 14.5 37.5t38.5 14.5
q26 0 56.5 -18.5t30.5 -49.5q0 -15 -9 -32t-27 -32z" />
    <glyph glyph-name="dv_DVRa" horiz-adv-x="603" 
d="M204 40q0 -54 34 -86.5t83 -33.5q51 1 85 33t35 85q-7 12 -13 24t-13 23h-2.5t-2.5 -1q-18 -2 -36 -4.5t-35 -2.5q-31 0 -63 5t-60 15q-6 -13 -9 -27t-3 -30zM482 109q25 -43 56 -97.5t56 -97.5q-16 -9 -33.5 -17t-33.5 -17l-42 78q-13 -29 -36.5 -53t-57.5 -36l-62 -111
l-87 22q13 20 26.5 40t26.5 40q-73 7 -122 55t-49 124q0 25 6 47.5t17 41.5q-42 28 -67 73t-25 107q0 110 84.5 168t208.5 58h34v77h-379q-3 17 -6.5 34.5t-7.5 34.5h608l15 -69h-143v-149h-109q-94 0 -156.5 -39.5t-62.5 -114.5q0 -78 57 -117t138 -39q11 0 22.5 1t23.5 2
q-1 7 -2.5 15.5t-1.5 18.5q0 14 12 29t40 15q15 0 51.5 -13.5t36.5 -46.5q0 -15 -9 -32t-27 -32z" />
    <glyph glyph-name="dv_DhNYa" horiz-adv-x="1056" 
d="M853 611h-234q16 -16 27.5 -43.5t11.5 -63.5q0 -46 -22 -92.5t-68 -70.5q12 -37 50.5 -66t92.5 -31q65 0 102.5 36t39.5 99v232zM501 379q29 9 52.5 44.5t23.5 86.5q0 37 -19.5 64t-52.5 37h-36l-14 69h596q4 -17 7.5 -34.5t7.5 -34.5h-127v-627l-86 16v217
q-25 -21 -60.5 -33.5t-82.5 -12.5q-42 0 -81 14.5t-69 38.5l-258 -222q16 -10 29.5 -26t13.5 -38q0 -26 -29.5 -34t-48.5 -8q-31 0 -64.5 18t-33.5 55q0 22 48 61.5t62 52.5q-78 3 -141.5 45.5t-63.5 129.5q0 44 23 88t69 58q-39 15 -60 53t-21 78q0 74 54 116.5t123 42.5
q32 0 72.5 -14t60.5 -40l-39 -53q-18 19 -41.5 26t-48.5 7q-36 0 -65 -23.5t-29 -64.5q0 -70 53.5 -84t107.5 -14q6 -16 12 -31.5t13 -31.5q-65 0 -131 -13.5t-66 -100.5q0 -54 48 -78.5t93 -24.5q17 0 35.5 3t34.5 8q36 25 70 55t68 59q-12 19 -18 40t-6 43z" />
    <glyph glyph-name="dv_NNYa" horiz-adv-x="904" 
d="M701 611h-233q16 -16 27 -43.5t11 -63.5q0 -46 -21.5 -92t-67.5 -71q11 -37 50 -66t94 -31q63 0 101 36t39 99v232zM371 390q23 15 39 46.5t16 73.5q0 37 -19.5 64t-52.5 37h-351q-3 17 -6.5 34.5t-7.5 34.5h911q4 -17 7.5 -34.5t7.5 -34.5h-127v-627l-87 16v217
q-25 -21 -60 -33.5t-82 -12.5q-60 0 -111 28t-79 71l-182 -105q9 -15 13.5 -30t4.5 -26q0 -29 -18.5 -39t-46.5 -10q-37 0 -70 23t-33 51q0 12 6.5 23.5t17.5 18.5l270 154l-165 97q-15 -25 -32.5 -43.5t-27.5 -18.5q-30 0 -50 41.5t-20 69.5q0 23 16 47.5t38 24.5
q5 0 14 -3.5t40 -21.5q56 -33 113.5 -66t113.5 -67z" />
    <glyph glyph-name="dv_PTthYa" horiz-adv-x="1135" 
d="M182 502q0 -60 31 -99t88 -39q60 0 89.5 37.5t29.5 100.5v109h-238v-109zM507 611v-68h107q59 0 87 -29t28 -62q0 -37 -21 -61.5t-60 -44.5q11 -37 50.5 -66.5t93.5 -30.5q63 0 101 36t40 99v227h-426zM591 476h-87q-4 -50 -25 -87t-55 -59q42 -25 66.5 -66t24.5 -92
q0 -82 -58.5 -136t-153.5 -54q-93 0 -154.5 52.5t-61.5 136.5q0 51 23.5 92.5t66.5 66.5q-37 26 -59 69.5t-22 102.5v109h-93q-3 17 -6.5 34.5t-7.5 34.5h1142q4 -17 8 -34.5t8 -34.5h-128v-627l-86 16v222q-25 -21 -60.5 -34t-81.5 -13q-90 0 -158 58.5t-68 132.5l16 18
q29 8 53 21t24 35q0 15 -16 25.5t-51 10.5zM175 172q0 -52 35.5 -86t90.5 -34q57 0 91 34t34 85q0 52 -34.5 86t-90.5 34q-58 0 -92 -34.5t-34 -84.5z" />
    <glyph glyph-name="dv_BhRYa" horiz-adv-x="1041" 
d="M111 578q0 -21 14.5 -33t33.5 -12q12 0 26 5.5t24 14.5q-1 33 -14 52.5t-38 19.5q-19 0 -32.5 -12.5t-13.5 -34.5zM839 611h-234q16 -16 27.5 -43.5t11.5 -63.5q0 -46 -22 -92.5t-66 -70.5q10 -37 49 -66t93 -31q63 0 101.5 36t39.5 99v232zM487 379q29 9 52.5 44.5
t23.5 86.5q0 37 -19 64t-53 37h-77q-4 17 -8 34.5t-8 34.5h640l15 -69h-128v-627l-86 16v217q-25 -21 -60 -33.5t-82 -12.5q-45 0 -86.5 16t-72.5 43q-77 -64 -155 -129.5t-156 -128.5q-15 12 -30.5 23.5t-30.5 24.5l298 235h-174q0 -37 -7.5 -60.5t-24.5 -23.5
q-47 0 -83 35.5t-36 74.5q0 12 19 26.5t50 14.5v162q-13 -7 -28 -10.5t-25 -3.5q-54 0 -86.5 32t-32.5 83q0 49 36.5 79.5t85.5 30.5q63 0 99 -45t36 -120v-208h184q-3 10 -4 20t-1 20z" />
    <glyph glyph-name="dv_ShRYa" horiz-adv-x="989" 
d="M119 563q0 55 40.5 92.5t97.5 37.5q16 0 32 -3.5t30 -9.5h666l15 -69h-127v-627l-86 16v217q-25 -21 -60 -33.5t-82 -12.5q-37 0 -71.5 10t-62.5 29q-67 -49 -160.5 -115.5t-156.5 -110.5q-9 17 -19 34.5t-19 35.5l264 185l-163 123q-48 -37 -96.5 -75t-96.5 -75l-33 73
l164 127q-41 37 -58.5 74t-17.5 77zM313 561q0 25 -15.5 42t-40.5 17t-41 -17t-16 -42q0 -23 11.5 -46.5t45.5 -53.5q33 30 44.5 54t11.5 46zM438 381q28 10 50.5 44.5t22.5 84.5q0 37 -19.5 64t-52.5 37h-57q4 -11 7.5 -24t3.5 -28q0 -35 -16.5 -73t-57.5 -74l109 -86
q-1 4 -2.5 9.5t-1.5 9.5zM787 611h-235q17 -16 27.5 -43.5t10.5 -63.5q0 -46 -21 -92t-67 -71q11 -37 50.5 -66t93.5 -31q63 0 101 36t40 99v232z" />
    <glyph glyph-name="dv_SsTtYa" horiz-adv-x="1135" 
d="M420 611h-182l173 -171q4 13 6.5 29t2.5 33v109zM507 611v-68h107q59 0 87 -29t28 -62q0 -37 -21 -61.5t-60 -44.5q11 -37 50.5 -66.5t93.5 -30.5q63 0 101 36t40 99v227h-426zM182 502q0 -60 31 -99t88 -39q25 0 44.5 7t34.5 20l-198 193v-82zM175 172q0 -52 37 -86
t101 -34q45 0 87 14t81 44q2 -19 5 -37t6 -37q-31 -25 -78.5 -39.5t-99.5 -14.5q-99 0 -163 50.5t-64 138.5q0 51 23.5 92.5t66.5 66.5q-37 26 -59 69.5t-22 102.5v109h-93q-3 17 -6.5 34.5t-7.5 34.5h1142q4 -17 8 -34.5t8 -34.5h-128v-627l-86 16v222q-25 -21 -60.5 -34
t-81.5 -13q-90 0 -158 58.5t-68 132.5l16 18q29 8 53 21t24 35q0 15 -16 25.5t-51 10.5h-87q-8 -87 -64.5 -134.5t-138.5 -47.5h-15q-51 -4 -81 -39.5t-30 -82.5z" />
    <glyph glyph-name="dv_SsTtVa" horiz-adv-x="603" 
d="M233 612l176 -178q5 15 8 32t3 36v110h-187zM182 502q0 -60 31 -99t88 -39q22 0 40.5 6t32.5 16l-192 196v-80zM175 172q0 -52 37 -86t101 -34q46 0 87.5 14t80.5 44l11 -74l-7 -5v-389l-85 16v73q-19 -22 -53 -37t-79 -15q-87 0 -141 50t-54 131q0 50 25 93t69 69
q-37 24 -58 62t-21 87q0 51 23.5 93t66.5 67q-38 25 -60 68.5t-22 102.5v110h-92l-15 68h610l16 -68h-108v-110q0 -98 -59 -153t-147 -55h-8t-7 1q-51 -5 -81 -40.5t-30 -82.5zM400 -5q-19 -6 -41.5 -9.5t-44.5 -3.5q-10 0 -20 1l-20 2q-46 -7 -79 -43t-33 -82q0 -51 30 -80
t80 -29q45 0 80.5 26t47.5 55v163z" />
    <glyph glyph-name="dv_SsTthYa" horiz-adv-x="1135" 
d="M420 611h-182l173 -171q4 13 6.5 29t2.5 33v109zM507 611v-68h107q59 0 87 -29t28 -62q0 -37 -21 -61.5t-60 -44.5q11 -37 50.5 -66.5t93.5 -30.5q63 0 101 36t40 99v227h-426zM182 502q0 -60 31 -99t88 -39q25 0 44.5 7t34.5 20l-198 193v-82zM591 476h-87
q-4 -50 -25 -87t-55 -59q42 -25 66.5 -66t24.5 -92q0 -82 -58.5 -136t-153.5 -54q-93 0 -154.5 52.5t-61.5 136.5q0 51 23.5 92.5t66.5 66.5q-37 26 -59 69.5t-22 102.5v109h-93q-3 17 -6.5 34.5t-7.5 34.5h1142q4 -17 8 -34.5t8 -34.5h-128v-627l-86 16v222
q-25 -21 -60.5 -34t-81.5 -13q-90 0 -158 58.5t-68 132.5l16 18q29 8 53 21t24 35q0 15 -16 25.5t-51 10.5zM175 172q0 -52 35.5 -86t90.5 -34q57 0 91 34t34 85q0 52 -34.5 86t-90.5 34q-58 0 -92 -34.5t-34 -84.5z" />
    <glyph glyph-name="dv_HMYa" horiz-adv-x="1429" 
d="M-11 680h1435l16 -69h-128v-627l-85 16v217q-25 -21 -60.5 -33.5t-82.5 -12.5q-55 0 -103 23.5t-79 60.5h-236q0 -26 -3 -55t-32 -29q-47 0 -83 35t-36 74q0 9 3 16.5t10 12.5h-236q-54 0 -90.5 -31.5t-36.5 -77.5q0 -75 72.5 -108t144.5 -39q-5 -17 -10 -34.5t-9 -34.5
q-109 6 -194 60.5t-85 155.5q0 42 14.5 72.5t39.5 53.5q-21 15 -33.5 41.5t-12.5 56.5q0 57 38 89.5t101 32.5h127v65h-352q-3 17 -6.5 34.5t-7.5 34.5zM172 426q0 -17 10.5 -35t28.5 -25q19 7 42 9.5t47 2.5l281 1v232h-137v-134h-201q-33 0 -52 -14t-19 -37zM875 379
q29 9 52.5 44.5t23.5 86.5q0 37 -19.5 64t-52.5 37h-213v-289h199q-3 10 -4.5 20t-1.5 20zM1227 611h-234q16 -16 26.5 -43.5t10.5 -63.5q0 -46 -21.5 -92t-67.5 -71q11 -37 50.5 -66t94.5 -31q62 0 100.5 36t40.5 99v232z" />
    <glyph glyph-name="dv_NgYa" horiz-adv-x="1180" 
d="M437 611v-99h222q57 0 87.5 -28.5t30.5 -62.5q0 -42 -20.5 -63t-63.5 -43q11 -38 50.5 -67.5t93.5 -31.5q63 0 101 36.5t39 98.5v260h-540zM76 110q39 -27 91 -42t104 -16q58 1 96 26.5t38 68.5q0 31 -22 63.5t-80 32.5h-93q-60 0 -110 38.5t-50 98.5q0 64 46 100.5
t112 36.5h145v94h-350q-3 17 -6.5 34.5t-7.5 34.5h1188l14 -69h-127v-627l-87 16v190q-25 -21 -60 -33.5t-82 -12.5q-90 0 -157 58t-67 132l15 18q28 8 52 21.5t24 36.5q0 13 -15.5 24t-50.5 11h-427q-34 0 -54.5 -19t-20.5 -46q0 -28 21.5 -47t55.5 -19h83q91 0 145 -42
t54 -125q0 -66 -57.5 -115.5t-162.5 -49.5q-60 0 -119.5 16.5t-92.5 38.5zM526 296q-24 0 -41 17t-17 41q0 25 17 42.5t41 17.5q25 0 42 -17.5t17 -42.5q0 -24 -17 -41t-42 -17z" />
    <glyph glyph-name="dv_TtTta" horiz-adv-x="572" 
d="M145 -170q0 -72 53.5 -107.5t124.5 -35.5q47 0 90 13t88 44q2 -20 5 -39.5t6 -39.5q-35 -27 -82.5 -40t-106.5 -13q-115 0 -189 55t-74 162t73.5 158t167.5 55q18 0 36 0.5t37 0.5v57q-16 -1 -33 -1.5t-34 -0.5q-110 4 -179.5 58.5t-69.5 156.5q0 107 74 159t167 55
q19 1 37 1h37v83h-370q-3 17 -6.5 34.5t-7.5 34.5h579l15 -69h-123v-157q-37 0 -76 0.5t-76 0.5q-64 0 -114 -35.5t-50 -104.5q0 -72 53.5 -108t125.5 -36q47 0 89.5 13t87.5 45q3 -19 6 -39.5t5 -39.5q-11 -9 -24 -16t-26 -13v-151h-152q-66 0 -115 -34.5t-49 -105.5z" />
    <glyph glyph-name="dv_TtTtha" horiz-adv-x="624" 
d="M144 315q0 -69 52.5 -106.5t126.5 -37.5q47 0 89.5 13t87.5 45q3 -19 6 -39.5t5 -39.5q-29 -22 -65 -34.5t-79 -16.5v-46q95 -7 161 -64t66 -156q0 -105 -80.5 -163t-186.5 -58q-104 0 -186 54t-82 166q0 88 64 149.5t158 71.5v47q-99 8 -161 62.5t-62 150.5
q0 106 73 158t166 56q19 1 38 1h38v83h-370q-3 17 -6.5 34.5t-7.5 34.5h631l15 -69h-175v-157q-37 0 -76 0.5t-76 0.5q-64 0 -114 -34.5t-50 -105.5zM145 -166q0 -77 55.5 -112t126.5 -35q78 0 130 41t52 107q0 68 -52.5 108t-129.5 40q-74 -1 -128 -42.5t-54 -106.5z" />
    <glyph glyph-name="dv_TtDdha" horiz-adv-x="572" 
d="M145 -167q0 -69 46.5 -104.5t95.5 -38.5q-16 12 -22.5 31t-6.5 39q0 53 39.5 88t91.5 35q54 0 91 -32.5t37 -86.5q0 -63 -50.5 -107.5t-143.5 -44.5q-115 0 -189 56.5t-74 163.5t73.5 158t167.5 54q18 1 36 1h37v55q-16 -1 -33 -1.5t-34 -0.5q-110 4 -179.5 58.5
t-69.5 156.5q0 107 74 159t167 55q19 1 37 1h37v83h-370q-3 17 -6.5 34.5t-7.5 34.5h579l15 -69h-123v-157q-37 0 -76 0.5t-76 0.5q-64 0 -114 -35.5t-50 -104.5q0 -72 53.5 -108t125.5 -36q47 0 89.5 13t87.5 45q3 -19 6 -39.5t5 -39.5q-11 -9 -24 -16t-26 -13v-149
q-38 0 -76.5 0.5t-75.5 0.5q-66 0 -115 -34.5t-49 -105.5zM392 -181q-25 0 -44.5 -16t-19.5 -47q0 -23 12.5 -43t34.5 -32q40 8 58.5 32t18.5 50q0 25 -16 40.5t-44 15.5z" />
    <glyph glyph-name="dv_TtYa" horiz-adv-x="1166" 
d="M503 611v-131h142q60 0 87.5 -32.5t27.5 -66.5q0 -37 -22.5 -61t-59.5 -45q11 -36 50.5 -65.5t93.5 -31.5q63 0 101.5 36.5t39.5 100.5v296h-460zM144 230q0 -101 65.5 -137.5t151.5 -36.5q53 0 103 14t99 49l10 -79q-40 -29 -96 -43.5t-116 -14.5q-116 0 -209.5 54
t-93.5 194q0 125 92.5 188t222.5 63h43v130h-413q-3 17 -6.5 34.5t-7.5 34.5h1173q4 -17 7.5 -34.5t7.5 -34.5h-128v-627l-86 16v153q-25 -22 -60.5 -35t-81.5 -13q-90 0 -157.5 58.5t-67.5 132.5l16 18q28 9 51.5 21.5t23.5 34.5q0 15 -15 26t-51 11h-232q-103 0 -174 -42
t-71 -135z" />
    <glyph glyph-name="dv_TtVa" horiz-adv-x="631" 
d="M144 230q0 -101 65.5 -137.5t151.5 -36.5q53 0 103 14t99 49l10 -79q-8 -6 -17.5 -12t-19.5 -11v-375l-87 16v76q-19 -22 -54 -38.5t-80 -16.5q-94 0 -150 51.5t-56 133.5q0 46 22 86t61 65q-58 25 -96 77t-38 138q0 125 92.5 188t222.5 63h43v130h-413q-3 17 -6.5 34.5
t-7.5 34.5h638l15 -69h-139v-204h-130q-98 0 -163.5 -45t-65.5 -132zM449 -9q-21 -4 -43.5 -6.5t-44.5 -2.5q-13 0 -25 1t-25 2q-47 -7 -79.5 -41t-32.5 -80q0 -51 31 -82t84 -31q51 0 86.5 28t48.5 56v156z" />
    <glyph glyph-name="dv_TthTtha" horiz-adv-x="648" 
d="M659 611h-292v-68q95 -7 161 -64.5t66 -156.5q0 -96 -67 -152t-160 -66v-51q95 -7 161 -64t66 -156q0 -105 -80.5 -163t-186.5 -58q-104 0 -186 54t-82 166q0 88 64 149.5t158 71.5v51q-90 10 -156 63.5t-66 152.5q0 89 64 150.5t158 71.5v69h-278q-3 17 -6.5 34.5
t-7.5 34.5h655zM145 322q0 -76 55.5 -111.5t126.5 -35.5q78 0 130 41t52 108t-52.5 107.5t-129.5 40.5q-74 0 -128 -43t-54 -107zM145 -166q0 -77 55.5 -112t126.5 -35q78 0 130 41t52 107q0 68 -52.5 108t-129.5 40q-74 -1 -128 -42.5t-54 -106.5z" />
    <glyph glyph-name="dv_TthYa" horiz-adv-x="1250" 
d="M401 612v-135q13 -1 25.5 -3t24.5 -5h278q58 0 88.5 -27.5t30.5 -61.5q0 -42 -20.5 -64t-63.5 -44q10 -37 49.5 -66.5t94.5 -31.5q63 0 101 37t39 100v301h-647zM576 232q0 101 -64.5 137.5t-151.5 36.5q-88 0 -151.5 -44.5t-63.5 -131.5q0 -101 64.5 -137.5t150.5 -36.5
q90 0 153 44t63 132zM360 -18q-115 0 -208 54t-93 194q0 113 75 174t180 73v135h-310l-15 68h1257l16 -68h-127v-628l-87 16v149q-25 -21 -60.5 -34t-81.5 -13q-90 0 -157 58.5t-67 132.5l14 17q29 9 52.5 22t23.5 35q0 15 -15 26t-51 11h-115q32 -28 51 -70.5t19 -101.5
q0 -127 -90 -188.5t-211 -61.5z" />
    <glyph glyph-name="dv_DdTta" horiz-adv-x="447" 
d="M74 -170q0 -71 53.5 -107t125.5 -36q46 0 89.5 13t87.5 44l11 -79q-34 -27 -82 -40t-106 -13q-115 0 -189 55t-74 162q0 108 74.5 159t168.5 54q18 0 35.5 0.5t35.5 0.5v69q-16 -6 -34.5 -9.5t-39.5 -3.5q-49 0 -97.5 14t-74.5 31l13 73q32 -21 75.5 -35t82.5 -14
q42 0 67.5 19t25.5 47q0 31 -21 51t-56 20h-65q-54 0 -92 34t-38 82q0 52 36.5 85.5t90.5 33.5h107v71h-281q-3 17 -6.5 34.5t-7.5 34.5h454l15 -69h-91v-142h-176q-28 0 -44.5 -13t-16.5 -35t17.5 -34.5t45.5 -12.5h55q73 0 116.5 -38.5t43.5 -101.5q0 -17 -5 -33t-13 -30
v-201h-151q-64 0 -114.5 -34t-50.5 -106z" />
    <glyph glyph-name="dv_DdDda" horiz-adv-x="447" 
d="M71 -270q32 -22 75.5 -35t82.5 -14q40 1 66.5 16t26.5 49t-21 52.5t-56 18.5h-65q-54 0 -92 34.5t-38 83.5q0 51 36.5 84t90.5 33h107v53q-12 -3 -25.5 -4.5t-28.5 -1.5q-49 0 -97.5 14t-74.5 31l13 73q32 -21 75.5 -35t82.5 -14q40 0 66.5 19.5t26.5 46.5q0 31 -21 51
t-56 20h-65q-54 0 -92 34t-38 82q0 53 36.5 86t90.5 33h107v71h-281q-3 17 -6.5 34.5t-7.5 34.5h454l15 -69h-91v-142h-176q-27 0 -44 -13.5t-17 -34.5q0 -22 17.5 -34.5t45.5 -12.5h55q73 0 116.5 -38.5t43.5 -101.5q0 -25 -10.5 -49t-30.5 -41v-163h-176q-27 0 -44 -12
t-17 -34t17.5 -34.5t45.5 -12.5h55q73 0 116.5 -39t43.5 -103q0 -54 -46 -94t-132 -40q-49 0 -97.5 14.5t-74.5 30.5z" />
    </font>
</defs>
</svg>
